%TF.GenerationSoftware,KiCad,Pcbnew,9.0.8-9.0.8~ubuntu24.04.1*%
%TF.CreationDate,2026-04-17T22:53:44+08:00*%
%TF.ProjectId,plate2,706c6174-6532-42e6-9b69-6361645f7063,rev?*%
%TF.SameCoordinates,Original*%
%TF.FileFunction,Profile,NP*%
%FSLAX46Y46*%
G04 Gerber Fmt 4.6, Leading zero omitted, Abs format (unit mm)*
G04 Created by KiCad (PCBNEW 9.0.8-9.0.8~ubuntu24.04.1) date 2026-04-17 22:53:44*
%MOMM*%
%LPD*%
G01*
G04 APERTURE LIST*
%TA.AperFunction,Profile*%
%ADD10C,0.050000*%
%TD*%
G04 APERTURE END LIST*
D10*
X86125000Y-111045000D02*
X86125000Y-182845000D01*
X86125000Y-111045000D02*
G75*
G02*
X88325000Y-108845000I2200000J0D01*
G01*
X88325000Y-108845000D02*
X122025000Y-108845000D01*
X88325000Y-185045000D02*
G75*
G02*
X86125000Y-182845000I0J2200000D01*
G01*
X106275000Y-127895000D02*
G75*
G02*
X104075000Y-127895000I-1100000J0D01*
G01*
X104075000Y-127895000D02*
G75*
G02*
X106275000Y-127895000I1100000J0D01*
G01*
X106275000Y-165995000D02*
G75*
G02*
X104075000Y-165995000I-1100000J0D01*
G01*
X104075000Y-165995000D02*
G75*
G02*
X106275000Y-165995000I1100000J0D01*
G01*
X122025000Y-108845000D02*
G75*
G02*
X124225000Y-111045000I0J-2200000D01*
G01*
X122025000Y-185045000D02*
X88325000Y-185045000D01*
X124225000Y-182845000D02*
G75*
G02*
X122025000Y-185045000I-2200000J0D01*
G01*
X124225000Y-182845000D02*
X124225000Y-111045000D01*
%TO.C,K7*%
X107650022Y-150420022D02*
X107650022Y-162519978D01*
X108650022Y-149420022D02*
X120749978Y-149420022D01*
X108650022Y-163519978D02*
X120749978Y-163519978D01*
X121749978Y-150420022D02*
X121749978Y-162519978D01*
X107650022Y-150420022D02*
G75*
G02*
X108650022Y-149420022I999999J1D01*
G01*
X108650022Y-163519978D02*
G75*
G02*
X107650022Y-162519978I-1J999999D01*
G01*
X120749978Y-149420022D02*
G75*
G02*
X121749978Y-150420022I2J-999998D01*
G01*
X121749978Y-162519978D02*
G75*
G02*
X120749978Y-163519978I-999998J-2D01*
G01*
%TO.C,K1*%
X88600022Y-112320022D02*
X88600022Y-124419978D01*
X89600022Y-111320022D02*
X101699978Y-111320022D01*
X89600022Y-125419978D02*
X101699978Y-125419978D01*
X102699978Y-112320022D02*
X102699978Y-124419978D01*
X88600022Y-112320022D02*
G75*
G02*
X89600022Y-111320022I999999J1D01*
G01*
X89600022Y-125419978D02*
G75*
G02*
X88600022Y-124419978I-1J999999D01*
G01*
X101699978Y-111320022D02*
G75*
G02*
X102699978Y-112320022I2J-999998D01*
G01*
X102699978Y-124419978D02*
G75*
G02*
X101699978Y-125419978I-999998J-2D01*
G01*
%TO.C,K4*%
X88600022Y-169470022D02*
X88600022Y-181569978D01*
X89600022Y-168470022D02*
X101699978Y-168470022D01*
X89600022Y-182569978D02*
X101699978Y-182569978D01*
X102699978Y-169470022D02*
X102699978Y-181569978D01*
X88600022Y-169470022D02*
G75*
G02*
X89600022Y-168470022I999999J1D01*
G01*
X89600022Y-182569978D02*
G75*
G02*
X88600022Y-181569978I-1J999999D01*
G01*
X101699978Y-168470022D02*
G75*
G02*
X102699978Y-169470022I2J-999998D01*
G01*
X102699978Y-181569978D02*
G75*
G02*
X101699978Y-182569978I-999998J-2D01*
G01*
%TO.C,K2*%
X88600022Y-131370022D02*
X88600022Y-143469978D01*
X89600022Y-130370022D02*
X101699978Y-130370022D01*
X89600022Y-144469978D02*
X101699978Y-144469978D01*
X102699978Y-131370022D02*
X102699978Y-143469978D01*
X88600022Y-131370022D02*
G75*
G02*
X89600022Y-130370022I999999J1D01*
G01*
X89600022Y-144469978D02*
G75*
G02*
X88600022Y-143469978I-1J999999D01*
G01*
X101699978Y-130370022D02*
G75*
G02*
X102699978Y-131370022I2J-999998D01*
G01*
X102699978Y-143469978D02*
G75*
G02*
X101699978Y-144469978I-999998J-2D01*
G01*
%TO.C,K5*%
X107650022Y-112320022D02*
X107650022Y-124419978D01*
X108650022Y-111320022D02*
X120749978Y-111320022D01*
X108650022Y-125419978D02*
X120749978Y-125419978D01*
X121749978Y-112320022D02*
X121749978Y-124419978D01*
X107650022Y-112320022D02*
G75*
G02*
X108650022Y-111320022I999999J1D01*
G01*
X108650022Y-125419978D02*
G75*
G02*
X107650022Y-124419978I-1J999999D01*
G01*
X120749978Y-111320022D02*
G75*
G02*
X121749978Y-112320022I2J-999998D01*
G01*
X121749978Y-124419978D02*
G75*
G02*
X120749978Y-125419978I-999998J-2D01*
G01*
%TO.C,K8*%
X107650022Y-169470022D02*
X107650022Y-181569978D01*
X108650022Y-168470022D02*
X120749978Y-168470022D01*
X108650022Y-182569978D02*
X120749978Y-182569978D01*
X121749978Y-169470022D02*
X121749978Y-181569978D01*
X107650022Y-169470022D02*
G75*
G02*
X108650022Y-168470022I999999J1D01*
G01*
X108650022Y-182569978D02*
G75*
G02*
X107650022Y-181569978I-1J999999D01*
G01*
X120749978Y-168470022D02*
G75*
G02*
X121749978Y-169470022I2J-999998D01*
G01*
X121749978Y-181569978D02*
G75*
G02*
X120749978Y-182569978I-999998J-2D01*
G01*
%TO.C,K6*%
X107650022Y-131370022D02*
X107650022Y-143469978D01*
X108650022Y-130370022D02*
X120749978Y-130370022D01*
X108650022Y-144469978D02*
X120749978Y-144469978D01*
X121749978Y-131370022D02*
X121749978Y-143469978D01*
X107650022Y-131370022D02*
G75*
G02*
X108650022Y-130370022I999999J1D01*
G01*
X108650022Y-144469978D02*
G75*
G02*
X107650022Y-143469978I-1J999999D01*
G01*
X120749978Y-130370022D02*
G75*
G02*
X121749978Y-131370022I2J-999998D01*
G01*
X121749978Y-143469978D02*
G75*
G02*
X120749978Y-144469978I-999998J-2D01*
G01*
%TO.C,K3*%
X88600022Y-150420022D02*
X88600022Y-162519978D01*
X89600022Y-149420022D02*
X101699978Y-149420022D01*
X89600022Y-163519978D02*
X101699978Y-163519978D01*
X102699978Y-150420022D02*
X102699978Y-162519978D01*
X88600022Y-150420022D02*
G75*
G02*
X89600022Y-149420022I999999J1D01*
G01*
X89600022Y-163519978D02*
G75*
G02*
X88600022Y-162519978I-1J999999D01*
G01*
X101699978Y-149420022D02*
G75*
G02*
X102699978Y-150420022I2J-999998D01*
G01*
X102699978Y-162519978D02*
G75*
G02*
X101699978Y-163519978I-999998J-2D01*
G01*
%TD*%
M02*
