%TF.GenerationSoftware,KiCad,Pcbnew,9.0.8-9.0.8~ubuntu24.04.1*%
%TF.CreationDate,2026-04-17T22:53:44+08:00*%
%TF.ProjectId,plate2,706c6174-6532-42e6-9b69-6361645f7063,rev?*%
%TF.SameCoordinates,Original*%
%TF.FileFunction,Copper,L1,Top*%
%TF.FilePolarity,Positive*%
%FSLAX46Y46*%
G04 Gerber Fmt 4.6, Leading zero omitted, Abs format (unit mm)*
G04 Created by KiCad (PCBNEW 9.0.8-9.0.8~ubuntu24.04.1) date 2026-04-17 22:53:44*
%MOMM*%
%LPD*%
G01*
G04 APERTURE LIST*
G04 APERTURE END LIST*
%TA.AperFunction,Conductor*%
%TO.N,GND*%
G36*
X122029042Y-109095765D02*
G01*
X122050951Y-109097200D01*
X122271367Y-109111647D01*
X122287424Y-109113762D01*
X122521607Y-109160344D01*
X122537257Y-109164538D01*
X122763352Y-109241287D01*
X122778318Y-109247485D01*
X122992463Y-109353089D01*
X123006504Y-109361196D01*
X123205026Y-109493845D01*
X123217890Y-109503716D01*
X123397394Y-109661136D01*
X123408863Y-109672605D01*
X123566283Y-109852109D01*
X123576157Y-109864977D01*
X123708803Y-110063495D01*
X123716913Y-110077542D01*
X123822508Y-110291668D01*
X123828715Y-110306654D01*
X123905459Y-110532735D01*
X123909657Y-110548401D01*
X123956235Y-110782560D01*
X123958353Y-110798642D01*
X123974235Y-111040956D01*
X123974500Y-111049066D01*
X123974500Y-182840933D01*
X123974235Y-182849043D01*
X123958353Y-183091357D01*
X123956235Y-183107439D01*
X123909657Y-183341598D01*
X123905459Y-183357264D01*
X123828715Y-183583345D01*
X123822508Y-183598331D01*
X123716913Y-183812457D01*
X123708803Y-183826504D01*
X123576157Y-184025022D01*
X123566283Y-184037890D01*
X123408863Y-184217394D01*
X123397394Y-184228863D01*
X123217890Y-184386283D01*
X123205022Y-184396157D01*
X123006504Y-184528803D01*
X122992457Y-184536913D01*
X122778331Y-184642508D01*
X122763345Y-184648715D01*
X122537264Y-184725459D01*
X122521598Y-184729657D01*
X122287439Y-184776235D01*
X122271357Y-184778353D01*
X122029043Y-184794235D01*
X122020933Y-184794500D01*
X88329067Y-184794500D01*
X88320957Y-184794235D01*
X88078642Y-184778353D01*
X88062562Y-184776235D01*
X87949798Y-184753804D01*
X87828401Y-184729657D01*
X87812735Y-184725459D01*
X87586654Y-184648715D01*
X87571674Y-184642510D01*
X87357541Y-184536912D01*
X87343495Y-184528803D01*
X87144977Y-184396157D01*
X87132109Y-184386283D01*
X86952605Y-184228863D01*
X86941136Y-184217394D01*
X86783716Y-184037890D01*
X86773842Y-184025022D01*
X86641196Y-183826504D01*
X86633089Y-183812463D01*
X86527485Y-183598318D01*
X86521287Y-183583352D01*
X86444538Y-183357257D01*
X86440344Y-183341607D01*
X86393762Y-183107424D01*
X86391647Y-183091367D01*
X86375765Y-182849042D01*
X86375500Y-182840933D01*
X86375500Y-169371600D01*
X88349522Y-169371600D01*
X88349522Y-181668399D01*
X88380312Y-181862804D01*
X88441139Y-182050007D01*
X88514082Y-182193165D01*
X88530498Y-182225383D01*
X88646194Y-182384624D01*
X88785376Y-182523806D01*
X88944617Y-182639502D01*
X89027477Y-182681721D01*
X89119992Y-182728860D01*
X89119994Y-182728860D01*
X89119997Y-182728862D01*
X89220339Y-182761465D01*
X89307195Y-182789687D01*
X89501601Y-182820478D01*
X89501606Y-182820478D01*
X101798399Y-182820478D01*
X101992804Y-182789687D01*
X102180003Y-182728862D01*
X102355383Y-182639502D01*
X102514624Y-182523806D01*
X102653806Y-182384624D01*
X102769502Y-182225383D01*
X102858862Y-182050003D01*
X102919687Y-181862804D01*
X102942907Y-181716198D01*
X102950478Y-181668399D01*
X102950478Y-169371600D01*
X107399522Y-169371600D01*
X107399522Y-181668399D01*
X107430312Y-181862804D01*
X107491139Y-182050007D01*
X107564082Y-182193165D01*
X107580498Y-182225383D01*
X107696194Y-182384624D01*
X107835376Y-182523806D01*
X107994617Y-182639502D01*
X108077477Y-182681721D01*
X108169992Y-182728860D01*
X108169994Y-182728860D01*
X108169997Y-182728862D01*
X108270339Y-182761465D01*
X108357195Y-182789687D01*
X108551601Y-182820478D01*
X108551606Y-182820478D01*
X120848399Y-182820478D01*
X121042804Y-182789687D01*
X121230003Y-182728862D01*
X121405383Y-182639502D01*
X121564624Y-182523806D01*
X121703806Y-182384624D01*
X121819502Y-182225383D01*
X121908862Y-182050003D01*
X121969687Y-181862804D01*
X121992907Y-181716198D01*
X122000478Y-181668399D01*
X122000478Y-169371600D01*
X121969687Y-169177195D01*
X121908860Y-168989992D01*
X121861721Y-168897477D01*
X121819502Y-168814617D01*
X121703806Y-168655376D01*
X121564624Y-168516194D01*
X121405383Y-168400498D01*
X121230007Y-168311139D01*
X121042804Y-168250312D01*
X120848399Y-168219522D01*
X120848394Y-168219522D01*
X120799806Y-168219522D01*
X108694192Y-168219522D01*
X108650022Y-168219522D01*
X108551606Y-168219522D01*
X108551601Y-168219522D01*
X108357195Y-168250312D01*
X108169992Y-168311139D01*
X107994616Y-168400498D01*
X107903763Y-168466507D01*
X107835376Y-168516194D01*
X107835374Y-168516196D01*
X107835373Y-168516196D01*
X107696196Y-168655373D01*
X107696196Y-168655374D01*
X107696194Y-168655376D01*
X107648862Y-168720522D01*
X107580498Y-168814616D01*
X107491139Y-168989992D01*
X107430312Y-169177195D01*
X107399522Y-169371600D01*
X102950478Y-169371600D01*
X102919687Y-169177195D01*
X102858860Y-168989992D01*
X102811721Y-168897477D01*
X102769502Y-168814617D01*
X102653806Y-168655376D01*
X102514624Y-168516194D01*
X102355383Y-168400498D01*
X102180007Y-168311139D01*
X101992804Y-168250312D01*
X101798399Y-168219522D01*
X101798394Y-168219522D01*
X101749806Y-168219522D01*
X89644192Y-168219522D01*
X89600022Y-168219522D01*
X89501606Y-168219522D01*
X89501601Y-168219522D01*
X89307195Y-168250312D01*
X89119992Y-168311139D01*
X88944616Y-168400498D01*
X88853763Y-168466507D01*
X88785376Y-168516194D01*
X88785374Y-168516196D01*
X88785373Y-168516196D01*
X88646196Y-168655373D01*
X88646196Y-168655374D01*
X88646194Y-168655376D01*
X88598862Y-168720522D01*
X88530498Y-168814616D01*
X88441139Y-168989992D01*
X88380312Y-169177195D01*
X88349522Y-169371600D01*
X86375500Y-169371600D01*
X86375500Y-165888713D01*
X103824500Y-165888713D01*
X103824500Y-165911734D01*
X103824500Y-166101287D01*
X103857754Y-166311243D01*
X103885115Y-166395452D01*
X103923444Y-166513414D01*
X104019951Y-166702820D01*
X104144890Y-166874786D01*
X104295213Y-167025109D01*
X104467179Y-167150048D01*
X104467181Y-167150049D01*
X104467184Y-167150051D01*
X104656588Y-167246557D01*
X104858757Y-167312246D01*
X105068713Y-167345500D01*
X105068714Y-167345500D01*
X105281286Y-167345500D01*
X105281287Y-167345500D01*
X105491243Y-167312246D01*
X105693412Y-167246557D01*
X105882816Y-167150051D01*
X105904789Y-167134086D01*
X106054786Y-167025109D01*
X106054788Y-167025106D01*
X106054792Y-167025104D01*
X106205104Y-166874792D01*
X106205106Y-166874788D01*
X106205109Y-166874786D01*
X106330048Y-166702820D01*
X106330047Y-166702820D01*
X106330051Y-166702816D01*
X106426557Y-166513412D01*
X106492246Y-166311243D01*
X106525500Y-166101287D01*
X106525500Y-165888713D01*
X106492246Y-165678757D01*
X106426557Y-165476588D01*
X106330051Y-165287184D01*
X106330049Y-165287181D01*
X106330048Y-165287179D01*
X106205109Y-165115213D01*
X106054786Y-164964890D01*
X105882820Y-164839951D01*
X105693414Y-164743444D01*
X105693413Y-164743443D01*
X105693412Y-164743443D01*
X105491243Y-164677754D01*
X105491241Y-164677753D01*
X105491240Y-164677753D01*
X105329957Y-164652208D01*
X105281287Y-164644500D01*
X105068713Y-164644500D01*
X105020042Y-164652208D01*
X104858760Y-164677753D01*
X104656585Y-164743444D01*
X104467179Y-164839951D01*
X104295213Y-164964890D01*
X104144890Y-165115213D01*
X104019951Y-165287179D01*
X103923444Y-165476585D01*
X103857753Y-165678760D01*
X103846723Y-165748403D01*
X103824500Y-165888713D01*
X86375500Y-165888713D01*
X86375500Y-150321600D01*
X88349522Y-150321600D01*
X88349522Y-162618399D01*
X88380312Y-162812804D01*
X88441139Y-163000007D01*
X88514082Y-163143165D01*
X88530498Y-163175383D01*
X88646194Y-163334624D01*
X88785376Y-163473806D01*
X88944617Y-163589502D01*
X89027477Y-163631721D01*
X89119992Y-163678860D01*
X89119994Y-163678860D01*
X89119997Y-163678862D01*
X89220339Y-163711465D01*
X89307195Y-163739687D01*
X89501601Y-163770478D01*
X89501606Y-163770478D01*
X101798399Y-163770478D01*
X101992804Y-163739687D01*
X102180003Y-163678862D01*
X102355383Y-163589502D01*
X102514624Y-163473806D01*
X102653806Y-163334624D01*
X102769502Y-163175383D01*
X102858862Y-163000003D01*
X102919687Y-162812804D01*
X102942907Y-162666198D01*
X102950478Y-162618399D01*
X102950478Y-150321600D01*
X107399522Y-150321600D01*
X107399522Y-162618399D01*
X107430312Y-162812804D01*
X107491139Y-163000007D01*
X107564082Y-163143165D01*
X107580498Y-163175383D01*
X107696194Y-163334624D01*
X107835376Y-163473806D01*
X107994617Y-163589502D01*
X108077477Y-163631721D01*
X108169992Y-163678860D01*
X108169994Y-163678860D01*
X108169997Y-163678862D01*
X108270339Y-163711465D01*
X108357195Y-163739687D01*
X108551601Y-163770478D01*
X108551606Y-163770478D01*
X120848399Y-163770478D01*
X121042804Y-163739687D01*
X121230003Y-163678862D01*
X121405383Y-163589502D01*
X121564624Y-163473806D01*
X121703806Y-163334624D01*
X121819502Y-163175383D01*
X121908862Y-163000003D01*
X121969687Y-162812804D01*
X121992907Y-162666198D01*
X122000478Y-162618399D01*
X122000478Y-150321600D01*
X121969687Y-150127195D01*
X121908860Y-149939992D01*
X121861721Y-149847477D01*
X121819502Y-149764617D01*
X121703806Y-149605376D01*
X121564624Y-149466194D01*
X121405383Y-149350498D01*
X121230007Y-149261139D01*
X121042804Y-149200312D01*
X120848399Y-149169522D01*
X120848394Y-149169522D01*
X120799806Y-149169522D01*
X108694192Y-149169522D01*
X108650022Y-149169522D01*
X108551606Y-149169522D01*
X108551601Y-149169522D01*
X108357195Y-149200312D01*
X108169992Y-149261139D01*
X107994616Y-149350498D01*
X107903763Y-149416507D01*
X107835376Y-149466194D01*
X107835374Y-149466196D01*
X107835373Y-149466196D01*
X107696196Y-149605373D01*
X107696196Y-149605374D01*
X107696194Y-149605376D01*
X107648862Y-149670522D01*
X107580498Y-149764616D01*
X107491139Y-149939992D01*
X107430312Y-150127195D01*
X107399522Y-150321600D01*
X102950478Y-150321600D01*
X102919687Y-150127195D01*
X102858860Y-149939992D01*
X102811721Y-149847477D01*
X102769502Y-149764617D01*
X102653806Y-149605376D01*
X102514624Y-149466194D01*
X102355383Y-149350498D01*
X102180007Y-149261139D01*
X101992804Y-149200312D01*
X101798399Y-149169522D01*
X101798394Y-149169522D01*
X101749806Y-149169522D01*
X89644192Y-149169522D01*
X89600022Y-149169522D01*
X89501606Y-149169522D01*
X89501601Y-149169522D01*
X89307195Y-149200312D01*
X89119992Y-149261139D01*
X88944616Y-149350498D01*
X88853763Y-149416507D01*
X88785376Y-149466194D01*
X88785374Y-149466196D01*
X88785373Y-149466196D01*
X88646196Y-149605373D01*
X88646196Y-149605374D01*
X88646194Y-149605376D01*
X88598862Y-149670522D01*
X88530498Y-149764616D01*
X88441139Y-149939992D01*
X88380312Y-150127195D01*
X88349522Y-150321600D01*
X86375500Y-150321600D01*
X86375500Y-131271600D01*
X88349522Y-131271600D01*
X88349522Y-143568399D01*
X88380312Y-143762804D01*
X88441139Y-143950007D01*
X88514082Y-144093165D01*
X88530498Y-144125383D01*
X88646194Y-144284624D01*
X88785376Y-144423806D01*
X88944617Y-144539502D01*
X89027477Y-144581721D01*
X89119992Y-144628860D01*
X89119994Y-144628860D01*
X89119997Y-144628862D01*
X89220339Y-144661465D01*
X89307195Y-144689687D01*
X89501601Y-144720478D01*
X89501606Y-144720478D01*
X101798399Y-144720478D01*
X101992804Y-144689687D01*
X102180003Y-144628862D01*
X102355383Y-144539502D01*
X102514624Y-144423806D01*
X102653806Y-144284624D01*
X102769502Y-144125383D01*
X102858862Y-143950003D01*
X102919687Y-143762804D01*
X102942907Y-143616198D01*
X102950478Y-143568399D01*
X102950478Y-131271600D01*
X107399522Y-131271600D01*
X107399522Y-143568399D01*
X107430312Y-143762804D01*
X107491139Y-143950007D01*
X107564082Y-144093165D01*
X107580498Y-144125383D01*
X107696194Y-144284624D01*
X107835376Y-144423806D01*
X107994617Y-144539502D01*
X108077477Y-144581721D01*
X108169992Y-144628860D01*
X108169994Y-144628860D01*
X108169997Y-144628862D01*
X108270339Y-144661465D01*
X108357195Y-144689687D01*
X108551601Y-144720478D01*
X108551606Y-144720478D01*
X120848399Y-144720478D01*
X121042804Y-144689687D01*
X121230003Y-144628862D01*
X121405383Y-144539502D01*
X121564624Y-144423806D01*
X121703806Y-144284624D01*
X121819502Y-144125383D01*
X121908862Y-143950003D01*
X121969687Y-143762804D01*
X121992907Y-143616198D01*
X122000478Y-143568399D01*
X122000478Y-131271600D01*
X121969687Y-131077195D01*
X121908860Y-130889992D01*
X121861721Y-130797477D01*
X121819502Y-130714617D01*
X121703806Y-130555376D01*
X121564624Y-130416194D01*
X121405383Y-130300498D01*
X121230007Y-130211139D01*
X121042804Y-130150312D01*
X120848399Y-130119522D01*
X120848394Y-130119522D01*
X120799806Y-130119522D01*
X108694192Y-130119522D01*
X108650022Y-130119522D01*
X108551606Y-130119522D01*
X108551601Y-130119522D01*
X108357195Y-130150312D01*
X108169992Y-130211139D01*
X107994616Y-130300498D01*
X107903763Y-130366507D01*
X107835376Y-130416194D01*
X107835374Y-130416196D01*
X107835373Y-130416196D01*
X107696196Y-130555373D01*
X107696196Y-130555374D01*
X107696194Y-130555376D01*
X107648862Y-130620522D01*
X107580498Y-130714616D01*
X107491139Y-130889992D01*
X107430312Y-131077195D01*
X107399522Y-131271600D01*
X102950478Y-131271600D01*
X102919687Y-131077195D01*
X102858860Y-130889992D01*
X102811721Y-130797477D01*
X102769502Y-130714617D01*
X102653806Y-130555376D01*
X102514624Y-130416194D01*
X102355383Y-130300498D01*
X102180007Y-130211139D01*
X101992804Y-130150312D01*
X101798399Y-130119522D01*
X101798394Y-130119522D01*
X101749806Y-130119522D01*
X89644192Y-130119522D01*
X89600022Y-130119522D01*
X89501606Y-130119522D01*
X89501601Y-130119522D01*
X89307195Y-130150312D01*
X89119992Y-130211139D01*
X88944616Y-130300498D01*
X88853763Y-130366507D01*
X88785376Y-130416194D01*
X88785374Y-130416196D01*
X88785373Y-130416196D01*
X88646196Y-130555373D01*
X88646196Y-130555374D01*
X88646194Y-130555376D01*
X88598862Y-130620522D01*
X88530498Y-130714616D01*
X88441139Y-130889992D01*
X88380312Y-131077195D01*
X88349522Y-131271600D01*
X86375500Y-131271600D01*
X86375500Y-127788713D01*
X103824500Y-127788713D01*
X103824500Y-127811734D01*
X103824500Y-128001287D01*
X103857754Y-128211243D01*
X103885115Y-128295452D01*
X103923444Y-128413414D01*
X104019951Y-128602820D01*
X104144890Y-128774786D01*
X104295213Y-128925109D01*
X104467179Y-129050048D01*
X104467181Y-129050049D01*
X104467184Y-129050051D01*
X104656588Y-129146557D01*
X104858757Y-129212246D01*
X105068713Y-129245500D01*
X105068714Y-129245500D01*
X105281286Y-129245500D01*
X105281287Y-129245500D01*
X105491243Y-129212246D01*
X105693412Y-129146557D01*
X105882816Y-129050051D01*
X105904789Y-129034086D01*
X106054786Y-128925109D01*
X106054788Y-128925106D01*
X106054792Y-128925104D01*
X106205104Y-128774792D01*
X106205106Y-128774788D01*
X106205109Y-128774786D01*
X106330048Y-128602820D01*
X106330047Y-128602820D01*
X106330051Y-128602816D01*
X106426557Y-128413412D01*
X106492246Y-128211243D01*
X106525500Y-128001287D01*
X106525500Y-127788713D01*
X106492246Y-127578757D01*
X106426557Y-127376588D01*
X106330051Y-127187184D01*
X106330049Y-127187181D01*
X106330048Y-127187179D01*
X106205109Y-127015213D01*
X106054786Y-126864890D01*
X105882820Y-126739951D01*
X105693414Y-126643444D01*
X105693413Y-126643443D01*
X105693412Y-126643443D01*
X105491243Y-126577754D01*
X105491241Y-126577753D01*
X105491240Y-126577753D01*
X105329957Y-126552208D01*
X105281287Y-126544500D01*
X105068713Y-126544500D01*
X105020042Y-126552208D01*
X104858760Y-126577753D01*
X104656585Y-126643444D01*
X104467179Y-126739951D01*
X104295213Y-126864890D01*
X104144890Y-127015213D01*
X104019951Y-127187179D01*
X103923444Y-127376585D01*
X103857753Y-127578760D01*
X103846723Y-127648403D01*
X103824500Y-127788713D01*
X86375500Y-127788713D01*
X86375500Y-112221600D01*
X88349522Y-112221600D01*
X88349522Y-124518399D01*
X88380312Y-124712804D01*
X88441139Y-124900007D01*
X88514082Y-125043165D01*
X88530498Y-125075383D01*
X88646194Y-125234624D01*
X88785376Y-125373806D01*
X88944617Y-125489502D01*
X89027477Y-125531721D01*
X89119992Y-125578860D01*
X89119994Y-125578860D01*
X89119997Y-125578862D01*
X89220339Y-125611465D01*
X89307195Y-125639687D01*
X89501601Y-125670478D01*
X89501606Y-125670478D01*
X101798399Y-125670478D01*
X101992804Y-125639687D01*
X102180003Y-125578862D01*
X102355383Y-125489502D01*
X102514624Y-125373806D01*
X102653806Y-125234624D01*
X102769502Y-125075383D01*
X102858862Y-124900003D01*
X102919687Y-124712804D01*
X102942907Y-124566198D01*
X102950478Y-124518399D01*
X102950478Y-112221600D01*
X107399522Y-112221600D01*
X107399522Y-124518399D01*
X107430312Y-124712804D01*
X107491139Y-124900007D01*
X107564082Y-125043165D01*
X107580498Y-125075383D01*
X107696194Y-125234624D01*
X107835376Y-125373806D01*
X107994617Y-125489502D01*
X108077477Y-125531721D01*
X108169992Y-125578860D01*
X108169994Y-125578860D01*
X108169997Y-125578862D01*
X108270339Y-125611465D01*
X108357195Y-125639687D01*
X108551601Y-125670478D01*
X108551606Y-125670478D01*
X120848399Y-125670478D01*
X121042804Y-125639687D01*
X121230003Y-125578862D01*
X121405383Y-125489502D01*
X121564624Y-125373806D01*
X121703806Y-125234624D01*
X121819502Y-125075383D01*
X121908862Y-124900003D01*
X121969687Y-124712804D01*
X121992907Y-124566198D01*
X122000478Y-124518399D01*
X122000478Y-112221600D01*
X121969687Y-112027195D01*
X121908860Y-111839992D01*
X121861721Y-111747477D01*
X121819502Y-111664617D01*
X121703806Y-111505376D01*
X121564624Y-111366194D01*
X121405383Y-111250498D01*
X121230007Y-111161139D01*
X121042804Y-111100312D01*
X120848399Y-111069522D01*
X120848394Y-111069522D01*
X120799806Y-111069522D01*
X108694192Y-111069522D01*
X108650022Y-111069522D01*
X108551606Y-111069522D01*
X108551601Y-111069522D01*
X108357195Y-111100312D01*
X108169992Y-111161139D01*
X107994616Y-111250498D01*
X107903763Y-111316507D01*
X107835376Y-111366194D01*
X107835374Y-111366196D01*
X107835373Y-111366196D01*
X107696196Y-111505373D01*
X107696196Y-111505374D01*
X107696194Y-111505376D01*
X107648862Y-111570522D01*
X107580498Y-111664616D01*
X107491139Y-111839992D01*
X107430312Y-112027195D01*
X107399522Y-112221600D01*
X102950478Y-112221600D01*
X102919687Y-112027195D01*
X102858860Y-111839992D01*
X102811721Y-111747477D01*
X102769502Y-111664617D01*
X102653806Y-111505376D01*
X102514624Y-111366194D01*
X102355383Y-111250498D01*
X102180007Y-111161139D01*
X101992804Y-111100312D01*
X101798399Y-111069522D01*
X101798394Y-111069522D01*
X101749806Y-111069522D01*
X89644192Y-111069522D01*
X89600022Y-111069522D01*
X89501606Y-111069522D01*
X89501601Y-111069522D01*
X89307195Y-111100312D01*
X89119992Y-111161139D01*
X88944616Y-111250498D01*
X88853763Y-111316507D01*
X88785376Y-111366194D01*
X88785374Y-111366196D01*
X88785373Y-111366196D01*
X88646196Y-111505373D01*
X88646196Y-111505374D01*
X88646194Y-111505376D01*
X88598862Y-111570522D01*
X88530498Y-111664616D01*
X88441139Y-111839992D01*
X88380312Y-112027195D01*
X88349522Y-112221600D01*
X86375500Y-112221600D01*
X86375500Y-111049066D01*
X86375765Y-111040957D01*
X86385215Y-110896772D01*
X86391647Y-110798628D01*
X86393761Y-110782576D01*
X86440345Y-110548388D01*
X86444537Y-110532745D01*
X86521288Y-110306641D01*
X86527483Y-110291686D01*
X86633092Y-110077530D01*
X86641192Y-110063501D01*
X86773850Y-109864966D01*
X86783707Y-109852119D01*
X86941141Y-109672599D01*
X86952599Y-109661141D01*
X87132119Y-109503707D01*
X87144966Y-109493850D01*
X87343501Y-109361192D01*
X87357530Y-109353092D01*
X87571686Y-109247483D01*
X87586641Y-109241288D01*
X87812745Y-109164537D01*
X87828388Y-109160345D01*
X88062576Y-109113761D01*
X88078630Y-109111647D01*
X88300606Y-109097098D01*
X88320958Y-109095765D01*
X88329067Y-109095500D01*
X88369170Y-109095500D01*
X121980830Y-109095500D01*
X122020933Y-109095500D01*
X122029042Y-109095765D01*
G37*
%TD.AperFunction*%
%TD*%
M02*
