%TF.GenerationSoftware,KiCad,Pcbnew,9.0.8-9.0.8~ubuntu24.04.1*%
%TF.CreationDate,2026-05-12T20:31:28+08:00*%
%TF.ProjectId,outsider,6f757473-6964-4657-922e-6b696361645f,rev?*%
%TF.SameCoordinates,Original*%
%TF.FileFunction,Soldermask,Bot*%
%TF.FilePolarity,Negative*%
%FSLAX46Y46*%
G04 Gerber Fmt 4.6, Leading zero omitted, Abs format (unit mm)*
G04 Created by KiCad (PCBNEW 9.0.8-9.0.8~ubuntu24.04.1) date 2026-05-12 20:31:28*
%MOMM*%
%LPD*%
G01*
G04 APERTURE LIST*
G04 Aperture macros list*
%AMRoundRect*
0 Rectangle with rounded corners*
0 $1 Rounding radius*
0 $2 $3 $4 $5 $6 $7 $8 $9 X,Y pos of 4 corners*
0 Add a 4 corners polygon primitive as box body*
4,1,4,$2,$3,$4,$5,$6,$7,$8,$9,$2,$3,0*
0 Add four circle primitives for the rounded corners*
1,1,$1+$1,$2,$3*
1,1,$1+$1,$4,$5*
1,1,$1+$1,$6,$7*
1,1,$1+$1,$8,$9*
0 Add four rect primitives between the rounded corners*
20,1,$1+$1,$2,$3,$4,$5,0*
20,1,$1+$1,$4,$5,$6,$7,0*
20,1,$1+$1,$6,$7,$8,$9,0*
20,1,$1+$1,$8,$9,$2,$3,0*%
%AMHorizOval*
0 Thick line with rounded ends*
0 $1 width*
0 $2 $3 position (X,Y) of the first rounded end (center of the circle)*
0 $4 $5 position (X,Y) of the second rounded end (center of the circle)*
0 Add line between two ends*
20,1,$1,$2,$3,$4,$5,0*
0 Add two circle primitives to create the rounded ends*
1,1,$1,$2,$3*
1,1,$1,$4,$5*%
%AMRotRect*
0 Rectangle, with rotation*
0 The origin of the aperture is its center*
0 $1 length*
0 $2 width*
0 $3 Rotation angle, in degrees counterclockwise*
0 Add horizontal line*
21,1,$1,$2,0,0,$3*%
%AMOutline4P*
0 Free polygon, 4 corners , with rotation*
0 The origin of the aperture is its center*
0 number of corners: always 4*
0 $1 to $8 corner X, Y*
0 $9 Rotation angle, in degrees counterclockwise*
0 create outline with 4 corners*
4,1,4,$1,$2,$3,$4,$5,$6,$7,$8,$1,$2,$9*%
%AMOutline5P*
0 Free polygon, 5 corners , with rotation*
0 The origin of the aperture is its center*
0 number of corners: always 5*
0 $1 to $10 corner X, Y*
0 $11 Rotation angle, in degrees counterclockwise*
0 create outline with 5 corners*
4,1,5,$1,$2,$3,$4,$5,$6,$7,$8,$9,$10,$1,$2,$11*%
%AMOutline6P*
0 Free polygon, 6 corners , with rotation*
0 The origin of the aperture is its center*
0 number of corners: always 6*
0 $1 to $12 corner X, Y*
0 $13 Rotation angle, in degrees counterclockwise*
0 create outline with 6 corners*
4,1,6,$1,$2,$3,$4,$5,$6,$7,$8,$9,$10,$11,$12,$1,$2,$13*%
%AMOutline7P*
0 Free polygon, 7 corners , with rotation*
0 The origin of the aperture is its center*
0 number of corners: always 7*
0 $1 to $14 corner X, Y*
0 $15 Rotation angle, in degrees counterclockwise*
0 create outline with 7 corners*
4,1,7,$1,$2,$3,$4,$5,$6,$7,$8,$9,$10,$11,$12,$13,$14,$1,$2,$15*%
%AMOutline8P*
0 Free polygon, 8 corners , with rotation*
0 The origin of the aperture is its center*
0 number of corners: always 8*
0 $1 to $16 corner X, Y*
0 $17 Rotation angle, in degrees counterclockwise*
0 create outline with 8 corners*
4,1,8,$1,$2,$3,$4,$5,$6,$7,$8,$9,$10,$11,$12,$13,$14,$15,$16,$1,$2,$17*%
%AMFreePoly0*
4,1,23,0.500000,-0.750000,0.000000,-0.750000,0.000000,-0.745722,-0.065263,-0.745722,-0.191342,-0.711940,-0.304381,-0.646677,-0.396677,-0.554381,-0.461940,-0.441342,-0.495722,-0.315263,-0.495722,-0.250000,-0.500000,-0.250000,-0.500000,0.250000,-0.495722,0.250000,-0.495722,0.315263,-0.461940,0.441342,-0.396677,0.554381,-0.304381,0.646677,-0.191342,0.711940,-0.065263,0.745722,0.000000,0.745722,
0.000000,0.750000,0.500000,0.750000,0.500000,-0.750000,0.500000,-0.750000,$1*%
%AMFreePoly1*
4,1,23,0.000000,0.745722,0.065263,0.745722,0.191342,0.711940,0.304381,0.646677,0.396677,0.554381,0.461940,0.441342,0.495722,0.315263,0.495722,0.250000,0.500000,0.250000,0.500000,-0.250000,0.495722,-0.250000,0.495722,-0.315263,0.461940,-0.441342,0.396677,-0.554381,0.304381,-0.646677,0.191342,-0.711940,0.065263,-0.745722,0.000000,-0.745722,0.000000,-0.750000,-0.500000,-0.750000,
-0.500000,0.750000,0.000000,0.750000,0.000000,0.745722,0.000000,0.745722,$1*%
G04 Aperture macros list end*
%ADD10C,0.000000*%
%ADD11C,1.900000*%
%ADD12RoundRect,0.250000X-0.450000X-0.250000X0.450000X-0.250000X0.450000X0.250000X-0.450000X0.250000X0*%
%ADD13C,1.750000*%
%ADD14C,5.100000*%
%ADD15C,2.000000*%
%ADD16C,1.700000*%
%ADD17HorizOval,2.700000X-0.989949X0.989949X0.989949X-0.989949X0*%
%ADD18HorizOval,2.700000X-0.989949X-0.989949X0.989949X0.989949X0*%
%ADD19O,3.200000X2.100000*%
%ADD20HorizOval,2.700000X0.989949X0.989949X-0.989949X-0.989949X0*%
%ADD21RoundRect,0.250000X0.250000X-0.450000X0.250000X0.450000X-0.250000X0.450000X-0.250000X-0.450000X0*%
%ADD22O,1.700000X1.700000*%
%ADD23RoundRect,0.300000X0.700000X-0.300000X0.700000X0.300000X-0.700000X0.300000X-0.700000X-0.300000X0*%
%ADD24C,1.752600*%
%ADD25RoundRect,0.438150X-0.438150X-0.438150X0.438150X-0.438150X0.438150X0.438150X-0.438150X0.438150X0*%
%ADD26C,2.200000*%
%ADD27C,0.900000*%
%ADD28Outline4P,-0.600000X-1.250000X0.600000X-1.250000X0.600000X1.250000X-0.600000X1.250000X180.000000*%
%ADD29O,1.750000X1.200000*%
%ADD30C,1.400000*%
%ADD31Outline5P,-0.600000X0.600000X0.600000X0.600000X0.600000X-0.600000X-0.240000X-0.600000X-0.600000X-0.240000X225.000000*%
%ADD32Outline5P,-0.600000X0.600000X0.600000X0.600000X0.600000X-0.600000X-0.240000X-0.600000X-0.600000X-0.240000X45.000000*%
%ADD33FreePoly0,90.000000*%
%ADD34FreePoly1,90.000000*%
%ADD35R,0.300000X1.300000*%
%ADD36R,1.800000X2.200000*%
%ADD37RotRect,0.300000X1.300000X135.000000*%
%ADD38RotRect,1.800000X2.200000X135.000000*%
G04 APERTURE END LIST*
D10*
%TO.C,JP1*%
G36*
X340157000Y-147584632D02*
G01*
X339308472Y-148433160D01*
X339096340Y-148221028D01*
X339944868Y-147372500D01*
X340157000Y-147584632D01*
G37*
G36*
X341217660Y-148221028D02*
G01*
X341005528Y-148433160D01*
X340157000Y-147584632D01*
X340369132Y-147372500D01*
X341217660Y-148221028D01*
G37*
%TO.C,JP4*%
G36*
X330073000Y-155978000D02*
G01*
X328573000Y-155978000D01*
X328573000Y-155678000D01*
X330073000Y-155678000D01*
X330073000Y-155978000D01*
G37*
%TD*%
D11*
%TO.C,SW1*%
X354604000Y-110595000D03*
X348104000Y-110595000D03*
%TD*%
D12*
%TO.C,D11*%
X135525000Y-147845000D03*
X131975000Y-147845000D03*
%TD*%
D11*
%TO.C,K9*%
X128250000Y-118370000D03*
D13*
X128670000Y-118370000D03*
D14*
X133750000Y-118370000D03*
D13*
X138830000Y-118370000D03*
D11*
X139250000Y-118370000D03*
D15*
X129940000Y-115830000D03*
D16*
X129940361Y-115829577D03*
D15*
X138750000Y-114570846D03*
D16*
X138750361Y-114570423D03*
D15*
X133750000Y-112470000D03*
X136290000Y-113290000D03*
D16*
X136290361Y-113289577D03*
%TD*%
D11*
%TO.C,K7*%
X109200000Y-156470000D03*
D13*
X109620000Y-156470000D03*
D14*
X114700000Y-156470000D03*
D13*
X119780000Y-156470000D03*
D11*
X120200000Y-156470000D03*
D15*
X110890000Y-153930000D03*
D16*
X110890361Y-153929577D03*
D15*
X119700000Y-152670846D03*
D16*
X119700361Y-152670423D03*
D15*
X114700000Y-150570000D03*
X117240000Y-151390000D03*
D16*
X117240361Y-151389577D03*
%TD*%
D12*
%TO.C,D46*%
X306975000Y-128795000D03*
X303425000Y-128795000D03*
%TD*%
D11*
%TO.C,K11*%
X128250000Y-156470000D03*
D13*
X128670000Y-156470000D03*
D14*
X133750000Y-156470000D03*
D13*
X138830000Y-156470000D03*
D11*
X139250000Y-156470000D03*
D15*
X129940000Y-153930000D03*
D16*
X129940361Y-153929577D03*
D15*
X138750000Y-152670846D03*
D16*
X138750361Y-152670423D03*
D15*
X133750000Y-150570000D03*
X136290000Y-151390000D03*
D16*
X136290361Y-151389577D03*
%TD*%
D11*
%TO.C,K43*%
X280650000Y-156470000D03*
D13*
X281070000Y-156470000D03*
D14*
X286150000Y-156470000D03*
D13*
X291230000Y-156470000D03*
D11*
X291650000Y-156470000D03*
D15*
X282340000Y-153930000D03*
D16*
X282340361Y-153929577D03*
D15*
X291150000Y-152670846D03*
D16*
X291150361Y-152670423D03*
D15*
X286150000Y-150570000D03*
X288690000Y-151390000D03*
D16*
X288690361Y-151389577D03*
%TD*%
D12*
%TO.C,D42*%
X287925000Y-128795000D03*
X284375000Y-128795000D03*
%TD*%
D11*
%TO.C,KE1*%
X186875000Y-118370000D03*
D13*
X186455000Y-118370000D03*
D14*
X181375000Y-118370000D03*
D15*
X185185000Y-120910000D03*
D16*
X185184639Y-120910423D03*
D15*
X176375000Y-122169154D03*
D16*
X176374639Y-122169577D03*
D15*
X181375000Y-124270000D03*
X178835000Y-123450000D03*
D16*
X178834639Y-123450423D03*
%TD*%
D11*
%TO.C,K45*%
X299700000Y-118370000D03*
D13*
X300120000Y-118370000D03*
D14*
X305200000Y-118370000D03*
D13*
X310280000Y-118370000D03*
D11*
X310700000Y-118370000D03*
D15*
X301390000Y-115830000D03*
D16*
X301390361Y-115829577D03*
D15*
X310200000Y-114570846D03*
D16*
X310200361Y-114570423D03*
D15*
X305200000Y-112470000D03*
X307740000Y-113290000D03*
D16*
X307740361Y-113289577D03*
%TD*%
D11*
%TO.C,K30*%
X223500000Y-137420000D03*
D13*
X223920000Y-137420000D03*
D14*
X229000000Y-137420000D03*
D13*
X234080000Y-137420000D03*
D11*
X234500000Y-137420000D03*
D15*
X225190000Y-134880000D03*
D16*
X225190361Y-134879577D03*
D15*
X234000000Y-133620846D03*
D16*
X234000361Y-133620423D03*
D15*
X229000000Y-131520000D03*
X231540000Y-132340000D03*
D16*
X231540361Y-132339577D03*
%TD*%
D12*
%TO.C,D33*%
X249825000Y-109745000D03*
X246275000Y-109745000D03*
%TD*%
D11*
%TO.C,K27*%
X204450000Y-156470000D03*
D13*
X204870000Y-156470000D03*
D14*
X209950000Y-156470000D03*
D13*
X215030000Y-156470000D03*
D11*
X215450000Y-156470000D03*
D15*
X206140000Y-153930000D03*
D16*
X206140361Y-153929577D03*
D15*
X214950000Y-152670846D03*
D16*
X214950361Y-152670423D03*
D15*
X209950000Y-150570000D03*
X212490000Y-151390000D03*
D16*
X212490361Y-151389577D03*
%TD*%
D12*
%TO.C,D30*%
X230775000Y-128795000D03*
X227225000Y-128795000D03*
%TD*%
D11*
%TO.C,K34*%
X242550000Y-137420000D03*
D13*
X242970000Y-137420000D03*
D14*
X248050000Y-137420000D03*
D13*
X253130000Y-137420000D03*
D11*
X253550000Y-137420000D03*
D15*
X244240000Y-134880000D03*
D16*
X244240361Y-134879577D03*
D15*
X253050000Y-133620846D03*
D16*
X253050361Y-133620423D03*
D15*
X248050000Y-131520000D03*
X250590000Y-132340000D03*
D16*
X250590361Y-132339577D03*
%TD*%
D12*
%TO.C,D43*%
X287925000Y-147845000D03*
X284375000Y-147845000D03*
%TD*%
D11*
%TO.C,KE8*%
X244025000Y-175520000D03*
D13*
X243605000Y-175520000D03*
D14*
X238525000Y-175520000D03*
D15*
X242335000Y-178060000D03*
D16*
X242334639Y-178060423D03*
D15*
X233525000Y-179319154D03*
D16*
X233524639Y-179319577D03*
D15*
X238525000Y-181420000D03*
X235985000Y-180600000D03*
D16*
X235984639Y-180600423D03*
%TD*%
D15*
%TO.C,K49*%
X332657000Y-157788000D03*
X332657000Y-162788000D03*
D17*
X318600000Y-138731000D03*
D18*
X318600000Y-181845000D03*
D15*
X332657000Y-160288000D03*
D19*
X340157000Y-154688000D03*
X340157000Y-165888000D03*
D20*
X361714000Y-138731000D03*
D17*
X361714000Y-181845000D03*
D15*
X347157000Y-157788000D03*
X347157000Y-162788000D03*
%TD*%
D12*
%TO.C,D16*%
X154575000Y-166895000D03*
X151025000Y-166895000D03*
%TD*%
%TO.C,D36*%
X249825000Y-166895000D03*
X246275000Y-166895000D03*
%TD*%
%TO.C,D29*%
X230775000Y-109745000D03*
X227225000Y-109745000D03*
%TD*%
%TO.C,D40*%
X268875000Y-166895000D03*
X265325000Y-166895000D03*
%TD*%
%TO.C,D44*%
X287925000Y-166895000D03*
X284375000Y-166895000D03*
%TD*%
D11*
%TO.C,K35*%
X242550000Y-156470000D03*
D13*
X242970000Y-156470000D03*
D14*
X248050000Y-156470000D03*
D13*
X253130000Y-156470000D03*
D11*
X253550000Y-156470000D03*
D15*
X244240000Y-153930000D03*
D16*
X244240361Y-153929577D03*
D15*
X253050000Y-152670846D03*
D16*
X253050361Y-152670423D03*
D15*
X248050000Y-150570000D03*
X250590000Y-151390000D03*
D16*
X250590361Y-151389577D03*
%TD*%
D21*
%TO.C,D49*%
X350307000Y-158513000D03*
X350307000Y-162063000D03*
%TD*%
D12*
%TO.C,D5*%
X116475000Y-109745000D03*
X112925000Y-109745000D03*
%TD*%
D11*
%TO.C,K37*%
X261600000Y-118370000D03*
D13*
X262020000Y-118370000D03*
D14*
X267100000Y-118370000D03*
D13*
X272180000Y-118370000D03*
D11*
X272600000Y-118370000D03*
D15*
X263290000Y-115830000D03*
D16*
X263290361Y-115829577D03*
D15*
X272100000Y-114570846D03*
D16*
X272100361Y-114570423D03*
D15*
X267100000Y-112470000D03*
X269640000Y-113290000D03*
D16*
X269640361Y-113289577D03*
%TD*%
D11*
%TO.C,K33*%
X242550000Y-118370000D03*
D13*
X242970000Y-118370000D03*
D14*
X248050000Y-118370000D03*
D13*
X253130000Y-118370000D03*
D11*
X253550000Y-118370000D03*
D15*
X244240000Y-115830000D03*
D16*
X244240361Y-115829577D03*
D15*
X253050000Y-114570846D03*
D16*
X253050361Y-114570423D03*
D15*
X248050000Y-112470000D03*
X250590000Y-113290000D03*
D16*
X250590361Y-113289577D03*
%TD*%
D12*
%TO.C,D34*%
X249825000Y-128795000D03*
X246275000Y-128795000D03*
%TD*%
%TO.C,D23*%
X192675000Y-147845000D03*
X189125000Y-147845000D03*
%TD*%
%TO.C,D37*%
X268875000Y-109745000D03*
X265325000Y-109745000D03*
%TD*%
%TO.C,D38*%
X268875000Y-128795000D03*
X265325000Y-128795000D03*
%TD*%
%TO.C,D4*%
X97425000Y-166895000D03*
X93875000Y-166895000D03*
%TD*%
%TO.C,D15*%
X154575000Y-147845000D03*
X151025000Y-147845000D03*
%TD*%
D11*
%TO.C,K38*%
X261600000Y-137420000D03*
D13*
X262020000Y-137420000D03*
D14*
X267100000Y-137420000D03*
D13*
X272180000Y-137420000D03*
D11*
X272600000Y-137420000D03*
D15*
X263290000Y-134880000D03*
D16*
X263290361Y-134879577D03*
D15*
X272100000Y-133620846D03*
D16*
X272100361Y-133620423D03*
D15*
X267100000Y-131520000D03*
X269640000Y-132340000D03*
D16*
X269640361Y-132339577D03*
%TD*%
D11*
%TO.C,KE4*%
X205925000Y-175520000D03*
D13*
X205505000Y-175520000D03*
D14*
X200425000Y-175520000D03*
D15*
X204235000Y-178060000D03*
D16*
X204234639Y-178060423D03*
D15*
X195425000Y-179319154D03*
D16*
X195424639Y-179319577D03*
D15*
X200425000Y-181420000D03*
X197885000Y-180600000D03*
D16*
X197884639Y-180600423D03*
%TD*%
%TO.C,J10*%
X87395000Y-162185000D03*
D22*
X87395000Y-164725000D03*
X87395000Y-167265000D03*
X87395000Y-169805000D03*
%TD*%
D12*
%TO.C,D3*%
X97425000Y-147845000D03*
X93875000Y-147845000D03*
%TD*%
D11*
%TO.C,K42*%
X280650000Y-137420000D03*
D13*
X281070000Y-137420000D03*
D14*
X286150000Y-137420000D03*
D13*
X291230000Y-137420000D03*
D11*
X291650000Y-137420000D03*
D15*
X282340000Y-134880000D03*
D16*
X282340361Y-134879577D03*
D15*
X291150000Y-133620846D03*
D16*
X291150361Y-133620423D03*
D15*
X286150000Y-131520000D03*
X288690000Y-132340000D03*
D16*
X288690361Y-132339577D03*
%TD*%
D12*
%TO.C,D39*%
X268875000Y-147845000D03*
X265325000Y-147845000D03*
%TD*%
%TO.C,D26*%
X211725000Y-128795000D03*
X208175000Y-128795000D03*
%TD*%
D11*
%TO.C,K1*%
X90150000Y-118370000D03*
D13*
X90570000Y-118370000D03*
D14*
X95650000Y-118370000D03*
D13*
X100730000Y-118370000D03*
D11*
X101150000Y-118370000D03*
D15*
X91840000Y-115830000D03*
D16*
X91840361Y-115829577D03*
D15*
X100650000Y-114570846D03*
D16*
X100650361Y-114570423D03*
D15*
X95650000Y-112470000D03*
X98190000Y-113290000D03*
D16*
X98190361Y-113289577D03*
%TD*%
D14*
%TO.C,K25*%
X209950000Y-118370000D03*
D15*
X206140000Y-115830000D03*
D16*
X206140361Y-115829577D03*
D15*
X214950000Y-114570846D03*
D16*
X214950361Y-114570423D03*
D15*
X209950000Y-112470000D03*
X212490000Y-113290000D03*
D16*
X212490361Y-113289577D03*
%TD*%
D23*
%TO.C,SW4*%
X362386000Y-144645000D03*
X362386000Y-149245000D03*
%TD*%
D14*
%TO.C,KE9*%
X162325000Y-175520000D03*
D15*
X166135000Y-178060000D03*
D16*
X166134639Y-178060423D03*
D15*
X157325000Y-179319154D03*
D16*
X157324639Y-179319577D03*
D15*
X162325000Y-181420000D03*
X159785000Y-180600000D03*
D16*
X159784639Y-180600423D03*
%TD*%
D12*
%TO.C,D24*%
X192675000Y-166895000D03*
X189125000Y-166895000D03*
%TD*%
D14*
%TO.C,KE6*%
X219475000Y-175520000D03*
D15*
X223285000Y-178060000D03*
D16*
X223284639Y-178060423D03*
D15*
X214475000Y-179319154D03*
D16*
X214474639Y-179319577D03*
D15*
X219475000Y-181420000D03*
X216935000Y-180600000D03*
D16*
X216934639Y-180600423D03*
%TD*%
D24*
%TO.C,U1*%
X363494000Y-133306000D03*
X360954000Y-133306000D03*
X358414000Y-133306000D03*
D25*
X355874000Y-133306000D03*
X353334000Y-133306000D03*
D24*
X350794000Y-133306000D03*
X348254000Y-133306000D03*
X345714000Y-133306000D03*
X343174000Y-133306000D03*
X340634000Y-133306000D03*
X338094000Y-133306000D03*
X335554000Y-133306000D03*
X333014000Y-133306000D03*
X333014000Y-118066000D03*
X335554000Y-118066000D03*
X338094000Y-118066000D03*
X340634000Y-118066000D03*
X343174000Y-118066000D03*
X345714000Y-118066000D03*
X348254000Y-118066000D03*
X350794000Y-118066000D03*
X353334000Y-118066000D03*
X355874000Y-118066000D03*
D25*
X358414000Y-118066000D03*
D24*
X360954000Y-118066000D03*
X363494000Y-118066000D03*
%TD*%
D26*
%TO.C,H2*%
X317600000Y-111045000D03*
%TD*%
D12*
%TO.C,D13*%
X154575000Y-109745000D03*
X151025000Y-109745000D03*
%TD*%
D16*
%TO.C,J7*%
X362386000Y-154215500D03*
D22*
X362386000Y-156755500D03*
%TD*%
D12*
%TO.C,D7*%
X116475000Y-147845000D03*
X112925000Y-147845000D03*
%TD*%
%TO.C,D8*%
X116475000Y-166895000D03*
X112925000Y-166895000D03*
%TD*%
D11*
%TO.C,KE7*%
X244025000Y-118370000D03*
D13*
X243605000Y-118370000D03*
D14*
X238525000Y-118370000D03*
D15*
X242335000Y-120910000D03*
D16*
X242334639Y-120910423D03*
D15*
X233525000Y-122169154D03*
D16*
X233524639Y-122169577D03*
D15*
X238525000Y-124270000D03*
X235985000Y-123450000D03*
D16*
X235984639Y-123450423D03*
%TD*%
D11*
%TO.C,K16*%
X147300000Y-175520000D03*
D13*
X147720000Y-175520000D03*
D14*
X152800000Y-175520000D03*
D15*
X148990000Y-172980000D03*
D16*
X148990361Y-172979577D03*
D15*
X157800000Y-171720846D03*
D16*
X157800361Y-171720423D03*
D15*
X152800000Y-169620000D03*
X155340000Y-170440000D03*
D16*
X155340361Y-170439577D03*
%TD*%
D12*
%TO.C,D18*%
X173625000Y-128795000D03*
X170075000Y-128795000D03*
%TD*%
D26*
%TO.C,H1*%
X362739000Y-111045000D03*
%TD*%
D12*
%TO.C,D41*%
X287925000Y-109745000D03*
X284375000Y-109745000D03*
%TD*%
D11*
%TO.C,K21*%
X185400000Y-118370000D03*
D13*
X185820000Y-118370000D03*
D14*
X190900000Y-118370000D03*
D15*
X187090000Y-115830000D03*
D16*
X187090361Y-115829577D03*
D15*
X195900000Y-114570846D03*
D16*
X195900361Y-114570423D03*
D15*
X190900000Y-112470000D03*
X193440000Y-113290000D03*
D16*
X193440361Y-113289577D03*
%TD*%
D12*
%TO.C,D22*%
X192675000Y-128795000D03*
X189125000Y-128795000D03*
%TD*%
D16*
%TO.C,J11*%
X87535000Y-146965000D03*
D22*
X87535000Y-144425000D03*
%TD*%
D11*
%TO.C,K14*%
X147300000Y-137420000D03*
D13*
X147720000Y-137420000D03*
D14*
X152800000Y-137420000D03*
D13*
X157880000Y-137420000D03*
D11*
X158300000Y-137420000D03*
D15*
X148990000Y-134880000D03*
D16*
X148990361Y-134879577D03*
D15*
X157800000Y-133620846D03*
D16*
X157800361Y-133620423D03*
D15*
X152800000Y-131520000D03*
X155340000Y-132340000D03*
D16*
X155340361Y-132339577D03*
%TD*%
D12*
%TO.C,D32*%
X230775000Y-166895000D03*
X227225000Y-166895000D03*
%TD*%
D14*
%TO.C,KE3*%
X200425000Y-118370000D03*
D15*
X204235000Y-120910000D03*
D16*
X204234639Y-120910423D03*
D15*
X195425000Y-122169154D03*
D16*
X195424639Y-122169577D03*
D15*
X200425000Y-124270000D03*
X197885000Y-123450000D03*
D16*
X197884639Y-123450423D03*
%TD*%
D11*
%TO.C,K46*%
X299700000Y-137420000D03*
D13*
X300120000Y-137420000D03*
D14*
X305200000Y-137420000D03*
D13*
X310280000Y-137420000D03*
D11*
X310700000Y-137420000D03*
D15*
X301390000Y-134880000D03*
D16*
X301390361Y-134879577D03*
D15*
X310200000Y-133620846D03*
D16*
X310200361Y-133620423D03*
D15*
X305200000Y-131520000D03*
X307740000Y-132340000D03*
D16*
X307740361Y-132339577D03*
%TD*%
D11*
%TO.C,K47*%
X299700000Y-156470000D03*
D13*
X300120000Y-156470000D03*
D14*
X305200000Y-156470000D03*
D13*
X310280000Y-156470000D03*
D11*
X310700000Y-156470000D03*
D15*
X301390000Y-153930000D03*
D16*
X301390361Y-153929577D03*
D15*
X310200000Y-152670846D03*
D16*
X310200361Y-152670423D03*
D15*
X305200000Y-150570000D03*
X307740000Y-151390000D03*
D16*
X307740361Y-151389577D03*
%TD*%
D11*
%TO.C,K28*%
X204450000Y-175520000D03*
D13*
X204870000Y-175520000D03*
D14*
X209950000Y-175520000D03*
D15*
X206140000Y-172980000D03*
D16*
X206140361Y-172979577D03*
D15*
X214950000Y-171720846D03*
D16*
X214950361Y-171720423D03*
D15*
X209950000Y-169620000D03*
X212490000Y-170440000D03*
D16*
X212490361Y-170439577D03*
%TD*%
D11*
%TO.C,K4*%
X90150000Y-175520000D03*
D13*
X90570000Y-175520000D03*
D14*
X95650000Y-175520000D03*
D13*
X100730000Y-175520000D03*
D11*
X101150000Y-175520000D03*
D15*
X91840000Y-172980000D03*
D16*
X91840361Y-172979577D03*
D15*
X100650000Y-171720846D03*
D16*
X100650361Y-171720423D03*
D15*
X95650000Y-169620000D03*
X98190000Y-170440000D03*
D16*
X98190361Y-170439577D03*
%TD*%
D12*
%TO.C,D35*%
X249825000Y-147845000D03*
X246275000Y-147845000D03*
%TD*%
%TO.C,D2*%
X97425000Y-128795000D03*
X93875000Y-128795000D03*
%TD*%
%TO.C,D6*%
X116475000Y-128795000D03*
X112925000Y-128795000D03*
%TD*%
%TO.C,D17*%
X173625000Y-109745000D03*
X170075000Y-109745000D03*
%TD*%
%TO.C,D9*%
X135525000Y-109745000D03*
X131975000Y-109745000D03*
%TD*%
%TO.C,D10*%
X135525000Y-128795000D03*
X131975000Y-128795000D03*
%TD*%
D16*
%TO.C,J9*%
X87395000Y-124085000D03*
D22*
X87395000Y-126625000D03*
X87395000Y-129165000D03*
X87395000Y-131705000D03*
%TD*%
D11*
%TO.C,KE2*%
X186875000Y-175520000D03*
D13*
X186455000Y-175520000D03*
D14*
X181375000Y-175520000D03*
D15*
X185185000Y-178060000D03*
D16*
X185184639Y-178060423D03*
D15*
X176375000Y-179319154D03*
D16*
X176374639Y-179319577D03*
D15*
X181375000Y-181420000D03*
X178835000Y-180600000D03*
D16*
X178834639Y-180600423D03*
%TD*%
D12*
%TO.C,D45*%
X306975000Y-109745000D03*
X303425000Y-109745000D03*
%TD*%
D16*
%TO.C,J1*%
X362386000Y-167381500D03*
D22*
X362386000Y-169921500D03*
X362386000Y-172461500D03*
X362386000Y-175001500D03*
%TD*%
D11*
%TO.C,K39*%
X261600000Y-156470000D03*
D13*
X262020000Y-156470000D03*
D14*
X267100000Y-156470000D03*
D13*
X272180000Y-156470000D03*
D11*
X272600000Y-156470000D03*
D15*
X263290000Y-153930000D03*
D16*
X263290361Y-153929577D03*
D15*
X272100000Y-152670846D03*
D16*
X272100361Y-152670423D03*
D15*
X267100000Y-150570000D03*
X269640000Y-151390000D03*
D16*
X269640361Y-151389577D03*
%TD*%
D12*
%TO.C,D21*%
X192675000Y-109745000D03*
X189125000Y-109745000D03*
%TD*%
D11*
%TO.C,K29*%
X223500000Y-118370000D03*
D13*
X223920000Y-118370000D03*
D14*
X229000000Y-118370000D03*
D15*
X225190000Y-115830000D03*
D16*
X225190361Y-115829577D03*
D15*
X234000000Y-114570846D03*
D16*
X234000361Y-114570423D03*
D15*
X229000000Y-112470000D03*
X231540000Y-113290000D03*
D16*
X231540361Y-113289577D03*
%TD*%
D11*
%TO.C,K10*%
X128250000Y-137420000D03*
D13*
X128670000Y-137420000D03*
D14*
X133750000Y-137420000D03*
D13*
X138830000Y-137420000D03*
D11*
X139250000Y-137420000D03*
D15*
X129940000Y-134880000D03*
D16*
X129940361Y-134879577D03*
D15*
X138750000Y-133620846D03*
D16*
X138750361Y-133620423D03*
D15*
X133750000Y-131520000D03*
X136290000Y-132340000D03*
D16*
X136290361Y-132339577D03*
%TD*%
D11*
%TO.C,K13*%
X147300000Y-118370000D03*
D13*
X147720000Y-118370000D03*
D14*
X152800000Y-118370000D03*
D15*
X148990000Y-115830000D03*
D16*
X148990361Y-115829577D03*
D15*
X157800000Y-114570846D03*
D16*
X157800361Y-114570423D03*
D15*
X152800000Y-112470000D03*
X155340000Y-113290000D03*
D16*
X155340361Y-113289577D03*
%TD*%
D11*
%TO.C,K2*%
X90150000Y-137420000D03*
D13*
X90570000Y-137420000D03*
D14*
X95650000Y-137420000D03*
D13*
X100730000Y-137420000D03*
D11*
X101150000Y-137420000D03*
D15*
X91840000Y-134880000D03*
D16*
X91840361Y-134879577D03*
D15*
X100650000Y-133620846D03*
D16*
X100650361Y-133620423D03*
D15*
X95650000Y-131520000D03*
X98190000Y-132340000D03*
D16*
X98190361Y-132339577D03*
%TD*%
D11*
%TO.C,K23*%
X185400000Y-156470000D03*
D13*
X185820000Y-156470000D03*
D14*
X190900000Y-156470000D03*
D13*
X195980000Y-156470000D03*
D11*
X196400000Y-156470000D03*
D15*
X187090000Y-153930000D03*
D16*
X187090361Y-153929577D03*
D15*
X195900000Y-152670846D03*
D16*
X195900361Y-152670423D03*
D15*
X190900000Y-150570000D03*
X193440000Y-151390000D03*
D16*
X193440361Y-151389577D03*
%TD*%
D27*
%TO.C,SW2*%
X330144000Y-110795000D03*
X323344000Y-110795000D03*
D28*
X329244000Y-113545000D03*
X326744000Y-113545000D03*
X324244000Y-113545000D03*
%TD*%
D11*
%TO.C,KE5*%
X224975000Y-118370000D03*
D13*
X224555000Y-118370000D03*
D14*
X219475000Y-118370000D03*
D15*
X223285000Y-120910000D03*
D16*
X223284639Y-120910423D03*
D15*
X214475000Y-122169154D03*
D16*
X214474639Y-122169577D03*
D15*
X219475000Y-124270000D03*
X216935000Y-123450000D03*
D16*
X216934639Y-123450423D03*
%TD*%
D11*
%TO.C,K22*%
X185400000Y-137420000D03*
D13*
X185820000Y-137420000D03*
D14*
X190900000Y-137420000D03*
D13*
X195980000Y-137420000D03*
D11*
X196400000Y-137420000D03*
D15*
X187090000Y-134880000D03*
D16*
X187090361Y-134879577D03*
D15*
X195900000Y-133620846D03*
D16*
X195900361Y-133620423D03*
D15*
X190900000Y-131520000D03*
X193440000Y-132340000D03*
D16*
X193440361Y-132339577D03*
%TD*%
D12*
%TO.C,D12*%
X135525000Y-166895000D03*
X131975000Y-166895000D03*
%TD*%
D29*
%TO.C,J4*%
X328644000Y-131036000D03*
X328644000Y-133036000D03*
%TD*%
D12*
%TO.C,D31*%
X230775000Y-147845000D03*
X227225000Y-147845000D03*
%TD*%
D16*
%TO.C,J8*%
X354896000Y-182292000D03*
D22*
X352356000Y-182292000D03*
X349816000Y-182292000D03*
X347276000Y-182292000D03*
%TD*%
D12*
%TO.C,D48*%
X306975000Y-166895000D03*
X303425000Y-166895000D03*
%TD*%
D11*
%TO.C,K44*%
X280650000Y-175520000D03*
D13*
X281070000Y-175520000D03*
D14*
X286150000Y-175520000D03*
D13*
X291230000Y-175520000D03*
D11*
X291650000Y-175520000D03*
D15*
X282340000Y-172980000D03*
D16*
X282340361Y-172979577D03*
D15*
X291150000Y-171720846D03*
D16*
X291150361Y-171720423D03*
D15*
X286150000Y-169620000D03*
X288690000Y-170440000D03*
D16*
X288690361Y-170439577D03*
%TD*%
D11*
%TO.C,K41*%
X280650000Y-118370000D03*
D13*
X281070000Y-118370000D03*
D14*
X286150000Y-118370000D03*
D13*
X291230000Y-118370000D03*
D11*
X291650000Y-118370000D03*
D15*
X282340000Y-115830000D03*
D16*
X282340361Y-115829577D03*
D15*
X291150000Y-114570846D03*
D16*
X291150361Y-114570423D03*
D15*
X286150000Y-112470000D03*
X288690000Y-113290000D03*
D16*
X288690361Y-113289577D03*
%TD*%
D11*
%TO.C,K18*%
X166350000Y-137420000D03*
D13*
X166770000Y-137420000D03*
D14*
X171850000Y-137420000D03*
D13*
X176930000Y-137420000D03*
D11*
X177350000Y-137420000D03*
D15*
X168040000Y-134880000D03*
D16*
X168040361Y-134879577D03*
D15*
X176850000Y-133620846D03*
D16*
X176850361Y-133620423D03*
D15*
X171850000Y-131520000D03*
X174390000Y-132340000D03*
D16*
X174390361Y-132339577D03*
%TD*%
D14*
%TO.C,K20*%
X171850000Y-175520000D03*
D15*
X168040000Y-172980000D03*
D16*
X168040361Y-172979577D03*
D15*
X176850000Y-171720846D03*
D16*
X176850361Y-171720423D03*
D15*
X171850000Y-169620000D03*
X174390000Y-170440000D03*
D16*
X174390361Y-170439577D03*
%TD*%
D12*
%TO.C,D14*%
X154575000Y-128795000D03*
X151025000Y-128795000D03*
%TD*%
%TO.C,D47*%
X306975000Y-147845000D03*
X303425000Y-147845000D03*
%TD*%
D14*
%TO.C,K17*%
X171850000Y-118370000D03*
D15*
X168040000Y-115830000D03*
D16*
X168040361Y-115829577D03*
D15*
X176850000Y-114570846D03*
D16*
X176850361Y-114570423D03*
D15*
X171850000Y-112470000D03*
X174390000Y-113290000D03*
D16*
X174390361Y-113289577D03*
%TD*%
D12*
%TO.C,D19*%
X173625000Y-147845000D03*
X170075000Y-147845000D03*
%TD*%
%TO.C,D27*%
X211725000Y-147845000D03*
X208175000Y-147845000D03*
%TD*%
D11*
%TO.C,K19*%
X166350000Y-156470000D03*
D13*
X166770000Y-156470000D03*
D14*
X171850000Y-156470000D03*
D13*
X176930000Y-156470000D03*
D11*
X177350000Y-156470000D03*
D15*
X168040000Y-153930000D03*
D16*
X168040361Y-153929577D03*
D15*
X176850000Y-152670846D03*
D16*
X176850361Y-152670423D03*
D15*
X171850000Y-150570000D03*
X174390000Y-151390000D03*
D16*
X174390361Y-151389577D03*
%TD*%
D11*
%TO.C,K40*%
X261600000Y-175520000D03*
D13*
X262020000Y-175520000D03*
D14*
X267100000Y-175520000D03*
D13*
X272180000Y-175520000D03*
D11*
X272600000Y-175520000D03*
D15*
X263290000Y-172980000D03*
D16*
X263290361Y-172979577D03*
D15*
X272100000Y-171720846D03*
D16*
X272100361Y-171720423D03*
D15*
X267100000Y-169620000D03*
X269640000Y-170440000D03*
D16*
X269640361Y-170439577D03*
%TD*%
D11*
%TO.C,K12*%
X128250000Y-175520000D03*
D13*
X128670000Y-175520000D03*
D14*
X133750000Y-175520000D03*
D13*
X138830000Y-175520000D03*
D11*
X139250000Y-175520000D03*
D15*
X129940000Y-172980000D03*
D16*
X129940361Y-172979577D03*
D15*
X138750000Y-171720846D03*
D16*
X138750361Y-171720423D03*
D15*
X133750000Y-169620000D03*
X136290000Y-170440000D03*
D16*
X136290361Y-170439577D03*
%TD*%
D12*
%TO.C,D20*%
X173625000Y-166895000D03*
X170075000Y-166895000D03*
%TD*%
D11*
%TO.C,K31*%
X223500000Y-156470000D03*
D13*
X223920000Y-156470000D03*
D14*
X229000000Y-156470000D03*
D13*
X234080000Y-156470000D03*
D11*
X234500000Y-156470000D03*
D15*
X225190000Y-153930000D03*
D16*
X225190361Y-153929577D03*
D15*
X234000000Y-152670846D03*
D16*
X234000361Y-152670423D03*
D15*
X229000000Y-150570000D03*
X231540000Y-151390000D03*
D16*
X231540361Y-151389577D03*
%TD*%
D11*
%TO.C,K5*%
X109200000Y-118370000D03*
D13*
X109620000Y-118370000D03*
D14*
X114700000Y-118370000D03*
D13*
X119780000Y-118370000D03*
D11*
X120200000Y-118370000D03*
D15*
X110890000Y-115830000D03*
D16*
X110890361Y-115829577D03*
D15*
X119700000Y-114570846D03*
D16*
X119700361Y-114570423D03*
D15*
X114700000Y-112470000D03*
X117240000Y-113290000D03*
D16*
X117240361Y-113289577D03*
%TD*%
D30*
%TO.C,R1*%
X323899000Y-164098000D03*
X323899000Y-156478000D03*
%TD*%
D11*
%TO.C,K8*%
X109200000Y-175520000D03*
D13*
X109620000Y-175520000D03*
D14*
X114700000Y-175520000D03*
D13*
X119780000Y-175520000D03*
D11*
X120200000Y-175520000D03*
D15*
X110890000Y-172980000D03*
D16*
X110890361Y-172979577D03*
D15*
X119700000Y-171720846D03*
D16*
X119700361Y-171720423D03*
D15*
X114700000Y-169620000D03*
X117240000Y-170440000D03*
D16*
X117240361Y-170439577D03*
%TD*%
D14*
%TO.C,KE10*%
X162325000Y-118370000D03*
D15*
X166135000Y-120910000D03*
D16*
X166134639Y-120910423D03*
D15*
X157325000Y-122169154D03*
D16*
X157324639Y-122169577D03*
D15*
X162325000Y-124270000D03*
X159785000Y-123450000D03*
D16*
X159784639Y-123450423D03*
%TD*%
D11*
%TO.C,K15*%
X147300000Y-156470000D03*
D13*
X147720000Y-156470000D03*
D14*
X152800000Y-156470000D03*
D13*
X157880000Y-156470000D03*
D11*
X158300000Y-156470000D03*
D15*
X148990000Y-153930000D03*
D16*
X148990361Y-153929577D03*
D15*
X157800000Y-152670846D03*
D16*
X157800361Y-152670423D03*
D15*
X152800000Y-150570000D03*
X155340000Y-151390000D03*
D16*
X155340361Y-151389577D03*
%TD*%
D12*
%TO.C,D25*%
X211725000Y-109745000D03*
X208175000Y-109745000D03*
%TD*%
D14*
%TO.C,K32*%
X229000000Y-175520000D03*
D15*
X225190000Y-172980000D03*
D16*
X225190361Y-172979577D03*
D15*
X234000000Y-171720846D03*
D16*
X234000361Y-171720423D03*
D15*
X229000000Y-169620000D03*
X231540000Y-170440000D03*
D16*
X231540361Y-170439577D03*
%TD*%
D11*
%TO.C,K24*%
X185400000Y-175520000D03*
D13*
X185820000Y-175520000D03*
D14*
X190900000Y-175520000D03*
D15*
X187090000Y-172980000D03*
D16*
X187090361Y-172979577D03*
D15*
X195900000Y-171720846D03*
D16*
X195900361Y-171720423D03*
D15*
X190900000Y-169620000D03*
X193440000Y-170440000D03*
D16*
X193440361Y-170439577D03*
%TD*%
D12*
%TO.C,D28*%
X211725000Y-166895000D03*
X208175000Y-166895000D03*
%TD*%
D11*
%TO.C,K26*%
X204450000Y-137420000D03*
D13*
X204870000Y-137420000D03*
D14*
X209950000Y-137420000D03*
D13*
X215030000Y-137420000D03*
D11*
X215450000Y-137420000D03*
D15*
X206140000Y-134880000D03*
D16*
X206140361Y-134879577D03*
D15*
X214950000Y-133620846D03*
D16*
X214950361Y-133620423D03*
D15*
X209950000Y-131520000D03*
X212490000Y-132340000D03*
D16*
X212490361Y-132339577D03*
%TD*%
D11*
%TO.C,K6*%
X109200000Y-137420000D03*
D13*
X109620000Y-137420000D03*
D14*
X114700000Y-137420000D03*
D13*
X119780000Y-137420000D03*
D11*
X120200000Y-137420000D03*
D15*
X110890000Y-134880000D03*
D16*
X110890361Y-134879577D03*
D15*
X119700000Y-133620846D03*
D16*
X119700361Y-133620423D03*
D15*
X114700000Y-131520000D03*
X117240000Y-132340000D03*
D16*
X117240361Y-132339577D03*
%TD*%
D30*
%TO.C,R2*%
X326439000Y-156478000D03*
X326439000Y-164098000D03*
%TD*%
D11*
%TO.C,K3*%
X90150000Y-156470000D03*
D13*
X90570000Y-156470000D03*
D14*
X95650000Y-156470000D03*
D13*
X100730000Y-156470000D03*
D11*
X101150000Y-156470000D03*
D15*
X91840000Y-153930000D03*
D16*
X91840361Y-153929577D03*
D15*
X100650000Y-152670846D03*
D16*
X100650361Y-152670423D03*
D15*
X95650000Y-150570000D03*
X98190000Y-151390000D03*
D16*
X98190361Y-151389577D03*
%TD*%
D11*
%TO.C,K36*%
X242550000Y-175520000D03*
D13*
X242970000Y-175520000D03*
D14*
X248050000Y-175520000D03*
D13*
X253130000Y-175520000D03*
D11*
X253550000Y-175520000D03*
D15*
X244240000Y-172980000D03*
D16*
X244240361Y-172979577D03*
D15*
X253050000Y-171720846D03*
D16*
X253050361Y-171720423D03*
D15*
X248050000Y-169620000D03*
X250590000Y-170440000D03*
D16*
X250590361Y-170439577D03*
%TD*%
D11*
%TO.C,K48*%
X299700000Y-175520000D03*
D13*
X300120000Y-175520000D03*
D14*
X305200000Y-175520000D03*
D13*
X310280000Y-175520000D03*
D11*
X310700000Y-175520000D03*
D15*
X301390000Y-172980000D03*
D16*
X301390361Y-172979577D03*
D15*
X310200000Y-171720846D03*
D16*
X310200361Y-171720423D03*
D15*
X305200000Y-169620000D03*
X307740000Y-170440000D03*
D16*
X307740361Y-170439577D03*
%TD*%
D12*
%TO.C,D1*%
X97425000Y-109745000D03*
X93875000Y-109745000D03*
%TD*%
D31*
%TO.C,JP1*%
X339096340Y-147372500D03*
D32*
X340157000Y-148433160D03*
D31*
X341217660Y-147372500D03*
%TD*%
D33*
%TO.C,JP4*%
X329323000Y-156478000D03*
D34*
X329323000Y-155178000D03*
%TD*%
D35*
%TO.C,J3*%
X342907000Y-170547000D03*
X342407000Y-170547000D03*
X341907000Y-170547000D03*
X341407000Y-170547000D03*
X340907000Y-170547000D03*
X340407000Y-170547000D03*
X339907000Y-170547000D03*
X339407000Y-170547000D03*
X338907000Y-170547000D03*
X338407000Y-170547000D03*
X337907000Y-170547000D03*
X337407000Y-170547000D03*
D36*
X344807000Y-173797000D03*
X335507000Y-173797000D03*
%TD*%
D27*
%TO.C,SW3*%
X330144000Y-182292000D03*
X323344000Y-182292000D03*
D28*
X329244000Y-179542000D03*
X326744000Y-179542000D03*
X324244000Y-179542000D03*
%TD*%
D37*
%TO.C,J5*%
X354349031Y-147863736D03*
X353995478Y-147510183D03*
X353641924Y-147156629D03*
X353288371Y-146803076D03*
X352934817Y-146449522D03*
X352581264Y-146095969D03*
D38*
X353394437Y-151505336D03*
X348939664Y-147050563D03*
%TD*%
M02*
