%TF.GenerationSoftware,KiCad,Pcbnew,9.0.8-9.0.8~ubuntu24.04.1*%
%TF.CreationDate,2026-05-12T20:31:28+08:00*%
%TF.ProjectId,outsider,6f757473-6964-4657-922e-6b696361645f,rev?*%
%TF.SameCoordinates,Original*%
%TF.FileFunction,Paste,Top*%
%TF.FilePolarity,Positive*%
%FSLAX46Y46*%
G04 Gerber Fmt 4.6, Leading zero omitted, Abs format (unit mm)*
G04 Created by KiCad (PCBNEW 9.0.8-9.0.8~ubuntu24.04.1) date 2026-05-12 20:31:28*
%MOMM*%
%LPD*%
G01*
G04 APERTURE LIST*
G04 Aperture macros list*
%AMRoundRect*
0 Rectangle with rounded corners*
0 $1 Rounding radius*
0 $2 $3 $4 $5 $6 $7 $8 $9 X,Y pos of 4 corners*
0 Add a 4 corners polygon primitive as box body*
4,1,4,$2,$3,$4,$5,$6,$7,$8,$9,$2,$3,0*
0 Add four circle primitives for the rounded corners*
1,1,$1+$1,$2,$3*
1,1,$1+$1,$4,$5*
1,1,$1+$1,$6,$7*
1,1,$1+$1,$8,$9*
0 Add four rect primitives between the rounded corners*
20,1,$1+$1,$2,$3,$4,$5,0*
20,1,$1+$1,$4,$5,$6,$7,0*
20,1,$1+$1,$6,$7,$8,$9,0*
20,1,$1+$1,$8,$9,$2,$3,0*%
%AMRotRect*
0 Rectangle, with rotation*
0 The origin of the aperture is its center*
0 $1 length*
0 $2 width*
0 $3 Rotation angle, in degrees counterclockwise*
0 Add horizontal line*
21,1,$1,$2,0,0,$3*%
%AMOutline4P*
0 Free polygon, 4 corners , with rotation*
0 The origin of the aperture is its center*
0 number of corners: always 4*
0 $1 to $8 corner X, Y*
0 $9 Rotation angle, in degrees counterclockwise*
0 create outline with 4 corners*
4,1,4,$1,$2,$3,$4,$5,$6,$7,$8,$1,$2,$9*%
G04 Aperture macros list end*
%ADD10RotRect,0.300000X1.300000X45.000000*%
%ADD11RotRect,1.800000X2.200000X45.000000*%
%ADD12RoundRect,0.250000X0.450000X0.250000X-0.450000X0.250000X-0.450000X-0.250000X0.450000X-0.250000X0*%
%ADD13RoundRect,0.250000X-0.250000X0.450000X-0.250000X-0.450000X0.250000X-0.450000X0.250000X0.450000X0*%
%ADD14R,0.300000X1.300000*%
%ADD15R,1.800000X2.200000*%
%ADD16RoundRect,0.300000X-0.700000X0.300000X-0.700000X-0.300000X0.700000X-0.300000X0.700000X0.300000X0*%
%ADD17Outline4P,-0.600000X-1.250000X0.600000X-1.250000X0.600000X1.250000X-0.600000X1.250000X180.000000*%
G04 APERTURE END LIST*
D10*
%TO.C,J6*%
X325964969Y-147863736D03*
X326318522Y-147510183D03*
X326672076Y-147156629D03*
X327025629Y-146803076D03*
X327379183Y-146449522D03*
X327732736Y-146095969D03*
D11*
X326919563Y-151505336D03*
X331374336Y-147050563D03*
%TD*%
D12*
%TO.C,D11*%
X135525000Y-147845000D03*
X131975000Y-147845000D03*
%TD*%
%TO.C,D46*%
X306975000Y-128795000D03*
X303425000Y-128795000D03*
%TD*%
%TO.C,D42*%
X287925000Y-128795000D03*
X284375000Y-128795000D03*
%TD*%
%TO.C,D33*%
X249825000Y-109745000D03*
X246275000Y-109745000D03*
%TD*%
%TO.C,D30*%
X230775000Y-128795000D03*
X227225000Y-128795000D03*
%TD*%
%TO.C,D43*%
X287925000Y-147845000D03*
X284375000Y-147845000D03*
%TD*%
%TO.C,D16*%
X154575000Y-166895000D03*
X151025000Y-166895000D03*
%TD*%
%TO.C,D36*%
X249825000Y-166895000D03*
X246275000Y-166895000D03*
%TD*%
%TO.C,D29*%
X230775000Y-109745000D03*
X227225000Y-109745000D03*
%TD*%
%TO.C,D40*%
X268875000Y-166895000D03*
X265325000Y-166895000D03*
%TD*%
%TO.C,D44*%
X287925000Y-166895000D03*
X284375000Y-166895000D03*
%TD*%
D13*
%TO.C,D49*%
X350307000Y-158513000D03*
X350307000Y-162063000D03*
%TD*%
D12*
%TO.C,D5*%
X116475000Y-109745000D03*
X112925000Y-109745000D03*
%TD*%
%TO.C,D34*%
X249825000Y-128795000D03*
X246275000Y-128795000D03*
%TD*%
%TO.C,D23*%
X192675000Y-147845000D03*
X189125000Y-147845000D03*
%TD*%
%TO.C,D37*%
X268875000Y-109745000D03*
X265325000Y-109745000D03*
%TD*%
%TO.C,D38*%
X268875000Y-128795000D03*
X265325000Y-128795000D03*
%TD*%
%TO.C,D4*%
X97425000Y-166895000D03*
X93875000Y-166895000D03*
%TD*%
%TO.C,D15*%
X154575000Y-147845000D03*
X151025000Y-147845000D03*
%TD*%
%TO.C,D3*%
X97425000Y-147845000D03*
X93875000Y-147845000D03*
%TD*%
D14*
%TO.C,J2*%
X337407000Y-170547000D03*
X337907000Y-170547000D03*
X338407000Y-170547000D03*
X338907000Y-170547000D03*
X339407000Y-170547000D03*
X339907000Y-170547000D03*
X340407000Y-170547000D03*
X340907000Y-170547000D03*
X341407000Y-170547000D03*
X341907000Y-170547000D03*
X342407000Y-170547000D03*
X342907000Y-170547000D03*
D15*
X335507000Y-173797000D03*
X344807000Y-173797000D03*
%TD*%
D12*
%TO.C,D39*%
X268875000Y-147845000D03*
X265325000Y-147845000D03*
%TD*%
%TO.C,D26*%
X211725000Y-128795000D03*
X208175000Y-128795000D03*
%TD*%
D16*
%TO.C,SW4*%
X362386000Y-144645000D03*
X362386000Y-149245000D03*
%TD*%
D12*
%TO.C,D24*%
X192675000Y-166895000D03*
X189125000Y-166895000D03*
%TD*%
%TO.C,D13*%
X154575000Y-109745000D03*
X151025000Y-109745000D03*
%TD*%
%TO.C,D7*%
X116475000Y-147845000D03*
X112925000Y-147845000D03*
%TD*%
%TO.C,D8*%
X116475000Y-166895000D03*
X112925000Y-166895000D03*
%TD*%
%TO.C,D18*%
X173625000Y-128795000D03*
X170075000Y-128795000D03*
%TD*%
%TO.C,D41*%
X287925000Y-109745000D03*
X284375000Y-109745000D03*
%TD*%
%TO.C,D22*%
X192675000Y-128795000D03*
X189125000Y-128795000D03*
%TD*%
%TO.C,D32*%
X230775000Y-166895000D03*
X227225000Y-166895000D03*
%TD*%
%TO.C,D35*%
X249825000Y-147845000D03*
X246275000Y-147845000D03*
%TD*%
%TO.C,D2*%
X97425000Y-128795000D03*
X93875000Y-128795000D03*
%TD*%
%TO.C,D6*%
X116475000Y-128795000D03*
X112925000Y-128795000D03*
%TD*%
%TO.C,D17*%
X173625000Y-109745000D03*
X170075000Y-109745000D03*
%TD*%
%TO.C,D9*%
X135525000Y-109745000D03*
X131975000Y-109745000D03*
%TD*%
%TO.C,D10*%
X135525000Y-128795000D03*
X131975000Y-128795000D03*
%TD*%
%TO.C,D45*%
X306975000Y-109745000D03*
X303425000Y-109745000D03*
%TD*%
%TO.C,D21*%
X192675000Y-109745000D03*
X189125000Y-109745000D03*
%TD*%
D17*
%TO.C,SW2*%
X329244000Y-113545000D03*
X326744000Y-113545000D03*
X324244000Y-113545000D03*
%TD*%
D12*
%TO.C,D12*%
X135525000Y-166895000D03*
X131975000Y-166895000D03*
%TD*%
%TO.C,D31*%
X230775000Y-147845000D03*
X227225000Y-147845000D03*
%TD*%
%TO.C,D48*%
X306975000Y-166895000D03*
X303425000Y-166895000D03*
%TD*%
%TO.C,D14*%
X154575000Y-128795000D03*
X151025000Y-128795000D03*
%TD*%
%TO.C,D47*%
X306975000Y-147845000D03*
X303425000Y-147845000D03*
%TD*%
%TO.C,D19*%
X173625000Y-147845000D03*
X170075000Y-147845000D03*
%TD*%
%TO.C,D27*%
X211725000Y-147845000D03*
X208175000Y-147845000D03*
%TD*%
%TO.C,D20*%
X173625000Y-166895000D03*
X170075000Y-166895000D03*
%TD*%
%TO.C,D25*%
X211725000Y-109745000D03*
X208175000Y-109745000D03*
%TD*%
%TO.C,D28*%
X211725000Y-166895000D03*
X208175000Y-166895000D03*
%TD*%
%TO.C,D1*%
X97425000Y-109745000D03*
X93875000Y-109745000D03*
%TD*%
D17*
%TO.C,SW3*%
X329244000Y-179542000D03*
X326744000Y-179542000D03*
X324244000Y-179542000D03*
%TD*%
M02*
