M48
; DRILL file {KiCad 9.0.8-9.0.8~ubuntu24.04.1} date 2026-05-12T20:31:23+0800
; FORMAT={-:-/ absolute / metric / decimal}
; #@! TF.CreationDate,2026-05-12T20:31:23+08:00
; #@! TF.GenerationSoftware,Kicad,Pcbnew,9.0.8-9.0.8~ubuntu24.04.1
; #@! TF.FileFunction,NonPlated,1,2,NPTH
FMAT,2
METRIC
; #@! TA.AperFunction,NonPlated,NPTH,ComponentDrill
T1C0.900
; #@! TA.AperFunction,NonPlated,NPTH,ComponentDrill
T2C1.750
; #@! TA.AperFunction,NonPlated,NPTH,ComponentDrill
T3C1.900
; #@! TA.AperFunction,NonPlated,NPTH,ComponentDrill
T4C2.200
; #@! TA.AperFunction,NonPlated,NPTH,ComponentDrill
T5C5.100
%
G90
G05
T1
X323.344Y-110.795
X323.344Y-182.292
X330.144Y-110.795
X330.144Y-182.292
T2
X90.57Y-118.37
X90.57Y-137.42
X90.57Y-156.47
X90.57Y-175.52
X100.73Y-118.37
X100.73Y-137.42
X100.73Y-156.47
X100.73Y-175.52
X109.62Y-118.37
X109.62Y-137.42
X109.62Y-156.47
X109.62Y-175.52
X119.78Y-118.37
X119.78Y-137.42
X119.78Y-156.47
X119.78Y-175.52
X128.67Y-118.37
X128.67Y-137.42
X128.67Y-156.47
X128.67Y-175.52
X138.83Y-118.37
X138.83Y-137.42
X138.83Y-156.47
X138.83Y-175.52
X147.72Y-118.37
X147.72Y-137.42
X147.72Y-156.47
X147.72Y-175.52
X157.88Y-137.42
X157.88Y-156.47
X166.77Y-137.42
X166.77Y-156.47
X176.93Y-137.42
X176.93Y-156.47
X185.82Y-118.37
X185.82Y-137.42
X185.82Y-156.47
X185.82Y-175.52
X186.455Y-118.37
X186.455Y-175.52
X195.98Y-137.42
X195.98Y-156.47
X204.87Y-137.42
X204.87Y-156.47
X204.87Y-175.52
X205.505Y-175.52
X215.03Y-137.42
X215.03Y-156.47
X223.92Y-118.37
X223.92Y-137.42
X223.92Y-156.47
X224.555Y-118.37
X234.08Y-137.42
X234.08Y-156.47
X242.97Y-118.37
X242.97Y-137.42
X242.97Y-156.47
X242.97Y-175.52
X243.605Y-118.37
X243.605Y-175.52
X253.13Y-118.37
X253.13Y-137.42
X253.13Y-156.47
X253.13Y-175.52
X262.02Y-118.37
X262.02Y-137.42
X262.02Y-156.47
X262.02Y-175.52
X272.18Y-118.37
X272.18Y-137.42
X272.18Y-156.47
X272.18Y-175.52
X281.07Y-118.37
X281.07Y-137.42
X281.07Y-156.47
X281.07Y-175.52
X291.23Y-118.37
X291.23Y-137.42
X291.23Y-156.47
X291.23Y-175.52
X300.12Y-118.37
X300.12Y-137.42
X300.12Y-156.47
X300.12Y-175.52
X310.28Y-118.37
X310.28Y-137.42
X310.28Y-156.47
X310.28Y-175.52
T3
X90.15Y-118.37
X90.15Y-137.42
X90.15Y-156.47
X90.15Y-175.52
X101.15Y-118.37
X101.15Y-137.42
X101.15Y-156.47
X101.15Y-175.52
X109.2Y-118.37
X109.2Y-137.42
X109.2Y-156.47
X109.2Y-175.52
X120.2Y-118.37
X120.2Y-137.42
X120.2Y-156.47
X120.2Y-175.52
X128.25Y-118.37
X128.25Y-137.42
X128.25Y-156.47
X128.25Y-175.52
X139.25Y-118.37
X139.25Y-137.42
X139.25Y-156.47
X139.25Y-175.52
X147.3Y-118.37
X147.3Y-137.42
X147.3Y-156.47
X147.3Y-175.52
X158.3Y-137.42
X158.3Y-156.47
X166.35Y-137.42
X166.35Y-156.47
X177.35Y-137.42
X177.35Y-156.47
X185.4Y-118.37
X185.4Y-137.42
X185.4Y-156.47
X185.4Y-175.52
X186.875Y-118.37
X186.875Y-175.52
X196.4Y-137.42
X196.4Y-156.47
X204.45Y-137.42
X204.45Y-156.47
X204.45Y-175.52
X205.925Y-175.52
X215.45Y-137.42
X215.45Y-156.47
X223.5Y-118.37
X223.5Y-137.42
X223.5Y-156.47
X224.975Y-118.37
X234.5Y-137.42
X234.5Y-156.47
X242.55Y-118.37
X242.55Y-137.42
X242.55Y-156.47
X242.55Y-175.52
X244.025Y-118.37
X244.025Y-175.52
X253.55Y-118.37
X253.55Y-137.42
X253.55Y-156.47
X253.55Y-175.52
X261.6Y-118.37
X261.6Y-137.42
X261.6Y-156.47
X261.6Y-175.52
X272.6Y-118.37
X272.6Y-137.42
X272.6Y-156.47
X272.6Y-175.52
X280.65Y-118.37
X280.65Y-137.42
X280.65Y-156.47
X280.65Y-175.52
X291.65Y-118.37
X291.65Y-137.42
X291.65Y-156.47
X291.65Y-175.52
X299.7Y-118.37
X299.7Y-137.42
X299.7Y-156.47
X299.7Y-175.52
X310.7Y-118.37
X310.7Y-137.42
X310.7Y-156.47
X310.7Y-175.52
T4
X317.6Y-111.045
X362.739Y-111.045
T5
X95.65Y-118.37
X95.65Y-137.42
X95.65Y-156.47
X95.65Y-175.52
X114.7Y-118.37
X114.7Y-137.42
X114.7Y-156.47
X114.7Y-175.52
X133.75Y-118.37
X133.75Y-137.42
X133.75Y-156.47
X133.75Y-175.52
X152.8Y-118.37
X152.8Y-137.42
X152.8Y-156.47
X152.8Y-175.52
X162.325Y-118.37
X162.325Y-175.52
X171.85Y-118.37
X171.85Y-137.42
X171.85Y-156.47
X171.85Y-175.52
X181.375Y-118.37
X181.375Y-175.52
X190.9Y-118.37
X190.9Y-137.42
X190.9Y-156.47
X190.9Y-175.52
X200.425Y-118.37
X200.425Y-175.52
X209.95Y-118.37
X209.95Y-137.42
X209.95Y-156.47
X209.95Y-175.52
X219.475Y-118.37
X219.475Y-175.52
X229.0Y-118.37
X229.0Y-137.42
X229.0Y-156.47
X229.0Y-175.52
X238.525Y-118.37
X238.525Y-175.52
X248.05Y-118.37
X248.05Y-137.42
X248.05Y-156.47
X248.05Y-175.52
X267.1Y-118.37
X267.1Y-137.42
X267.1Y-156.47
X267.1Y-175.52
X286.15Y-118.37
X286.15Y-137.42
X286.15Y-156.47
X286.15Y-175.52
X305.2Y-118.37
X305.2Y-137.42
X305.2Y-156.47
X305.2Y-175.52
M30
