M48
; DRILL file {KiCad 9.0.8-9.0.8~ubuntu24.04.1} date 2026-05-12T20:31:23+0800
; FORMAT={-:-/ absolute / metric / decimal}
; #@! TF.CreationDate,2026-05-12T20:31:23+08:00
; #@! TF.GenerationSoftware,Kicad,Pcbnew,9.0.8-9.0.8~ubuntu24.04.1
; #@! TF.FileFunction,Plated,1,2,PTH
FMAT,2
METRIC
; #@! TA.AperFunction,Plated,PTH,ViaDrill
T1C0.300
; #@! TA.AperFunction,Plated,PTH,ComponentDrill
T2C0.700
; #@! TA.AperFunction,Plated,PTH,ComponentDrill
T3C0.750
; #@! TA.AperFunction,Plated,PTH,ComponentDrill
T4C1.000
; #@! TA.AperFunction,Plated,PTH,ComponentDrill
T5C1.092
; #@! TA.AperFunction,Plated,PTH,ComponentDrill
T6C1.200
; #@! TA.AperFunction,Plated,PTH,ComponentDrill
T7C1.300
; #@! TA.AperFunction,Plated,PTH,ComponentDrill
T8C1.500
; #@! TA.AperFunction,Plated,PTH,ComponentDrill
T9C1.750
; #@! TA.AperFunction,Plated,PTH,ComponentDrill
T10C1.900
; #@! TA.AperFunction,Plated,PTH,ComponentDrill
T11C2.200
%
G90
G05
T1
X88.655Y-182.515
X90.65Y-145.695
X92.65Y-109.745
X92.65Y-128.795
X92.65Y-147.845
X92.65Y-166.895
X94.28Y-111.37
X94.28Y-130.42
X94.28Y-149.47
X94.28Y-168.52
X98.65Y-109.745
X98.65Y-128.795
X98.65Y-147.845
X98.65Y-166.895
X100.055Y-169.865
X105.185Y-173.765
X109.7Y-121.955
X111.7Y-109.745
X111.7Y-128.795
X111.7Y-147.845
X111.7Y-166.895
X117.7Y-109.745
X117.7Y-128.795
X117.7Y-147.845
X117.7Y-166.895
X130.75Y-109.745
X130.75Y-128.795
X130.75Y-147.845
X130.75Y-166.895
X132.38Y-111.37
X132.38Y-130.42
X132.38Y-149.47
X132.38Y-168.52
X136.75Y-109.745
X136.75Y-128.795
X136.75Y-147.845
X136.75Y-166.895
X138.155Y-169.865
X143.28Y-112.37
X143.285Y-173.765
X147.8Y-122.59
X149.8Y-109.745
X149.8Y-128.795
X149.8Y-147.845
X149.8Y-166.895
X151.095Y-111.715
X155.8Y-109.745
X155.8Y-128.795
X155.8Y-147.845
X155.8Y-166.895
X156.705Y-120.445
X157.205Y-169.865
X162.33Y-112.37
X162.33Y-131.42
X162.33Y-150.47
X168.85Y-109.745
X168.85Y-128.795
X168.85Y-147.845
X168.85Y-166.895
X170.48Y-111.37
X170.48Y-130.42
X170.48Y-149.47
X170.48Y-168.52
X171.85Y-124.375
X174.85Y-109.745
X174.85Y-128.795
X174.85Y-147.845
X174.85Y-166.895
X181.38Y-112.37
X181.38Y-131.42
X181.38Y-150.47
X181.38Y-169.52
X185.9Y-126.72
X187.9Y-109.745
X187.9Y-128.795
X187.9Y-147.845
X187.9Y-166.895
X190.9Y-124.375
X193.9Y-109.745
X193.9Y-128.795
X193.9Y-147.845
X193.9Y-166.895
X200.43Y-112.37
X200.43Y-131.42
X200.43Y-150.47
X200.43Y-169.52
X206.95Y-109.745
X206.95Y-128.795
X206.95Y-147.845
X206.95Y-166.895
X208.58Y-111.37
X208.58Y-130.42
X208.58Y-149.47
X208.58Y-168.52
X209.95Y-124.375
X212.95Y-109.745
X212.95Y-128.795
X212.95Y-147.845
X212.95Y-166.895
X219.48Y-112.37
X219.48Y-131.42
X219.48Y-150.47
X219.48Y-169.52
X224.0Y-127.17
X226.0Y-109.745
X226.0Y-128.795
X226.0Y-147.845
X226.0Y-166.895
X229.0Y-124.375
X232.0Y-109.745
X232.0Y-128.795
X232.0Y-147.845
X232.0Y-166.895
X233.7Y-128.35
X238.53Y-112.37
X238.53Y-169.52
X245.05Y-109.745
X245.05Y-128.795
X245.05Y-147.845
X245.05Y-166.895
X246.68Y-111.37
X246.68Y-130.42
X246.68Y-149.47
X246.68Y-168.52
X251.05Y-109.745
X251.05Y-128.795
X251.05Y-147.845
X251.05Y-166.895
X257.565Y-120.765
X257.58Y-112.37
X257.585Y-173.365
X262.1Y-124.34
X264.1Y-109.745
X264.1Y-128.795
X264.1Y-147.845
X264.1Y-166.895
X270.1Y-109.745
X270.1Y-128.795
X270.1Y-147.845
X270.1Y-166.895
X276.63Y-112.37
X283.15Y-109.745
X283.15Y-128.795
X283.15Y-147.845
X283.15Y-166.895
X284.78Y-111.37
X284.78Y-130.42
X284.78Y-149.47
X284.78Y-168.52
X289.15Y-109.745
X289.15Y-128.795
X289.15Y-147.845
X289.15Y-166.895
X291.94Y-128.8
X292.07Y-169.61
X295.68Y-112.37
X295.685Y-173.365
X300.2Y-124.97
X302.2Y-109.745
X302.2Y-128.795
X302.2Y-147.845
X302.2Y-166.895
X308.2Y-109.745
X308.2Y-128.795
X308.2Y-147.845
X308.2Y-166.895
X309.03Y-126.37
X317.14Y-120.81
X324.244Y-115.3
X324.244Y-177.8
X324.64Y-127.66
X325.42Y-128.44
X325.97Y-126.88
X326.7Y-135.97
X326.744Y-115.28
X326.744Y-177.79
X327.37Y-132.036
X328.074Y-139.318
X329.244Y-111.79
X329.244Y-119.65
X329.244Y-181.3
X329.323Y-149.53
X329.323Y-154.068
X329.323Y-157.588
X330.33Y-137.248
X331.29Y-137.813
X331.488Y-161.457
X333.014Y-121.74
X334.057Y-150.87
X334.28Y-121.11
X334.847Y-150.17
X335.554Y-122.38
X336.82Y-120.48
X337.41Y-173.797
X338.094Y-123.07
X338.32Y-146.596
X339.36Y-126.23
X340.157Y-143.16
X340.157Y-149.53
X340.634Y-123.71
X341.9Y-125.6
X341.995Y-146.595
X342.91Y-173.797
X343.174Y-124.34
X345.714Y-124.97
X347.44Y-145.551
X348.254Y-138.72
X350.307Y-157.29
X350.794Y-126.88
X350.794Y-138.08
X352.355Y-166.515
X353.94Y-126.54
X358.414Y-124.416
X359.085Y-169.921
X359.665Y-113.305
X360.954Y-126.85
X362.22Y-129.04
X362.386Y-145.74
X363.494Y-121.43
T2
X323.899Y-156.478
X323.899Y-164.098
X326.439Y-156.478
X326.439Y-164.098
T3
X328.644Y-131.036
X328.644Y-133.036
T4
X87.395Y-124.085
X87.395Y-126.625
X87.395Y-129.165
X87.395Y-131.705
X87.395Y-162.185
X87.395Y-164.725
X87.395Y-167.265
X87.395Y-169.805
X87.535Y-144.425
X87.535Y-146.965
X332.657Y-157.788
X332.657Y-160.288
X332.657Y-162.788
X347.157Y-157.788
X347.157Y-162.788
X347.276Y-182.292
X349.816Y-182.292
X352.356Y-182.292
X354.896Y-182.292
X362.386Y-154.215
X362.386Y-156.755
X362.386Y-167.381
X362.386Y-169.921
X362.386Y-172.462
X362.386Y-175.001
T5
X333.014Y-115.526
X333.014Y-118.066
X333.014Y-130.766
X333.014Y-133.306
X335.554Y-115.526
X335.554Y-118.066
X335.554Y-130.766
X335.554Y-133.306
X338.094Y-115.526
X338.094Y-118.066
X338.094Y-130.766
X338.094Y-133.306
X340.634Y-115.526
X340.634Y-118.066
X340.634Y-130.766
X340.634Y-133.306
X343.174Y-115.526
X343.174Y-118.066
X343.174Y-130.766
X343.174Y-133.306
X345.714Y-115.526
X345.714Y-118.066
X345.714Y-130.766
X345.714Y-133.306
X348.254Y-115.526
X348.254Y-118.066
X348.254Y-130.766
X348.254Y-133.306
X350.794Y-115.526
X350.794Y-118.066
X350.794Y-130.766
X350.794Y-133.306
X353.334Y-115.526
X353.334Y-118.066
X353.334Y-130.766
X353.334Y-133.306
X355.874Y-115.526
X355.874Y-118.066
X355.874Y-130.766
X355.874Y-133.306
X358.414Y-115.526
X358.414Y-118.066
X358.414Y-130.766
X358.414Y-133.306
X360.954Y-115.526
X360.954Y-118.066
X360.954Y-130.766
X360.954Y-133.306
X363.494Y-115.526
X363.494Y-118.066
X363.494Y-130.766
X363.494Y-133.306
T6
X90.65Y-114.57
X90.65Y-133.62
X90.65Y-152.67
X90.65Y-171.72
X91.84Y-115.83
X91.84Y-134.88
X91.84Y-153.93
X91.84Y-172.98
X93.109Y-113.289
X93.109Y-132.339
X93.109Y-151.389
X93.109Y-170.439
X95.65Y-112.47
X95.65Y-131.52
X95.65Y-150.57
X95.65Y-169.62
X98.19Y-113.29
X98.19Y-132.34
X98.19Y-151.39
X98.19Y-170.44
X99.46Y-115.83
X99.46Y-134.88
X99.46Y-153.93
X99.46Y-172.98
X100.65Y-114.57
X100.65Y-133.62
X100.65Y-152.67
X100.65Y-171.72
X109.7Y-114.57
X109.7Y-133.62
X109.7Y-152.67
X109.7Y-171.72
X110.89Y-115.83
X110.89Y-134.88
X110.89Y-153.93
X110.89Y-172.98
X112.159Y-113.289
X112.159Y-132.339
X112.159Y-151.389
X112.159Y-170.439
X114.7Y-112.47
X114.7Y-131.52
X114.7Y-150.57
X114.7Y-169.62
X117.24Y-113.29
X117.24Y-132.34
X117.24Y-151.39
X117.24Y-170.44
X118.51Y-115.83
X118.51Y-134.88
X118.51Y-153.93
X118.51Y-172.98
X119.7Y-114.57
X119.7Y-133.62
X119.7Y-152.67
X119.7Y-171.72
X128.75Y-114.57
X128.75Y-133.62
X128.75Y-152.67
X128.75Y-171.72
X129.94Y-115.83
X129.94Y-134.88
X129.94Y-153.93
X129.94Y-172.98
X131.209Y-113.289
X131.209Y-132.339
X131.209Y-151.389
X131.209Y-170.439
X133.75Y-112.47
X133.75Y-131.52
X133.75Y-150.57
X133.75Y-169.62
X136.29Y-113.29
X136.29Y-132.34
X136.29Y-151.39
X136.29Y-170.44
X137.56Y-115.83
X137.56Y-134.88
X137.56Y-153.93
X137.56Y-172.98
X138.75Y-114.57
X138.75Y-133.62
X138.75Y-152.67
X138.75Y-171.72
X147.8Y-114.57
X147.8Y-133.62
X147.8Y-152.67
X147.8Y-171.72
X148.99Y-115.83
X148.99Y-134.88
X148.99Y-153.93
X148.99Y-172.98
X150.259Y-113.289
X150.259Y-132.339
X150.259Y-151.389
X150.259Y-170.439
X152.8Y-112.47
X152.8Y-131.52
X152.8Y-150.57
X152.8Y-169.62
X155.34Y-113.29
X155.34Y-132.34
X155.34Y-151.39
X155.34Y-170.44
X156.61Y-115.83
X156.61Y-134.88
X156.61Y-153.93
X156.61Y-172.98
X157.325Y-122.17
X157.325Y-179.32
X157.8Y-114.57
X157.8Y-133.62
X157.8Y-152.67
X157.8Y-171.72
X158.515Y-120.91
X158.515Y-178.06
X159.785Y-123.45
X159.785Y-180.6
X162.325Y-124.27
X162.325Y-181.42
X164.866Y-123.451
X164.866Y-180.601
X166.135Y-120.91
X166.135Y-178.06
X166.85Y-114.57
X166.85Y-133.62
X166.85Y-152.67
X166.85Y-171.72
X167.325Y-122.17
X167.325Y-179.32
X168.04Y-115.83
X168.04Y-134.88
X168.04Y-153.93
X168.04Y-172.98
X169.309Y-113.289
X169.309Y-132.339
X169.309Y-151.389
X169.309Y-170.439
X171.85Y-112.47
X171.85Y-131.52
X171.85Y-150.57
X171.85Y-169.62
X174.39Y-113.29
X174.39Y-132.34
X174.39Y-151.39
X174.39Y-170.44
X175.66Y-115.83
X175.66Y-134.88
X175.66Y-153.93
X175.66Y-172.98
X176.375Y-122.17
X176.375Y-179.32
X176.85Y-114.57
X176.85Y-133.62
X176.85Y-152.67
X176.85Y-171.72
X177.565Y-120.91
X177.565Y-178.06
X178.835Y-123.45
X178.835Y-180.6
X181.375Y-124.27
X181.375Y-181.42
X183.916Y-123.451
X183.916Y-180.601
X185.185Y-120.91
X185.185Y-178.06
X185.9Y-114.57
X185.9Y-133.62
X185.9Y-152.67
X185.9Y-171.72
X186.375Y-122.17
X186.375Y-179.32
X187.09Y-115.83
X187.09Y-134.88
X187.09Y-153.93
X187.09Y-172.98
X188.359Y-113.289
X188.359Y-132.339
X188.359Y-151.389
X188.359Y-170.439
X190.9Y-112.47
X190.9Y-131.52
X190.9Y-150.57
X190.9Y-169.62
X193.44Y-113.29
X193.44Y-132.34
X193.44Y-151.39
X193.44Y-170.44
X194.71Y-115.83
X194.71Y-134.88
X194.71Y-153.93
X194.71Y-172.98
X195.425Y-122.17
X195.425Y-179.32
X195.9Y-114.57
X195.9Y-133.62
X195.9Y-152.67
X195.9Y-171.72
X196.615Y-120.91
X196.615Y-178.06
X197.885Y-123.45
X197.885Y-180.6
X200.425Y-124.27
X200.425Y-181.42
X202.966Y-123.451
X202.966Y-180.601
X204.235Y-120.91
X204.235Y-178.06
X204.95Y-114.57
X204.95Y-133.62
X204.95Y-152.67
X204.95Y-171.72
X205.425Y-122.17
X205.425Y-179.32
X206.14Y-115.83
X206.14Y-134.88
X206.14Y-153.93
X206.14Y-172.98
X207.409Y-113.289
X207.409Y-132.339
X207.409Y-151.389
X207.409Y-170.439
X209.95Y-112.47
X209.95Y-131.52
X209.95Y-150.57
X209.95Y-169.62
X212.49Y-113.29
X212.49Y-132.34
X212.49Y-151.39
X212.49Y-170.44
X213.76Y-115.83
X213.76Y-134.88
X213.76Y-153.93
X213.76Y-172.98
X214.475Y-122.17
X214.475Y-179.32
X214.95Y-114.57
X214.95Y-133.62
X214.95Y-152.67
X214.95Y-171.72
X215.665Y-120.91
X215.665Y-178.06
X216.935Y-123.45
X216.935Y-180.6
X219.475Y-124.27
X219.475Y-181.42
X222.016Y-123.451
X222.016Y-180.601
X223.285Y-120.91
X223.285Y-178.06
X224.0Y-114.57
X224.0Y-133.62
X224.0Y-152.67
X224.0Y-171.72
X224.475Y-122.17
X224.475Y-179.32
X225.19Y-115.83
X225.19Y-134.88
X225.19Y-153.93
X225.19Y-172.98
X226.459Y-113.289
X226.459Y-132.339
X226.459Y-151.389
X226.459Y-170.439
X229.0Y-112.47
X229.0Y-131.52
X229.0Y-150.57
X229.0Y-169.62
X231.54Y-113.29
X231.54Y-132.34
X231.54Y-151.39
X231.54Y-170.44
X232.81Y-115.83
X232.81Y-134.88
X232.81Y-153.93
X232.81Y-172.98
X233.525Y-122.17
X233.525Y-179.32
X234.0Y-114.57
X234.0Y-133.62
X234.0Y-152.67
X234.0Y-171.72
X234.715Y-120.91
X234.715Y-178.06
X235.985Y-123.45
X235.985Y-180.6
X238.525Y-124.27
X238.525Y-181.42
X241.066Y-123.451
X241.066Y-180.601
X242.335Y-120.91
X242.335Y-178.06
X243.05Y-114.57
X243.05Y-133.62
X243.05Y-152.67
X243.05Y-171.72
X243.525Y-122.17
X243.525Y-179.32
X244.24Y-115.83
X244.24Y-134.88
X244.24Y-153.93
X244.24Y-172.98
X245.509Y-113.289
X245.509Y-132.339
X245.509Y-151.389
X245.509Y-170.439
X248.05Y-112.47
X248.05Y-131.52
X248.05Y-150.57
X248.05Y-169.62
X250.59Y-113.29
X250.59Y-132.34
X250.59Y-151.39
X250.59Y-170.44
X251.86Y-115.83
X251.86Y-134.88
X251.86Y-153.93
X251.86Y-172.98
X253.05Y-114.57
X253.05Y-133.62
X253.05Y-152.67
X253.05Y-171.72
X262.1Y-114.57
X262.1Y-133.62
X262.1Y-152.67
X262.1Y-171.72
X263.29Y-115.83
X263.29Y-134.88
X263.29Y-153.93
X263.29Y-172.98
X264.559Y-113.289
X264.559Y-132.339
X264.559Y-151.389
X264.559Y-170.439
X267.1Y-112.47
X267.1Y-131.52
X267.1Y-150.57
X267.1Y-169.62
X269.64Y-113.29
X269.64Y-132.34
X269.64Y-151.39
X269.64Y-170.44
X270.91Y-115.83
X270.91Y-134.88
X270.91Y-153.93
X270.91Y-172.98
X272.1Y-114.57
X272.1Y-133.62
X272.1Y-152.67
X272.1Y-171.72
X281.15Y-114.57
X281.15Y-133.62
X281.15Y-152.67
X281.15Y-171.72
X282.34Y-115.83
X282.34Y-134.88
X282.34Y-153.93
X282.34Y-172.98
X283.609Y-113.289
X283.609Y-132.339
X283.609Y-151.389
X283.609Y-170.439
X286.15Y-112.47
X286.15Y-131.52
X286.15Y-150.57
X286.15Y-169.62
X288.69Y-113.29
X288.69Y-132.34
X288.69Y-151.39
X288.69Y-170.44
X289.96Y-115.83
X289.96Y-134.88
X289.96Y-153.93
X289.96Y-172.98
X291.15Y-114.57
X291.15Y-133.62
X291.15Y-152.67
X291.15Y-171.72
X300.2Y-114.57
X300.2Y-133.62
X300.2Y-152.67
X300.2Y-171.72
X301.39Y-115.83
X301.39Y-134.88
X301.39Y-153.93
X301.39Y-172.98
X302.659Y-113.289
X302.659Y-132.339
X302.659Y-151.389
X302.659Y-170.439
X305.2Y-112.47
X305.2Y-131.52
X305.2Y-150.57
X305.2Y-169.62
X307.74Y-113.29
X307.74Y-132.34
X307.74Y-151.39
X307.74Y-170.44
X309.01Y-115.83
X309.01Y-134.88
X309.01Y-153.93
X309.01Y-172.98
X310.2Y-114.57
X310.2Y-133.62
X310.2Y-152.67
X310.2Y-171.72
T7
X348.104Y-110.595
X354.604Y-110.595
T9
X157.245Y-118.37
X157.245Y-175.52
X157.88Y-118.37
X157.88Y-175.52
X166.77Y-118.37
X166.77Y-175.52
X167.405Y-118.37
X167.405Y-175.52
X176.295Y-118.37
X176.295Y-175.52
X176.93Y-118.37
X176.93Y-175.52
X195.345Y-118.37
X195.345Y-175.52
X195.98Y-118.37
X195.98Y-175.52
X204.87Y-118.37
X205.505Y-118.37
X214.395Y-118.37
X214.395Y-175.52
X215.03Y-118.37
X215.03Y-175.52
X223.92Y-175.52
X224.555Y-175.52
X233.445Y-118.37
X233.445Y-175.52
X234.08Y-118.37
X234.08Y-175.52
T10
X156.825Y-118.37
X156.825Y-175.52
X158.3Y-118.37
X158.3Y-175.52
X166.35Y-118.37
X166.35Y-175.52
X167.825Y-118.37
X167.825Y-175.52
X175.875Y-118.37
X175.875Y-175.52
X177.35Y-118.37
X177.35Y-175.52
X194.925Y-118.37
X194.925Y-175.52
X196.4Y-118.37
X196.4Y-175.52
X204.45Y-118.37
X205.925Y-118.37
X213.975Y-118.37
X213.975Y-175.52
X215.45Y-118.37
X215.45Y-175.52
X223.5Y-175.52
X224.975Y-175.52
X233.025Y-118.37
X233.025Y-175.52
X234.5Y-118.37
X234.5Y-175.52
T8
G00X339.607Y-154.688
M15
G01X340.707Y-154.688
M16
G05
G00X339.607Y-165.888
M15
G01X340.707Y-165.888
M16
G05
T11
G00X319.59Y-139.721
M15
G01X317.61Y-137.741
M16
G05
G00X319.59Y-180.855
M15
G01X317.61Y-182.835
M16
G05
G00X360.724Y-139.721
M15
G01X362.704Y-137.741
M16
G05
G00X362.704Y-182.835
M15
G01X360.724Y-180.855
M16
G05
M30
