%TF.GenerationSoftware,KiCad,Pcbnew,9.0.8-9.0.8~ubuntu24.04.1*%
%TF.CreationDate,2026-05-12T20:31:28+08:00*%
%TF.ProjectId,outsider,6f757473-6964-4657-922e-6b696361645f,rev?*%
%TF.SameCoordinates,Original*%
%TF.FileFunction,Profile,NP*%
%FSLAX46Y46*%
G04 Gerber Fmt 4.6, Leading zero omitted, Abs format (unit mm)*
G04 Created by KiCad (PCBNEW 9.0.8-9.0.8~ubuntu24.04.1) date 2026-05-12 20:31:28*
%MOMM*%
%LPD*%
G01*
G04 APERTURE LIST*
%TA.AperFunction,Profile*%
%ADD10C,0.050000*%
%TD*%
%TA.AperFunction,Profile*%
%ADD11C,0.100000*%
%TD*%
G04 APERTURE END LIST*
D10*
X86125000Y-111045000D02*
X86125000Y-182845000D01*
X86125000Y-111045000D02*
G75*
G02*
X88325000Y-108845000I2200000J0D01*
G01*
X88325000Y-185045000D02*
G75*
G02*
X86125000Y-182845000I0J2200000D01*
G01*
X107675000Y-127895000D02*
G75*
G02*
X102675000Y-127895000I-2500000J0D01*
G01*
X102675000Y-127895000D02*
G75*
G02*
X107675000Y-127895000I2500000J0D01*
G01*
X107675000Y-165995000D02*
G75*
G02*
X102675000Y-165995000I-2500000J0D01*
G01*
X102675000Y-165995000D02*
G75*
G02*
X107675000Y-165995000I2500000J0D01*
G01*
X121425033Y-185044504D02*
X88325000Y-185045000D01*
X121425500Y-108844504D02*
X88325000Y-108845000D01*
X121425500Y-108845500D02*
G75*
G02*
X123625500Y-111045500I0J-2200000D01*
G01*
X123625000Y-118370500D02*
G75*
G02*
X124825000Y-118370500I600000J0D01*
G01*
X123625000Y-120745000D02*
X123625000Y-118370500D01*
X123625000Y-123184500D02*
X123625000Y-128675000D01*
X123625000Y-123184500D02*
G75*
G02*
X124825000Y-123184500I600000J0D01*
G01*
X123625000Y-131114500D02*
X123625000Y-136980000D01*
X123625000Y-131114500D02*
G75*
G02*
X124825000Y-131114500I600000J0D01*
G01*
X123625000Y-141859000D02*
X123625000Y-147725000D01*
X123625000Y-141859000D02*
G75*
G02*
X124825000Y-141859000I600000J0D01*
G01*
X123625000Y-150164500D02*
X123625000Y-156030000D01*
X123625000Y-150164500D02*
G75*
G02*
X124825000Y-150164500I600000J0D01*
G01*
X123625000Y-160909000D02*
X123625000Y-166775000D01*
X123625000Y-160909000D02*
G75*
G02*
X124825000Y-160909000I600000J0D01*
G01*
X123625000Y-169214500D02*
X123625000Y-173081000D01*
X123625000Y-169214500D02*
G75*
G02*
X124825000Y-169214500I600000J0D01*
G01*
X123625000Y-177960000D02*
X123625000Y-180405000D01*
X123625000Y-177960000D02*
G75*
G02*
X124825000Y-177960000I600000J0D01*
G01*
X123625000Y-182844500D02*
G75*
G02*
X121425000Y-185044500I-2200000J0D01*
G01*
X123625000Y-182844500D02*
G75*
G02*
X124825000Y-182844500I600000J0D01*
G01*
X123625500Y-113485000D02*
X123625000Y-115931000D01*
X123625500Y-113485000D02*
G75*
G02*
X124825500Y-113485000I600000J0D01*
G01*
X124825000Y-139419500D02*
G75*
G02*
X123625000Y-139419500I-600000J0D01*
G01*
X123625000Y-139419500D02*
G75*
G02*
X124825000Y-139419500I600000J0D01*
G01*
X124825000Y-158469500D02*
G75*
G02*
X123625000Y-158469500I-600000J0D01*
G01*
X123625000Y-158469500D02*
G75*
G02*
X124825000Y-158469500I600000J0D01*
G01*
X124825000Y-175520500D02*
G75*
G02*
X123625000Y-175520500I-600000J0D01*
G01*
X123625000Y-175520500D02*
G75*
G02*
X124825000Y-175520500I600000J0D01*
G01*
X124825000Y-115931000D02*
G75*
G02*
X123625000Y-115931000I-600000J0D01*
G01*
X124825000Y-120745000D02*
G75*
G02*
X123625000Y-120745000I-600000J0D01*
G01*
X124825000Y-120745000D02*
X124825000Y-118370500D01*
X124825000Y-123184500D02*
X124825000Y-128675000D01*
X124825000Y-128675000D02*
G75*
G02*
X123625000Y-128675000I-600000J0D01*
G01*
X124825000Y-131114500D02*
X124825000Y-136980000D01*
X124825000Y-136980000D02*
G75*
G02*
X123625000Y-136980000I-600000J0D01*
G01*
X124825000Y-141859000D02*
X124825000Y-147725000D01*
X124825000Y-147725000D02*
G75*
G02*
X123625000Y-147725000I-600000J0D01*
G01*
X124825000Y-150164500D02*
X124825000Y-156030000D01*
X124825000Y-156030000D02*
G75*
G02*
X123625000Y-156030000I-600000J0D01*
G01*
X124825000Y-160909000D02*
X124825000Y-166775000D01*
X124825000Y-166775000D02*
G75*
G02*
X123625000Y-166775000I-600000J0D01*
G01*
X124825000Y-169214500D02*
X124825000Y-173081000D01*
X124825000Y-173081000D02*
G75*
G02*
X123625000Y-173081000I-600000J0D01*
G01*
X124825000Y-177960000D02*
X124825000Y-180405000D01*
X124825000Y-180405000D02*
G75*
G02*
X123625000Y-180405000I-600000J0D01*
G01*
X124825500Y-111045500D02*
G75*
G02*
X123625500Y-111045500I-600000J0D01*
G01*
X124825500Y-111045500D02*
G75*
G02*
X127025500Y-108845500I2200000J0D01*
G01*
X124825500Y-113485000D02*
X124825000Y-115931000D01*
X127025000Y-185044500D02*
G75*
G02*
X124825000Y-182844500I0J2200000D01*
G01*
X127025500Y-108845500D02*
X312000000Y-108845000D01*
X145775000Y-127895000D02*
G75*
G02*
X140775000Y-127895000I-2500000J0D01*
G01*
X140775000Y-127895000D02*
G75*
G02*
X145775000Y-127895000I2500000J0D01*
G01*
X145775000Y-165995000D02*
G75*
G02*
X140775000Y-165995000I-2500000J0D01*
G01*
X140775000Y-165995000D02*
G75*
G02*
X145775000Y-165995000I2500000J0D01*
G01*
X260075000Y-127895000D02*
G75*
G02*
X255075000Y-127895000I-2500000J0D01*
G01*
X255075000Y-127895000D02*
G75*
G02*
X260075000Y-127895000I2500000J0D01*
G01*
X260075000Y-165995000D02*
G75*
G02*
X255075000Y-165995000I-2500000J0D01*
G01*
X255075000Y-165995000D02*
G75*
G02*
X260075000Y-165995000I2500000J0D01*
G01*
X298175000Y-127895000D02*
G75*
G02*
X293175000Y-127895000I-2500000J0D01*
G01*
X293175000Y-127895000D02*
G75*
G02*
X298175000Y-127895000I2500000J0D01*
G01*
X298175000Y-165995000D02*
G75*
G02*
X293175000Y-165995000I-2500000J0D01*
G01*
X293175000Y-165995000D02*
G75*
G02*
X298175000Y-165995000I2500000J0D01*
G01*
X312000000Y-108845000D02*
G75*
G02*
X314200000Y-111045000I0J-2200000D01*
G01*
X312000000Y-185045000D02*
X127025000Y-185044500D01*
X314200000Y-135531000D02*
G75*
G02*
X315400000Y-135531000I600000J0D01*
G01*
X314200000Y-182845000D02*
G75*
G02*
X312000000Y-185045000I-2200000J0D01*
G01*
X314200000Y-182845000D02*
X314200000Y-135531000D01*
X315400000Y-111045000D02*
G75*
G02*
X314200000Y-111045000I-600000J0D01*
G01*
X315400000Y-111045000D02*
G75*
G02*
X317600000Y-108845000I2200000J0D01*
G01*
X315400000Y-137706000D02*
X315400000Y-135531000D01*
X316203000Y-140704000D02*
X316203000Y-179847000D01*
X317600000Y-108845000D02*
X362739000Y-108845000D01*
X317600000Y-185045000D02*
G75*
G02*
X315400000Y-182845000I0J2200000D01*
G01*
X359741000Y-184242000D02*
X320598000Y-184242000D01*
X362739000Y-108845000D02*
G75*
G02*
X364939000Y-111045000I0J-2200000D01*
G01*
X364136000Y-140704000D02*
X364136000Y-179847000D01*
X364939000Y-111045000D02*
X364939000Y-137706000D01*
X364939000Y-182845000D02*
G75*
G02*
X362739000Y-185045000I-2200000J0D01*
G01*
D11*
%TO.C,K49*%
X335507000Y-178067000D02*
X344810000Y-178067000D01*
X344810000Y-180567000D02*
X335507000Y-180567000D01*
X335507000Y-180567000D02*
G75*
G02*
X335507000Y-178067000I0J1250000D01*
G01*
X344810000Y-178067000D02*
G75*
G02*
X344810000Y-180567000I0J-1250000D01*
G01*
D10*
%TO.C,*%
X315400230Y-182845133D02*
G75*
G02*
X315694579Y-181745817I2200008J-1D01*
G01*
X316203230Y-179847133D02*
G75*
G02*
X315694807Y-181745949I-3799931J-14D01*
G01*
X364135770Y-140703867D02*
G75*
G02*
X364644190Y-138805049I3799991J4D01*
G01*
X364938770Y-137705867D02*
G75*
G02*
X364644421Y-138805183I-2200008J1D01*
G01*
X359741000Y-184242000D02*
G75*
G02*
X361639817Y-184750421I10J-3799963D01*
G01*
X362739000Y-185045000D02*
G75*
G02*
X361639684Y-184750651I1J2200008D01*
G01*
X315694349Y-138805316D02*
G75*
G02*
X315400000Y-137706000I1905659J1099317D01*
G01*
X315694579Y-138805183D02*
G75*
G02*
X316202999Y-140704000I-3291570J-1898813D01*
G01*
X318699183Y-184750421D02*
G75*
G02*
X320598000Y-184242002I1898803J-3291540D01*
G01*
X318699316Y-184750651D02*
G75*
G02*
X317600000Y-185045000I-1099317J1905659D01*
G01*
X364644421Y-181745817D02*
G75*
G02*
X364136001Y-179847000I3291570J1898813D01*
G01*
X364644651Y-181745684D02*
G75*
G02*
X364939000Y-182845000I-1905659J-1099317D01*
G01*
%TD*%
M02*
