%TF.GenerationSoftware,KiCad,Pcbnew,9.0.8-9.0.8~ubuntu24.04.1*%
%TF.CreationDate,2026-04-17T23:17:21+08:00*%
%TF.ProjectId,outsider,6f757473-6964-4657-922e-6b696361645f,rev?*%
%TF.SameCoordinates,Original*%
%TF.FileFunction,Profile,NP*%
%FSLAX46Y46*%
G04 Gerber Fmt 4.6, Leading zero omitted, Abs format (unit mm)*
G04 Created by KiCad (PCBNEW 9.0.8-9.0.8~ubuntu24.04.1) date 2026-04-17 23:17:21*
%MOMM*%
%LPD*%
G01*
G04 APERTURE LIST*
%TA.AperFunction,Profile*%
%ADD10C,0.050000*%
%TD*%
G04 APERTURE END LIST*
D10*
X364939000Y-111045000D02*
X364939000Y-182845000D01*
X364939000Y-182845000D02*
G75*
G02*
X362739000Y-185045000I-2200000J0D01*
G01*
X362739000Y-185044419D02*
X88325000Y-185045000D01*
X86125000Y-111045000D02*
X86125000Y-182845000D01*
X86125000Y-111045000D02*
G75*
G02*
X88325000Y-108845000I2200000J0D01*
G01*
X88325000Y-185045000D02*
G75*
G02*
X86125000Y-182845000I0J2200000D01*
G01*
X106375000Y-127895000D02*
G75*
G02*
X103975000Y-127895000I-1200000J0D01*
G01*
X103975000Y-127895000D02*
G75*
G02*
X106375000Y-127895000I1200000J0D01*
G01*
X106275000Y-165995000D02*
G75*
G02*
X104075000Y-165995000I-1100000J0D01*
G01*
X104075000Y-165995000D02*
G75*
G02*
X106275000Y-165995000I1100000J0D01*
G01*
X88325000Y-108845581D02*
X362739000Y-108845000D01*
X144375000Y-127895000D02*
G75*
G02*
X142175000Y-127895000I-1100000J0D01*
G01*
X142175000Y-127895000D02*
G75*
G02*
X144375000Y-127895000I1100000J0D01*
G01*
X144375000Y-165995000D02*
G75*
G02*
X142175000Y-165995000I-1100000J0D01*
G01*
X142175000Y-165995000D02*
G75*
G02*
X144375000Y-165995000I1100000J0D01*
G01*
X258675000Y-127895000D02*
G75*
G02*
X256475000Y-127895000I-1100000J0D01*
G01*
X256475000Y-127895000D02*
G75*
G02*
X258675000Y-127895000I1100000J0D01*
G01*
X258675000Y-165995000D02*
G75*
G02*
X256475000Y-165995000I-1100000J0D01*
G01*
X256475000Y-165995000D02*
G75*
G02*
X258675000Y-165995000I1100000J0D01*
G01*
X296775000Y-127895000D02*
G75*
G02*
X294575000Y-127895000I-1100000J0D01*
G01*
X294575000Y-127895000D02*
G75*
G02*
X296775000Y-127895000I1100000J0D01*
G01*
X296775000Y-165995000D02*
G75*
G02*
X294575000Y-165995000I-1100000J0D01*
G01*
X294575000Y-165995000D02*
G75*
G02*
X296775000Y-165995000I1100000J0D01*
G01*
X362739000Y-108845000D02*
G75*
G02*
X364939000Y-111045000I0J-2200000D01*
G01*
M02*
