%TF.GenerationSoftware,KiCad,Pcbnew,9.0.8-9.0.8~ubuntu24.04.1*%
%TF.CreationDate,2026-04-17T22:54:38+08:00*%
%TF.ProjectId,plate,706c6174-652e-46b6-9963-61645f706362,rev?*%
%TF.SameCoordinates,Original*%
%TF.FileFunction,Copper,L1,Top*%
%TF.FilePolarity,Positive*%
%FSLAX46Y46*%
G04 Gerber Fmt 4.6, Leading zero omitted, Abs format (unit mm)*
G04 Created by KiCad (PCBNEW 9.0.8-9.0.8~ubuntu24.04.1) date 2026-04-17 22:54:38*
%MOMM*%
%LPD*%
G01*
G04 APERTURE LIST*
G04 APERTURE END LIST*
%TA.AperFunction,Conductor*%
%TO.N,GND*%
G36*
X274091542Y-109096265D02*
G01*
X274113451Y-109097700D01*
X274333867Y-109112147D01*
X274349924Y-109114262D01*
X274584107Y-109160844D01*
X274599757Y-109165038D01*
X274825852Y-109241787D01*
X274840818Y-109247985D01*
X275054963Y-109353589D01*
X275069004Y-109361696D01*
X275267526Y-109494345D01*
X275280390Y-109504216D01*
X275459894Y-109661636D01*
X275471363Y-109673105D01*
X275628783Y-109852609D01*
X275638657Y-109865477D01*
X275771303Y-110063995D01*
X275779413Y-110078042D01*
X275885008Y-110292168D01*
X275891215Y-110307154D01*
X275967959Y-110533235D01*
X275972157Y-110548901D01*
X276018735Y-110783060D01*
X276020853Y-110799142D01*
X276036735Y-111041456D01*
X276037000Y-111049566D01*
X276037000Y-182840433D01*
X276036735Y-182848543D01*
X276020853Y-183090857D01*
X276018735Y-183106939D01*
X275972157Y-183341098D01*
X275967959Y-183356764D01*
X275891215Y-183582845D01*
X275885008Y-183597831D01*
X275779413Y-183811957D01*
X275771303Y-183826004D01*
X275638657Y-184024522D01*
X275628783Y-184037390D01*
X275471363Y-184216894D01*
X275459894Y-184228363D01*
X275280390Y-184385783D01*
X275267522Y-184395657D01*
X275069004Y-184528303D01*
X275054957Y-184536413D01*
X274840831Y-184642008D01*
X274825845Y-184648215D01*
X274599764Y-184724959D01*
X274584098Y-184729157D01*
X274349939Y-184775735D01*
X274333857Y-184777853D01*
X274091543Y-184793735D01*
X274083433Y-184794000D01*
X126766567Y-184794000D01*
X126758457Y-184793735D01*
X126516142Y-184777853D01*
X126500062Y-184775735D01*
X126387298Y-184753304D01*
X126265901Y-184729157D01*
X126250235Y-184724959D01*
X126024154Y-184648215D01*
X126009174Y-184642010D01*
X125795041Y-184536412D01*
X125780995Y-184528303D01*
X125582477Y-184395657D01*
X125569609Y-184385783D01*
X125390105Y-184228363D01*
X125378636Y-184216894D01*
X125221216Y-184037390D01*
X125211342Y-184024522D01*
X125078696Y-183826004D01*
X125070589Y-183811963D01*
X124964985Y-183597818D01*
X124958787Y-183582852D01*
X124882038Y-183356757D01*
X124877844Y-183341107D01*
X124831262Y-183106924D01*
X124829147Y-183090867D01*
X124813265Y-182848542D01*
X124813000Y-182840433D01*
X124813000Y-169371600D01*
X126449522Y-169371600D01*
X126449522Y-181668399D01*
X126480312Y-181862804D01*
X126541139Y-182050007D01*
X126614082Y-182193165D01*
X126630498Y-182225383D01*
X126746194Y-182384624D01*
X126885376Y-182523806D01*
X127044617Y-182639502D01*
X127127477Y-182681721D01*
X127219992Y-182728860D01*
X127219994Y-182728860D01*
X127219997Y-182728862D01*
X127320339Y-182761465D01*
X127407195Y-182789687D01*
X127601601Y-182820478D01*
X127601606Y-182820478D01*
X139898399Y-182820478D01*
X140092804Y-182789687D01*
X140092819Y-182789682D01*
X140280003Y-182728862D01*
X140455383Y-182639502D01*
X140614624Y-182523806D01*
X140753806Y-182384624D01*
X140869502Y-182225383D01*
X140958862Y-182050003D01*
X141019687Y-181862804D01*
X141042907Y-181716198D01*
X141050478Y-181668399D01*
X141050478Y-169528597D01*
X145499521Y-169528597D01*
X145499522Y-169528606D01*
X145499522Y-181668399D01*
X145530312Y-181862804D01*
X145591139Y-182050007D01*
X145664082Y-182193165D01*
X145680498Y-182225383D01*
X145796194Y-182384624D01*
X145935376Y-182523806D01*
X146094617Y-182639502D01*
X146177477Y-182681721D01*
X146269992Y-182728860D01*
X146269994Y-182728860D01*
X146269997Y-182728862D01*
X146370339Y-182761465D01*
X146457195Y-182789687D01*
X146651601Y-182820478D01*
X146651606Y-182820478D01*
X146700194Y-182820478D01*
X254055832Y-182820478D01*
X254055835Y-182820479D01*
X254100005Y-182820478D01*
X254149828Y-182820478D01*
X254174488Y-182820478D01*
X254174498Y-182820476D01*
X254198417Y-182820476D01*
X254198419Y-182820476D01*
X254392823Y-182789682D01*
X254580016Y-182728857D01*
X254755390Y-182639498D01*
X254914626Y-182523805D01*
X255053805Y-182384626D01*
X255169498Y-182225390D01*
X255258857Y-182050016D01*
X255319682Y-181862823D01*
X255350476Y-181668419D01*
X255350476Y-181644494D01*
X255350476Y-181619829D01*
X255350478Y-181619828D01*
X255350478Y-181569978D01*
X255350479Y-181525835D01*
X255350478Y-181525833D01*
X255350478Y-181507484D01*
X255350477Y-181507470D01*
X255350477Y-169371600D01*
X259799522Y-169371600D01*
X259799522Y-181668399D01*
X259830312Y-181862804D01*
X259891139Y-182050007D01*
X259964082Y-182193165D01*
X259980498Y-182225383D01*
X260096194Y-182384624D01*
X260235376Y-182523806D01*
X260394617Y-182639502D01*
X260477477Y-182681721D01*
X260569992Y-182728860D01*
X260569994Y-182728860D01*
X260569997Y-182728862D01*
X260670339Y-182761465D01*
X260757195Y-182789687D01*
X260951601Y-182820478D01*
X260951606Y-182820478D01*
X273248399Y-182820478D01*
X273442804Y-182789687D01*
X273442819Y-182789682D01*
X273630003Y-182728862D01*
X273805383Y-182639502D01*
X273964624Y-182523806D01*
X274103806Y-182384624D01*
X274219502Y-182225383D01*
X274308862Y-182050003D01*
X274369687Y-181862804D01*
X274392907Y-181716198D01*
X274400478Y-181668399D01*
X274400478Y-169371600D01*
X274369687Y-169177195D01*
X274329535Y-169053622D01*
X274308862Y-168989997D01*
X274308860Y-168989994D01*
X274308860Y-168989992D01*
X274235918Y-168846836D01*
X274219502Y-168814617D01*
X274103806Y-168655376D01*
X273964624Y-168516194D01*
X273805383Y-168400498D01*
X273805371Y-168400492D01*
X273630007Y-168311139D01*
X273442804Y-168250312D01*
X273248399Y-168219522D01*
X273248394Y-168219522D01*
X273199806Y-168219522D01*
X261094192Y-168219522D01*
X261050022Y-168219522D01*
X260951606Y-168219522D01*
X260951601Y-168219522D01*
X260757195Y-168250312D01*
X260569992Y-168311139D01*
X260394616Y-168400498D01*
X260303763Y-168466507D01*
X260235376Y-168516194D01*
X260235374Y-168516196D01*
X260235373Y-168516196D01*
X260096196Y-168655373D01*
X260096196Y-168655374D01*
X260096194Y-168655376D01*
X260096193Y-168655378D01*
X259980498Y-168814616D01*
X259891139Y-168989992D01*
X259830312Y-169177195D01*
X259799522Y-169371600D01*
X255350477Y-169371600D01*
X255332563Y-169258506D01*
X255319686Y-169177197D01*
X255258862Y-168989997D01*
X255258862Y-168989996D01*
X255227917Y-168929264D01*
X255169502Y-168814618D01*
X255111601Y-168734924D01*
X255053812Y-168655383D01*
X255053808Y-168655378D01*
X254914623Y-168516193D01*
X254914618Y-168516189D01*
X254755387Y-168400502D01*
X254755386Y-168400501D01*
X254755384Y-168400500D01*
X254580005Y-168311139D01*
X254506269Y-168287180D01*
X254392806Y-168250313D01*
X254198402Y-168219523D01*
X254198397Y-168219523D01*
X254149828Y-168219523D01*
X146794192Y-168219523D01*
X146750022Y-168219523D01*
X146651607Y-168219523D01*
X146651603Y-168219523D01*
X146457199Y-168250313D01*
X146457196Y-168250313D01*
X146270003Y-168311135D01*
X146094628Y-168400492D01*
X146094625Y-168400493D01*
X146094625Y-168400494D01*
X146094617Y-168400500D01*
X145935381Y-168516189D01*
X145796206Y-168655361D01*
X145796203Y-168655364D01*
X145680506Y-168814603D01*
X145591145Y-168989978D01*
X145591144Y-168989981D01*
X145530319Y-169177171D01*
X145530319Y-169177172D01*
X145499523Y-169371583D01*
X145499523Y-169410172D01*
X145499523Y-169420170D01*
X145499522Y-169420173D01*
X145499522Y-169441746D01*
X145499522Y-169469998D01*
X145499521Y-169528597D01*
X141050478Y-169528597D01*
X141050478Y-169371600D01*
X141019687Y-169177195D01*
X140979535Y-169053622D01*
X140958862Y-168989997D01*
X140958860Y-168989994D01*
X140958860Y-168989992D01*
X140885918Y-168846836D01*
X140869502Y-168814617D01*
X140753806Y-168655376D01*
X140614624Y-168516194D01*
X140455383Y-168400498D01*
X140455371Y-168400492D01*
X140280007Y-168311139D01*
X140092804Y-168250312D01*
X139898399Y-168219522D01*
X139898394Y-168219522D01*
X139849806Y-168219522D01*
X127744192Y-168219522D01*
X127700022Y-168219522D01*
X127601606Y-168219522D01*
X127601601Y-168219522D01*
X127407195Y-168250312D01*
X127219992Y-168311139D01*
X127044616Y-168400498D01*
X126953763Y-168466507D01*
X126885376Y-168516194D01*
X126885374Y-168516196D01*
X126885373Y-168516196D01*
X126746196Y-168655373D01*
X126746196Y-168655374D01*
X126746194Y-168655376D01*
X126746193Y-168655378D01*
X126630498Y-168814616D01*
X126541139Y-168989992D01*
X126480312Y-169177195D01*
X126449522Y-169371600D01*
X124813000Y-169371600D01*
X124813000Y-165888713D01*
X141924500Y-165888713D01*
X141924500Y-165911734D01*
X141924500Y-166101287D01*
X141957754Y-166311243D01*
X141985115Y-166395452D01*
X142023444Y-166513414D01*
X142119951Y-166702820D01*
X142244890Y-166874786D01*
X142395213Y-167025109D01*
X142567179Y-167150048D01*
X142567181Y-167150049D01*
X142567184Y-167150051D01*
X142756588Y-167246557D01*
X142958757Y-167312246D01*
X143168713Y-167345500D01*
X143168714Y-167345500D01*
X143381286Y-167345500D01*
X143381287Y-167345500D01*
X143591243Y-167312246D01*
X143793412Y-167246557D01*
X143982816Y-167150051D01*
X144004789Y-167134086D01*
X144154786Y-167025109D01*
X144154788Y-167025106D01*
X144154792Y-167025104D01*
X144305104Y-166874792D01*
X144305106Y-166874788D01*
X144305109Y-166874786D01*
X144430048Y-166702820D01*
X144430047Y-166702820D01*
X144430051Y-166702816D01*
X144526557Y-166513412D01*
X144592246Y-166311243D01*
X144625500Y-166101287D01*
X144625500Y-165888713D01*
X256224500Y-165888713D01*
X256224500Y-165911734D01*
X256224500Y-166101287D01*
X256257754Y-166311243D01*
X256285115Y-166395452D01*
X256323444Y-166513414D01*
X256419951Y-166702820D01*
X256544890Y-166874786D01*
X256695213Y-167025109D01*
X256867179Y-167150048D01*
X256867181Y-167150049D01*
X256867184Y-167150051D01*
X257056588Y-167246557D01*
X257258757Y-167312246D01*
X257468713Y-167345500D01*
X257468714Y-167345500D01*
X257681286Y-167345500D01*
X257681287Y-167345500D01*
X257891243Y-167312246D01*
X258093412Y-167246557D01*
X258282816Y-167150051D01*
X258304789Y-167134086D01*
X258454786Y-167025109D01*
X258454788Y-167025106D01*
X258454792Y-167025104D01*
X258605104Y-166874792D01*
X258605106Y-166874788D01*
X258605109Y-166874786D01*
X258730048Y-166702820D01*
X258730047Y-166702820D01*
X258730051Y-166702816D01*
X258826557Y-166513412D01*
X258892246Y-166311243D01*
X258925500Y-166101287D01*
X258925500Y-165888713D01*
X258892246Y-165678757D01*
X258826557Y-165476588D01*
X258730051Y-165287184D01*
X258730049Y-165287181D01*
X258730048Y-165287179D01*
X258605109Y-165115213D01*
X258454786Y-164964890D01*
X258282820Y-164839951D01*
X258093414Y-164743444D01*
X258093413Y-164743443D01*
X258093412Y-164743443D01*
X257891243Y-164677754D01*
X257891241Y-164677753D01*
X257891240Y-164677753D01*
X257729957Y-164652208D01*
X257681287Y-164644500D01*
X257468713Y-164644500D01*
X257420042Y-164652208D01*
X257258760Y-164677753D01*
X257056585Y-164743444D01*
X256867179Y-164839951D01*
X256695213Y-164964890D01*
X256544890Y-165115213D01*
X256419951Y-165287179D01*
X256323444Y-165476585D01*
X256257753Y-165678760D01*
X256246723Y-165748403D01*
X256224500Y-165888713D01*
X144625500Y-165888713D01*
X144592246Y-165678757D01*
X144526557Y-165476588D01*
X144430051Y-165287184D01*
X144430049Y-165287181D01*
X144430048Y-165287179D01*
X144305109Y-165115213D01*
X144154786Y-164964890D01*
X143982820Y-164839951D01*
X143793414Y-164743444D01*
X143793413Y-164743443D01*
X143793412Y-164743443D01*
X143591243Y-164677754D01*
X143591241Y-164677753D01*
X143591240Y-164677753D01*
X143429957Y-164652208D01*
X143381287Y-164644500D01*
X143168713Y-164644500D01*
X143120042Y-164652208D01*
X142958760Y-164677753D01*
X142756585Y-164743444D01*
X142567179Y-164839951D01*
X142395213Y-164964890D01*
X142244890Y-165115213D01*
X142119951Y-165287179D01*
X142023444Y-165476585D01*
X141957753Y-165678760D01*
X141946723Y-165748403D01*
X141924500Y-165888713D01*
X124813000Y-165888713D01*
X124813000Y-150321600D01*
X126449522Y-150321600D01*
X126449522Y-162618399D01*
X126480312Y-162812804D01*
X126541139Y-163000007D01*
X126614082Y-163143165D01*
X126630498Y-163175383D01*
X126746194Y-163334624D01*
X126885376Y-163473806D01*
X127044617Y-163589502D01*
X127127477Y-163631721D01*
X127219992Y-163678860D01*
X127219994Y-163678860D01*
X127219997Y-163678862D01*
X127320339Y-163711465D01*
X127407195Y-163739687D01*
X127601601Y-163770478D01*
X127601606Y-163770478D01*
X139898399Y-163770478D01*
X140092804Y-163739687D01*
X140280003Y-163678862D01*
X140455383Y-163589502D01*
X140614624Y-163473806D01*
X140753806Y-163334624D01*
X140869502Y-163175383D01*
X140958862Y-163000003D01*
X141019687Y-162812804D01*
X141042907Y-162666198D01*
X141050478Y-162618399D01*
X141050478Y-150321600D01*
X145499522Y-150321600D01*
X145499522Y-162618399D01*
X145530312Y-162812804D01*
X145591139Y-163000007D01*
X145664082Y-163143165D01*
X145680498Y-163175383D01*
X145796194Y-163334624D01*
X145935376Y-163473806D01*
X146094617Y-163589502D01*
X146177477Y-163631721D01*
X146269992Y-163678860D01*
X146269994Y-163678860D01*
X146269997Y-163678862D01*
X146370339Y-163711465D01*
X146457195Y-163739687D01*
X146651601Y-163770478D01*
X146651606Y-163770478D01*
X158948399Y-163770478D01*
X159142804Y-163739687D01*
X159330003Y-163678862D01*
X159505383Y-163589502D01*
X159664624Y-163473806D01*
X159803806Y-163334624D01*
X159919502Y-163175383D01*
X160008862Y-163000003D01*
X160069687Y-162812804D01*
X160092907Y-162666198D01*
X160100478Y-162618399D01*
X160100478Y-150321600D01*
X164549522Y-150321600D01*
X164549522Y-162618399D01*
X164580312Y-162812804D01*
X164641139Y-163000007D01*
X164714082Y-163143165D01*
X164730498Y-163175383D01*
X164846194Y-163334624D01*
X164985376Y-163473806D01*
X165144617Y-163589502D01*
X165227477Y-163631721D01*
X165319992Y-163678860D01*
X165319994Y-163678860D01*
X165319997Y-163678862D01*
X165420339Y-163711465D01*
X165507195Y-163739687D01*
X165701601Y-163770478D01*
X165701606Y-163770478D01*
X177998399Y-163770478D01*
X178192804Y-163739687D01*
X178380003Y-163678862D01*
X178555383Y-163589502D01*
X178714624Y-163473806D01*
X178853806Y-163334624D01*
X178969502Y-163175383D01*
X179058862Y-163000003D01*
X179119687Y-162812804D01*
X179142907Y-162666198D01*
X179150478Y-162618399D01*
X179150478Y-150321600D01*
X183599522Y-150321600D01*
X183599522Y-162618399D01*
X183630312Y-162812804D01*
X183691139Y-163000007D01*
X183764082Y-163143165D01*
X183780498Y-163175383D01*
X183896194Y-163334624D01*
X184035376Y-163473806D01*
X184194617Y-163589502D01*
X184277477Y-163631721D01*
X184369992Y-163678860D01*
X184369994Y-163678860D01*
X184369997Y-163678862D01*
X184470339Y-163711465D01*
X184557195Y-163739687D01*
X184751601Y-163770478D01*
X184751606Y-163770478D01*
X197048399Y-163770478D01*
X197242804Y-163739687D01*
X197430003Y-163678862D01*
X197605383Y-163589502D01*
X197764624Y-163473806D01*
X197903806Y-163334624D01*
X198019502Y-163175383D01*
X198108862Y-163000003D01*
X198169687Y-162812804D01*
X198192907Y-162666198D01*
X198200478Y-162618399D01*
X198200478Y-150321600D01*
X202649522Y-150321600D01*
X202649522Y-162618399D01*
X202680312Y-162812804D01*
X202741139Y-163000007D01*
X202814082Y-163143165D01*
X202830498Y-163175383D01*
X202946194Y-163334624D01*
X203085376Y-163473806D01*
X203244617Y-163589502D01*
X203327477Y-163631721D01*
X203419992Y-163678860D01*
X203419994Y-163678860D01*
X203419997Y-163678862D01*
X203520339Y-163711465D01*
X203607195Y-163739687D01*
X203801601Y-163770478D01*
X203801606Y-163770478D01*
X216098399Y-163770478D01*
X216292804Y-163739687D01*
X216480003Y-163678862D01*
X216655383Y-163589502D01*
X216814624Y-163473806D01*
X216953806Y-163334624D01*
X217069502Y-163175383D01*
X217158862Y-163000003D01*
X217219687Y-162812804D01*
X217242907Y-162666198D01*
X217250478Y-162618399D01*
X217250478Y-150321600D01*
X221699522Y-150321600D01*
X221699522Y-162618399D01*
X221730312Y-162812804D01*
X221791139Y-163000007D01*
X221864082Y-163143165D01*
X221880498Y-163175383D01*
X221996194Y-163334624D01*
X222135376Y-163473806D01*
X222294617Y-163589502D01*
X222377477Y-163631721D01*
X222469992Y-163678860D01*
X222469994Y-163678860D01*
X222469997Y-163678862D01*
X222570339Y-163711465D01*
X222657195Y-163739687D01*
X222851601Y-163770478D01*
X222851606Y-163770478D01*
X235148399Y-163770478D01*
X235342804Y-163739687D01*
X235530003Y-163678862D01*
X235705383Y-163589502D01*
X235864624Y-163473806D01*
X236003806Y-163334624D01*
X236119502Y-163175383D01*
X236208862Y-163000003D01*
X236269687Y-162812804D01*
X236292907Y-162666198D01*
X236300478Y-162618399D01*
X236300478Y-150321600D01*
X240749522Y-150321600D01*
X240749522Y-162618399D01*
X240780312Y-162812804D01*
X240841139Y-163000007D01*
X240914082Y-163143165D01*
X240930498Y-163175383D01*
X241046194Y-163334624D01*
X241185376Y-163473806D01*
X241344617Y-163589502D01*
X241427477Y-163631721D01*
X241519992Y-163678860D01*
X241519994Y-163678860D01*
X241519997Y-163678862D01*
X241620339Y-163711465D01*
X241707195Y-163739687D01*
X241901601Y-163770478D01*
X241901606Y-163770478D01*
X254198399Y-163770478D01*
X254392804Y-163739687D01*
X254580003Y-163678862D01*
X254755383Y-163589502D01*
X254914624Y-163473806D01*
X255053806Y-163334624D01*
X255169502Y-163175383D01*
X255258862Y-163000003D01*
X255319687Y-162812804D01*
X255342907Y-162666198D01*
X255350478Y-162618399D01*
X255350478Y-150321600D01*
X259799522Y-150321600D01*
X259799522Y-162618399D01*
X259830312Y-162812804D01*
X259891139Y-163000007D01*
X259964082Y-163143165D01*
X259980498Y-163175383D01*
X260096194Y-163334624D01*
X260235376Y-163473806D01*
X260394617Y-163589502D01*
X260477477Y-163631721D01*
X260569992Y-163678860D01*
X260569994Y-163678860D01*
X260569997Y-163678862D01*
X260670339Y-163711465D01*
X260757195Y-163739687D01*
X260951601Y-163770478D01*
X260951606Y-163770478D01*
X273248399Y-163770478D01*
X273442804Y-163739687D01*
X273630003Y-163678862D01*
X273805383Y-163589502D01*
X273964624Y-163473806D01*
X274103806Y-163334624D01*
X274219502Y-163175383D01*
X274308862Y-163000003D01*
X274369687Y-162812804D01*
X274392907Y-162666198D01*
X274400478Y-162618399D01*
X274400478Y-150321600D01*
X274369687Y-150127195D01*
X274308860Y-149939992D01*
X274261721Y-149847477D01*
X274219502Y-149764617D01*
X274103806Y-149605376D01*
X273964624Y-149466194D01*
X273805383Y-149350498D01*
X273630007Y-149261139D01*
X273442804Y-149200312D01*
X273248399Y-149169522D01*
X273248394Y-149169522D01*
X273199806Y-149169522D01*
X261094192Y-149169522D01*
X261050022Y-149169522D01*
X260951606Y-149169522D01*
X260951601Y-149169522D01*
X260757195Y-149200312D01*
X260569992Y-149261139D01*
X260394616Y-149350498D01*
X260303763Y-149416507D01*
X260235376Y-149466194D01*
X260235374Y-149466196D01*
X260235373Y-149466196D01*
X260096196Y-149605373D01*
X260096196Y-149605374D01*
X260096194Y-149605376D01*
X260048862Y-149670522D01*
X259980498Y-149764616D01*
X259891139Y-149939992D01*
X259830312Y-150127195D01*
X259799522Y-150321600D01*
X255350478Y-150321600D01*
X255319687Y-150127195D01*
X255258860Y-149939992D01*
X255211721Y-149847477D01*
X255169502Y-149764617D01*
X255053806Y-149605376D01*
X254914624Y-149466194D01*
X254755383Y-149350498D01*
X254580007Y-149261139D01*
X254392804Y-149200312D01*
X254198399Y-149169522D01*
X254198394Y-149169522D01*
X254149806Y-149169522D01*
X242044192Y-149169522D01*
X242000022Y-149169522D01*
X241901606Y-149169522D01*
X241901601Y-149169522D01*
X241707195Y-149200312D01*
X241519992Y-149261139D01*
X241344616Y-149350498D01*
X241253763Y-149416507D01*
X241185376Y-149466194D01*
X241185374Y-149466196D01*
X241185373Y-149466196D01*
X241046196Y-149605373D01*
X241046196Y-149605374D01*
X241046194Y-149605376D01*
X240998862Y-149670522D01*
X240930498Y-149764616D01*
X240841139Y-149939992D01*
X240780312Y-150127195D01*
X240749522Y-150321600D01*
X236300478Y-150321600D01*
X236269687Y-150127195D01*
X236208860Y-149939992D01*
X236161721Y-149847477D01*
X236119502Y-149764617D01*
X236003806Y-149605376D01*
X235864624Y-149466194D01*
X235705383Y-149350498D01*
X235530007Y-149261139D01*
X235342804Y-149200312D01*
X235148399Y-149169522D01*
X235148394Y-149169522D01*
X235099806Y-149169522D01*
X222994192Y-149169522D01*
X222950022Y-149169522D01*
X222851606Y-149169522D01*
X222851601Y-149169522D01*
X222657195Y-149200312D01*
X222469992Y-149261139D01*
X222294616Y-149350498D01*
X222203763Y-149416507D01*
X222135376Y-149466194D01*
X222135374Y-149466196D01*
X222135373Y-149466196D01*
X221996196Y-149605373D01*
X221996196Y-149605374D01*
X221996194Y-149605376D01*
X221948862Y-149670522D01*
X221880498Y-149764616D01*
X221791139Y-149939992D01*
X221730312Y-150127195D01*
X221699522Y-150321600D01*
X217250478Y-150321600D01*
X217219687Y-150127195D01*
X217158860Y-149939992D01*
X217111721Y-149847477D01*
X217069502Y-149764617D01*
X216953806Y-149605376D01*
X216814624Y-149466194D01*
X216655383Y-149350498D01*
X216480007Y-149261139D01*
X216292804Y-149200312D01*
X216098399Y-149169522D01*
X216098394Y-149169522D01*
X216049806Y-149169522D01*
X203944192Y-149169522D01*
X203900022Y-149169522D01*
X203801606Y-149169522D01*
X203801601Y-149169522D01*
X203607195Y-149200312D01*
X203419992Y-149261139D01*
X203244616Y-149350498D01*
X203153763Y-149416507D01*
X203085376Y-149466194D01*
X203085374Y-149466196D01*
X203085373Y-149466196D01*
X202946196Y-149605373D01*
X202946196Y-149605374D01*
X202946194Y-149605376D01*
X202898862Y-149670522D01*
X202830498Y-149764616D01*
X202741139Y-149939992D01*
X202680312Y-150127195D01*
X202649522Y-150321600D01*
X198200478Y-150321600D01*
X198169687Y-150127195D01*
X198108860Y-149939992D01*
X198061721Y-149847477D01*
X198019502Y-149764617D01*
X197903806Y-149605376D01*
X197764624Y-149466194D01*
X197605383Y-149350498D01*
X197430007Y-149261139D01*
X197242804Y-149200312D01*
X197048399Y-149169522D01*
X197048394Y-149169522D01*
X196999806Y-149169522D01*
X184894192Y-149169522D01*
X184850022Y-149169522D01*
X184751606Y-149169522D01*
X184751601Y-149169522D01*
X184557195Y-149200312D01*
X184369992Y-149261139D01*
X184194616Y-149350498D01*
X184103763Y-149416507D01*
X184035376Y-149466194D01*
X184035374Y-149466196D01*
X184035373Y-149466196D01*
X183896196Y-149605373D01*
X183896196Y-149605374D01*
X183896194Y-149605376D01*
X183848862Y-149670522D01*
X183780498Y-149764616D01*
X183691139Y-149939992D01*
X183630312Y-150127195D01*
X183599522Y-150321600D01*
X179150478Y-150321600D01*
X179119687Y-150127195D01*
X179058860Y-149939992D01*
X179011721Y-149847477D01*
X178969502Y-149764617D01*
X178853806Y-149605376D01*
X178714624Y-149466194D01*
X178555383Y-149350498D01*
X178380007Y-149261139D01*
X178192804Y-149200312D01*
X177998399Y-149169522D01*
X177998394Y-149169522D01*
X177949806Y-149169522D01*
X165844192Y-149169522D01*
X165800022Y-149169522D01*
X165701606Y-149169522D01*
X165701601Y-149169522D01*
X165507195Y-149200312D01*
X165319992Y-149261139D01*
X165144616Y-149350498D01*
X165053763Y-149416507D01*
X164985376Y-149466194D01*
X164985374Y-149466196D01*
X164985373Y-149466196D01*
X164846196Y-149605373D01*
X164846196Y-149605374D01*
X164846194Y-149605376D01*
X164798862Y-149670522D01*
X164730498Y-149764616D01*
X164641139Y-149939992D01*
X164580312Y-150127195D01*
X164549522Y-150321600D01*
X160100478Y-150321600D01*
X160069687Y-150127195D01*
X160008860Y-149939992D01*
X159961721Y-149847477D01*
X159919502Y-149764617D01*
X159803806Y-149605376D01*
X159664624Y-149466194D01*
X159505383Y-149350498D01*
X159330007Y-149261139D01*
X159142804Y-149200312D01*
X158948399Y-149169522D01*
X158948394Y-149169522D01*
X158899806Y-149169522D01*
X146794192Y-149169522D01*
X146750022Y-149169522D01*
X146651606Y-149169522D01*
X146651601Y-149169522D01*
X146457195Y-149200312D01*
X146269992Y-149261139D01*
X146094616Y-149350498D01*
X146003763Y-149416507D01*
X145935376Y-149466194D01*
X145935374Y-149466196D01*
X145935373Y-149466196D01*
X145796196Y-149605373D01*
X145796196Y-149605374D01*
X145796194Y-149605376D01*
X145748862Y-149670522D01*
X145680498Y-149764616D01*
X145591139Y-149939992D01*
X145530312Y-150127195D01*
X145499522Y-150321600D01*
X141050478Y-150321600D01*
X141019687Y-150127195D01*
X140958860Y-149939992D01*
X140911721Y-149847477D01*
X140869502Y-149764617D01*
X140753806Y-149605376D01*
X140614624Y-149466194D01*
X140455383Y-149350498D01*
X140280007Y-149261139D01*
X140092804Y-149200312D01*
X139898399Y-149169522D01*
X139898394Y-149169522D01*
X139849806Y-149169522D01*
X127744192Y-149169522D01*
X127700022Y-149169522D01*
X127601606Y-149169522D01*
X127601601Y-149169522D01*
X127407195Y-149200312D01*
X127219992Y-149261139D01*
X127044616Y-149350498D01*
X126953763Y-149416507D01*
X126885376Y-149466194D01*
X126885374Y-149466196D01*
X126885373Y-149466196D01*
X126746196Y-149605373D01*
X126746196Y-149605374D01*
X126746194Y-149605376D01*
X126698862Y-149670522D01*
X126630498Y-149764616D01*
X126541139Y-149939992D01*
X126480312Y-150127195D01*
X126449522Y-150321600D01*
X124813000Y-150321600D01*
X124813000Y-131271600D01*
X126449522Y-131271600D01*
X126449522Y-143568399D01*
X126480312Y-143762804D01*
X126541139Y-143950007D01*
X126614082Y-144093165D01*
X126630498Y-144125383D01*
X126746194Y-144284624D01*
X126885376Y-144423806D01*
X127044617Y-144539502D01*
X127127477Y-144581721D01*
X127219992Y-144628860D01*
X127219994Y-144628860D01*
X127219997Y-144628862D01*
X127320339Y-144661465D01*
X127407195Y-144689687D01*
X127601601Y-144720478D01*
X127601606Y-144720478D01*
X139898399Y-144720478D01*
X140092804Y-144689687D01*
X140280003Y-144628862D01*
X140455383Y-144539502D01*
X140614624Y-144423806D01*
X140753806Y-144284624D01*
X140869502Y-144125383D01*
X140958862Y-143950003D01*
X141019687Y-143762804D01*
X141042907Y-143616198D01*
X141050478Y-143568399D01*
X141050478Y-131271600D01*
X145499522Y-131271600D01*
X145499522Y-143568399D01*
X145530312Y-143762804D01*
X145591139Y-143950007D01*
X145664082Y-144093165D01*
X145680498Y-144125383D01*
X145796194Y-144284624D01*
X145935376Y-144423806D01*
X146094617Y-144539502D01*
X146177477Y-144581721D01*
X146269992Y-144628860D01*
X146269994Y-144628860D01*
X146269997Y-144628862D01*
X146370339Y-144661465D01*
X146457195Y-144689687D01*
X146651601Y-144720478D01*
X146651606Y-144720478D01*
X158948399Y-144720478D01*
X159142804Y-144689687D01*
X159330003Y-144628862D01*
X159505383Y-144539502D01*
X159664624Y-144423806D01*
X159803806Y-144284624D01*
X159919502Y-144125383D01*
X160008862Y-143950003D01*
X160069687Y-143762804D01*
X160092907Y-143616198D01*
X160100478Y-143568399D01*
X160100478Y-131271600D01*
X164549522Y-131271600D01*
X164549522Y-143568399D01*
X164580312Y-143762804D01*
X164641139Y-143950007D01*
X164714082Y-144093165D01*
X164730498Y-144125383D01*
X164846194Y-144284624D01*
X164985376Y-144423806D01*
X165144617Y-144539502D01*
X165227477Y-144581721D01*
X165319992Y-144628860D01*
X165319994Y-144628860D01*
X165319997Y-144628862D01*
X165420339Y-144661465D01*
X165507195Y-144689687D01*
X165701601Y-144720478D01*
X165701606Y-144720478D01*
X177998399Y-144720478D01*
X178192804Y-144689687D01*
X178380003Y-144628862D01*
X178555383Y-144539502D01*
X178714624Y-144423806D01*
X178853806Y-144284624D01*
X178969502Y-144125383D01*
X179058862Y-143950003D01*
X179119687Y-143762804D01*
X179142907Y-143616198D01*
X179150478Y-143568399D01*
X179150478Y-131271600D01*
X183599522Y-131271600D01*
X183599522Y-143568399D01*
X183630312Y-143762804D01*
X183691139Y-143950007D01*
X183764082Y-144093165D01*
X183780498Y-144125383D01*
X183896194Y-144284624D01*
X184035376Y-144423806D01*
X184194617Y-144539502D01*
X184277477Y-144581721D01*
X184369992Y-144628860D01*
X184369994Y-144628860D01*
X184369997Y-144628862D01*
X184470339Y-144661465D01*
X184557195Y-144689687D01*
X184751601Y-144720478D01*
X184751606Y-144720478D01*
X197048399Y-144720478D01*
X197242804Y-144689687D01*
X197430003Y-144628862D01*
X197605383Y-144539502D01*
X197764624Y-144423806D01*
X197903806Y-144284624D01*
X198019502Y-144125383D01*
X198108862Y-143950003D01*
X198169687Y-143762804D01*
X198192907Y-143616198D01*
X198200478Y-143568399D01*
X198200478Y-131271600D01*
X202649522Y-131271600D01*
X202649522Y-143568399D01*
X202680312Y-143762804D01*
X202741139Y-143950007D01*
X202814082Y-144093165D01*
X202830498Y-144125383D01*
X202946194Y-144284624D01*
X203085376Y-144423806D01*
X203244617Y-144539502D01*
X203327477Y-144581721D01*
X203419992Y-144628860D01*
X203419994Y-144628860D01*
X203419997Y-144628862D01*
X203520339Y-144661465D01*
X203607195Y-144689687D01*
X203801601Y-144720478D01*
X203801606Y-144720478D01*
X216098399Y-144720478D01*
X216292804Y-144689687D01*
X216480003Y-144628862D01*
X216655383Y-144539502D01*
X216814624Y-144423806D01*
X216953806Y-144284624D01*
X217069502Y-144125383D01*
X217158862Y-143950003D01*
X217219687Y-143762804D01*
X217242907Y-143616198D01*
X217250478Y-143568399D01*
X217250478Y-131271600D01*
X221699522Y-131271600D01*
X221699522Y-143568399D01*
X221730312Y-143762804D01*
X221791139Y-143950007D01*
X221864082Y-144093165D01*
X221880498Y-144125383D01*
X221996194Y-144284624D01*
X222135376Y-144423806D01*
X222294617Y-144539502D01*
X222377477Y-144581721D01*
X222469992Y-144628860D01*
X222469994Y-144628860D01*
X222469997Y-144628862D01*
X222570339Y-144661465D01*
X222657195Y-144689687D01*
X222851601Y-144720478D01*
X222851606Y-144720478D01*
X235148399Y-144720478D01*
X235342804Y-144689687D01*
X235530003Y-144628862D01*
X235705383Y-144539502D01*
X235864624Y-144423806D01*
X236003806Y-144284624D01*
X236119502Y-144125383D01*
X236208862Y-143950003D01*
X236269687Y-143762804D01*
X236292907Y-143616198D01*
X236300478Y-143568399D01*
X236300478Y-131271600D01*
X240749522Y-131271600D01*
X240749522Y-143568399D01*
X240780312Y-143762804D01*
X240841139Y-143950007D01*
X240914082Y-144093165D01*
X240930498Y-144125383D01*
X241046194Y-144284624D01*
X241185376Y-144423806D01*
X241344617Y-144539502D01*
X241427477Y-144581721D01*
X241519992Y-144628860D01*
X241519994Y-144628860D01*
X241519997Y-144628862D01*
X241620339Y-144661465D01*
X241707195Y-144689687D01*
X241901601Y-144720478D01*
X241901606Y-144720478D01*
X254198399Y-144720478D01*
X254392804Y-144689687D01*
X254580003Y-144628862D01*
X254755383Y-144539502D01*
X254914624Y-144423806D01*
X255053806Y-144284624D01*
X255169502Y-144125383D01*
X255258862Y-143950003D01*
X255319687Y-143762804D01*
X255342907Y-143616198D01*
X255350478Y-143568399D01*
X255350478Y-131271600D01*
X259799522Y-131271600D01*
X259799522Y-143568399D01*
X259830312Y-143762804D01*
X259891139Y-143950007D01*
X259964082Y-144093165D01*
X259980498Y-144125383D01*
X260096194Y-144284624D01*
X260235376Y-144423806D01*
X260394617Y-144539502D01*
X260477477Y-144581721D01*
X260569992Y-144628860D01*
X260569994Y-144628860D01*
X260569997Y-144628862D01*
X260670339Y-144661465D01*
X260757195Y-144689687D01*
X260951601Y-144720478D01*
X260951606Y-144720478D01*
X273248399Y-144720478D01*
X273442804Y-144689687D01*
X273630003Y-144628862D01*
X273805383Y-144539502D01*
X273964624Y-144423806D01*
X274103806Y-144284624D01*
X274219502Y-144125383D01*
X274308862Y-143950003D01*
X274369687Y-143762804D01*
X274392907Y-143616198D01*
X274400478Y-143568399D01*
X274400478Y-131271600D01*
X274369687Y-131077195D01*
X274308860Y-130889992D01*
X274261721Y-130797477D01*
X274219502Y-130714617D01*
X274103806Y-130555376D01*
X273964624Y-130416194D01*
X273805383Y-130300498D01*
X273630007Y-130211139D01*
X273442804Y-130150312D01*
X273248399Y-130119522D01*
X273248394Y-130119522D01*
X273199806Y-130119522D01*
X261094192Y-130119522D01*
X261050022Y-130119522D01*
X260951606Y-130119522D01*
X260951601Y-130119522D01*
X260757195Y-130150312D01*
X260569992Y-130211139D01*
X260394616Y-130300498D01*
X260303763Y-130366507D01*
X260235376Y-130416194D01*
X260235374Y-130416196D01*
X260235373Y-130416196D01*
X260096196Y-130555373D01*
X260096196Y-130555374D01*
X260096194Y-130555376D01*
X260048862Y-130620522D01*
X259980498Y-130714616D01*
X259891139Y-130889992D01*
X259830312Y-131077195D01*
X259799522Y-131271600D01*
X255350478Y-131271600D01*
X255319687Y-131077195D01*
X255258860Y-130889992D01*
X255211721Y-130797477D01*
X255169502Y-130714617D01*
X255053806Y-130555376D01*
X254914624Y-130416194D01*
X254755383Y-130300498D01*
X254580007Y-130211139D01*
X254392804Y-130150312D01*
X254198399Y-130119522D01*
X254198394Y-130119522D01*
X254149806Y-130119522D01*
X242044192Y-130119522D01*
X242000022Y-130119522D01*
X241901606Y-130119522D01*
X241901601Y-130119522D01*
X241707195Y-130150312D01*
X241519992Y-130211139D01*
X241344616Y-130300498D01*
X241253763Y-130366507D01*
X241185376Y-130416194D01*
X241185374Y-130416196D01*
X241185373Y-130416196D01*
X241046196Y-130555373D01*
X241046196Y-130555374D01*
X241046194Y-130555376D01*
X240998862Y-130620522D01*
X240930498Y-130714616D01*
X240841139Y-130889992D01*
X240780312Y-131077195D01*
X240749522Y-131271600D01*
X236300478Y-131271600D01*
X236269687Y-131077195D01*
X236208860Y-130889992D01*
X236161721Y-130797477D01*
X236119502Y-130714617D01*
X236003806Y-130555376D01*
X235864624Y-130416194D01*
X235705383Y-130300498D01*
X235530007Y-130211139D01*
X235342804Y-130150312D01*
X235148399Y-130119522D01*
X235148394Y-130119522D01*
X235099806Y-130119522D01*
X222994192Y-130119522D01*
X222950022Y-130119522D01*
X222851606Y-130119522D01*
X222851601Y-130119522D01*
X222657195Y-130150312D01*
X222469992Y-130211139D01*
X222294616Y-130300498D01*
X222203763Y-130366507D01*
X222135376Y-130416194D01*
X222135374Y-130416196D01*
X222135373Y-130416196D01*
X221996196Y-130555373D01*
X221996196Y-130555374D01*
X221996194Y-130555376D01*
X221948862Y-130620522D01*
X221880498Y-130714616D01*
X221791139Y-130889992D01*
X221730312Y-131077195D01*
X221699522Y-131271600D01*
X217250478Y-131271600D01*
X217219687Y-131077195D01*
X217158860Y-130889992D01*
X217111721Y-130797477D01*
X217069502Y-130714617D01*
X216953806Y-130555376D01*
X216814624Y-130416194D01*
X216655383Y-130300498D01*
X216480007Y-130211139D01*
X216292804Y-130150312D01*
X216098399Y-130119522D01*
X216098394Y-130119522D01*
X216049806Y-130119522D01*
X203944192Y-130119522D01*
X203900022Y-130119522D01*
X203801606Y-130119522D01*
X203801601Y-130119522D01*
X203607195Y-130150312D01*
X203419992Y-130211139D01*
X203244616Y-130300498D01*
X203153763Y-130366507D01*
X203085376Y-130416194D01*
X203085374Y-130416196D01*
X203085373Y-130416196D01*
X202946196Y-130555373D01*
X202946196Y-130555374D01*
X202946194Y-130555376D01*
X202898862Y-130620522D01*
X202830498Y-130714616D01*
X202741139Y-130889992D01*
X202680312Y-131077195D01*
X202649522Y-131271600D01*
X198200478Y-131271600D01*
X198169687Y-131077195D01*
X198108860Y-130889992D01*
X198061721Y-130797477D01*
X198019502Y-130714617D01*
X197903806Y-130555376D01*
X197764624Y-130416194D01*
X197605383Y-130300498D01*
X197430007Y-130211139D01*
X197242804Y-130150312D01*
X197048399Y-130119522D01*
X197048394Y-130119522D01*
X196999806Y-130119522D01*
X184894192Y-130119522D01*
X184850022Y-130119522D01*
X184751606Y-130119522D01*
X184751601Y-130119522D01*
X184557195Y-130150312D01*
X184369992Y-130211139D01*
X184194616Y-130300498D01*
X184103763Y-130366507D01*
X184035376Y-130416194D01*
X184035374Y-130416196D01*
X184035373Y-130416196D01*
X183896196Y-130555373D01*
X183896196Y-130555374D01*
X183896194Y-130555376D01*
X183848862Y-130620522D01*
X183780498Y-130714616D01*
X183691139Y-130889992D01*
X183630312Y-131077195D01*
X183599522Y-131271600D01*
X179150478Y-131271600D01*
X179119687Y-131077195D01*
X179058860Y-130889992D01*
X179011721Y-130797477D01*
X178969502Y-130714617D01*
X178853806Y-130555376D01*
X178714624Y-130416194D01*
X178555383Y-130300498D01*
X178380007Y-130211139D01*
X178192804Y-130150312D01*
X177998399Y-130119522D01*
X177998394Y-130119522D01*
X177949806Y-130119522D01*
X165844192Y-130119522D01*
X165800022Y-130119522D01*
X165701606Y-130119522D01*
X165701601Y-130119522D01*
X165507195Y-130150312D01*
X165319992Y-130211139D01*
X165144616Y-130300498D01*
X165053763Y-130366507D01*
X164985376Y-130416194D01*
X164985374Y-130416196D01*
X164985373Y-130416196D01*
X164846196Y-130555373D01*
X164846196Y-130555374D01*
X164846194Y-130555376D01*
X164798862Y-130620522D01*
X164730498Y-130714616D01*
X164641139Y-130889992D01*
X164580312Y-131077195D01*
X164549522Y-131271600D01*
X160100478Y-131271600D01*
X160069687Y-131077195D01*
X160008860Y-130889992D01*
X159961721Y-130797477D01*
X159919502Y-130714617D01*
X159803806Y-130555376D01*
X159664624Y-130416194D01*
X159505383Y-130300498D01*
X159330007Y-130211139D01*
X159142804Y-130150312D01*
X158948399Y-130119522D01*
X158948394Y-130119522D01*
X158899806Y-130119522D01*
X146794192Y-130119522D01*
X146750022Y-130119522D01*
X146651606Y-130119522D01*
X146651601Y-130119522D01*
X146457195Y-130150312D01*
X146269992Y-130211139D01*
X146094616Y-130300498D01*
X146003763Y-130366507D01*
X145935376Y-130416194D01*
X145935374Y-130416196D01*
X145935373Y-130416196D01*
X145796196Y-130555373D01*
X145796196Y-130555374D01*
X145796194Y-130555376D01*
X145748862Y-130620522D01*
X145680498Y-130714616D01*
X145591139Y-130889992D01*
X145530312Y-131077195D01*
X145499522Y-131271600D01*
X141050478Y-131271600D01*
X141019687Y-131077195D01*
X140958860Y-130889992D01*
X140911721Y-130797477D01*
X140869502Y-130714617D01*
X140753806Y-130555376D01*
X140614624Y-130416194D01*
X140455383Y-130300498D01*
X140280007Y-130211139D01*
X140092804Y-130150312D01*
X139898399Y-130119522D01*
X139898394Y-130119522D01*
X139849806Y-130119522D01*
X127744192Y-130119522D01*
X127700022Y-130119522D01*
X127601606Y-130119522D01*
X127601601Y-130119522D01*
X127407195Y-130150312D01*
X127219992Y-130211139D01*
X127044616Y-130300498D01*
X126953763Y-130366507D01*
X126885376Y-130416194D01*
X126885374Y-130416196D01*
X126885373Y-130416196D01*
X126746196Y-130555373D01*
X126746196Y-130555374D01*
X126746194Y-130555376D01*
X126698862Y-130620522D01*
X126630498Y-130714616D01*
X126541139Y-130889992D01*
X126480312Y-131077195D01*
X126449522Y-131271600D01*
X124813000Y-131271600D01*
X124813000Y-127788713D01*
X141924500Y-127788713D01*
X141924500Y-127811734D01*
X141924500Y-128001287D01*
X141957754Y-128211243D01*
X141985115Y-128295452D01*
X142023444Y-128413414D01*
X142119951Y-128602820D01*
X142244890Y-128774786D01*
X142395213Y-128925109D01*
X142567179Y-129050048D01*
X142567181Y-129050049D01*
X142567184Y-129050051D01*
X142756588Y-129146557D01*
X142958757Y-129212246D01*
X143168713Y-129245500D01*
X143168714Y-129245500D01*
X143381286Y-129245500D01*
X143381287Y-129245500D01*
X143591243Y-129212246D01*
X143793412Y-129146557D01*
X143982816Y-129050051D01*
X144004789Y-129034086D01*
X144154786Y-128925109D01*
X144154788Y-128925106D01*
X144154792Y-128925104D01*
X144305104Y-128774792D01*
X144305106Y-128774788D01*
X144305109Y-128774786D01*
X144430048Y-128602820D01*
X144430047Y-128602820D01*
X144430051Y-128602816D01*
X144526557Y-128413412D01*
X144592246Y-128211243D01*
X144625500Y-128001287D01*
X144625500Y-127788713D01*
X256224500Y-127788713D01*
X256224500Y-127811734D01*
X256224500Y-128001287D01*
X256257754Y-128211243D01*
X256285115Y-128295452D01*
X256323444Y-128413414D01*
X256419951Y-128602820D01*
X256544890Y-128774786D01*
X256695213Y-128925109D01*
X256867179Y-129050048D01*
X256867181Y-129050049D01*
X256867184Y-129050051D01*
X257056588Y-129146557D01*
X257258757Y-129212246D01*
X257468713Y-129245500D01*
X257468714Y-129245500D01*
X257681286Y-129245500D01*
X257681287Y-129245500D01*
X257891243Y-129212246D01*
X258093412Y-129146557D01*
X258282816Y-129050051D01*
X258304789Y-129034086D01*
X258454786Y-128925109D01*
X258454788Y-128925106D01*
X258454792Y-128925104D01*
X258605104Y-128774792D01*
X258605106Y-128774788D01*
X258605109Y-128774786D01*
X258730048Y-128602820D01*
X258730047Y-128602820D01*
X258730051Y-128602816D01*
X258826557Y-128413412D01*
X258892246Y-128211243D01*
X258925500Y-128001287D01*
X258925500Y-127788713D01*
X258892246Y-127578757D01*
X258826557Y-127376588D01*
X258730051Y-127187184D01*
X258730049Y-127187181D01*
X258730048Y-127187179D01*
X258605109Y-127015213D01*
X258454786Y-126864890D01*
X258282820Y-126739951D01*
X258093414Y-126643444D01*
X258093413Y-126643443D01*
X258093412Y-126643443D01*
X257891243Y-126577754D01*
X257891241Y-126577753D01*
X257891240Y-126577753D01*
X257729957Y-126552208D01*
X257681287Y-126544500D01*
X257468713Y-126544500D01*
X257420042Y-126552208D01*
X257258760Y-126577753D01*
X257056585Y-126643444D01*
X256867179Y-126739951D01*
X256695213Y-126864890D01*
X256544890Y-127015213D01*
X256419951Y-127187179D01*
X256323444Y-127376585D01*
X256257753Y-127578760D01*
X256246723Y-127648403D01*
X256224500Y-127788713D01*
X144625500Y-127788713D01*
X144592246Y-127578757D01*
X144526557Y-127376588D01*
X144430051Y-127187184D01*
X144430049Y-127187181D01*
X144430048Y-127187179D01*
X144305109Y-127015213D01*
X144154786Y-126864890D01*
X143982820Y-126739951D01*
X143793414Y-126643444D01*
X143793413Y-126643443D01*
X143793412Y-126643443D01*
X143591243Y-126577754D01*
X143591241Y-126577753D01*
X143591240Y-126577753D01*
X143429957Y-126552208D01*
X143381287Y-126544500D01*
X143168713Y-126544500D01*
X143120042Y-126552208D01*
X142958760Y-126577753D01*
X142756585Y-126643444D01*
X142567179Y-126739951D01*
X142395213Y-126864890D01*
X142244890Y-127015213D01*
X142119951Y-127187179D01*
X142023444Y-127376585D01*
X141957753Y-127578760D01*
X141946723Y-127648403D01*
X141924500Y-127788713D01*
X124813000Y-127788713D01*
X124813000Y-112221600D01*
X126449522Y-112221600D01*
X126449522Y-124518399D01*
X126480312Y-124712804D01*
X126541139Y-124900007D01*
X126614082Y-125043164D01*
X126630498Y-125075383D01*
X126746194Y-125234624D01*
X126885376Y-125373806D01*
X127044617Y-125489502D01*
X127127477Y-125531721D01*
X127219992Y-125578860D01*
X127219994Y-125578860D01*
X127219997Y-125578862D01*
X127320339Y-125611465D01*
X127407195Y-125639687D01*
X127601601Y-125670478D01*
X127601606Y-125670478D01*
X139898399Y-125670478D01*
X140092804Y-125639687D01*
X140092810Y-125639685D01*
X140280003Y-125578862D01*
X140455383Y-125489502D01*
X140614624Y-125373806D01*
X140753806Y-125234624D01*
X140869502Y-125075383D01*
X140958862Y-124900003D01*
X141019687Y-124712804D01*
X141020638Y-124706799D01*
X141050478Y-124518399D01*
X141050478Y-112378596D01*
X145499521Y-112378596D01*
X145499522Y-112378605D01*
X145499523Y-124375808D01*
X145499523Y-124518400D01*
X145530313Y-124712805D01*
X145591140Y-124900008D01*
X145664083Y-125043165D01*
X145680499Y-125075383D01*
X145796195Y-125234624D01*
X145935377Y-125373806D01*
X146094618Y-125489502D01*
X146180636Y-125533330D01*
X146269996Y-125578862D01*
X146269999Y-125578863D01*
X146363596Y-125609274D01*
X146457196Y-125639686D01*
X146547236Y-125653946D01*
X146651601Y-125670477D01*
X146651606Y-125670477D01*
X146700194Y-125670477D01*
X254031143Y-125670477D01*
X254055807Y-125670477D01*
X254055808Y-125670478D01*
X254099977Y-125670478D01*
X254198393Y-125670479D01*
X254392800Y-125639688D01*
X254579997Y-125578865D01*
X254755375Y-125489508D01*
X254914615Y-125373815D01*
X255053797Y-125234636D01*
X255169493Y-125075399D01*
X255258855Y-124900023D01*
X255258862Y-124900003D01*
X255319682Y-124712826D01*
X255319685Y-124712805D01*
X255350476Y-124518420D01*
X255350476Y-124494494D01*
X255350476Y-124469829D01*
X255350478Y-124469828D01*
X255350478Y-124419978D01*
X255350479Y-124375835D01*
X255350478Y-124375833D01*
X255350478Y-124357484D01*
X255350476Y-124357476D01*
X255350476Y-112364167D01*
X255350477Y-112364165D01*
X255350477Y-112319995D01*
X255350475Y-112221600D01*
X259799522Y-112221600D01*
X259799522Y-124518399D01*
X259830312Y-124712804D01*
X259891139Y-124900007D01*
X259964082Y-125043164D01*
X259980498Y-125075383D01*
X260096194Y-125234624D01*
X260235376Y-125373806D01*
X260394617Y-125489502D01*
X260477477Y-125531721D01*
X260569992Y-125578860D01*
X260569994Y-125578860D01*
X260569997Y-125578862D01*
X260670339Y-125611465D01*
X260757195Y-125639687D01*
X260951601Y-125670478D01*
X260951606Y-125670478D01*
X273248399Y-125670478D01*
X273442804Y-125639687D01*
X273442810Y-125639685D01*
X273630003Y-125578862D01*
X273805383Y-125489502D01*
X273964624Y-125373806D01*
X274103806Y-125234624D01*
X274219502Y-125075383D01*
X274308862Y-124900003D01*
X274369687Y-124712804D01*
X274370638Y-124706799D01*
X274400478Y-124518399D01*
X274400478Y-112221600D01*
X274369687Y-112027195D01*
X274329535Y-111903622D01*
X274308862Y-111839997D01*
X274308860Y-111839994D01*
X274308860Y-111839992D01*
X274261721Y-111747477D01*
X274219502Y-111664617D01*
X274103806Y-111505376D01*
X273964624Y-111366194D01*
X273805383Y-111250498D01*
X273805369Y-111250491D01*
X273630007Y-111161139D01*
X273442804Y-111100312D01*
X273248399Y-111069522D01*
X273248394Y-111069522D01*
X273199806Y-111069522D01*
X261094192Y-111069522D01*
X261050022Y-111069522D01*
X260951606Y-111069522D01*
X260951601Y-111069522D01*
X260757195Y-111100312D01*
X260569992Y-111161139D01*
X260394616Y-111250498D01*
X260303763Y-111316507D01*
X260235376Y-111366194D01*
X260235374Y-111366196D01*
X260235373Y-111366196D01*
X260096196Y-111505373D01*
X260096196Y-111505374D01*
X260096194Y-111505376D01*
X260048862Y-111570522D01*
X259980498Y-111664616D01*
X259891139Y-111839992D01*
X259830312Y-112027195D01*
X259799522Y-112221600D01*
X255350475Y-112221600D01*
X255350475Y-112221580D01*
X255320634Y-112033189D01*
X255319681Y-112027173D01*
X255258855Y-111839981D01*
X255258854Y-111839978D01*
X255169491Y-111664599D01*
X255053801Y-111505370D01*
X255053800Y-111505368D01*
X254914616Y-111366186D01*
X254755376Y-111250494D01*
X254666017Y-111204963D01*
X254579998Y-111161135D01*
X254392804Y-111100313D01*
X254198399Y-111069523D01*
X254198395Y-111069523D01*
X254149828Y-111069523D01*
X146794192Y-111069522D01*
X146750022Y-111069522D01*
X146651607Y-111069522D01*
X146651603Y-111069522D01*
X146457199Y-111100312D01*
X146457196Y-111100312D01*
X146270003Y-111161134D01*
X146094628Y-111250491D01*
X145935381Y-111366188D01*
X145796206Y-111505360D01*
X145796203Y-111505363D01*
X145680506Y-111664602D01*
X145591145Y-111839977D01*
X145591144Y-111839980D01*
X145530319Y-112027170D01*
X145530319Y-112027171D01*
X145499523Y-112221582D01*
X145499523Y-112260171D01*
X145499523Y-112270169D01*
X145499522Y-112270172D01*
X145499522Y-112291746D01*
X145499522Y-112319994D01*
X145499521Y-112378596D01*
X141050478Y-112378596D01*
X141050478Y-112221600D01*
X141019687Y-112027195D01*
X140979535Y-111903622D01*
X140958862Y-111839997D01*
X140958860Y-111839994D01*
X140958860Y-111839992D01*
X140911721Y-111747477D01*
X140869502Y-111664617D01*
X140753806Y-111505376D01*
X140614624Y-111366194D01*
X140455383Y-111250498D01*
X140455369Y-111250491D01*
X140280007Y-111161139D01*
X140092804Y-111100312D01*
X139898399Y-111069522D01*
X139898394Y-111069522D01*
X139849806Y-111069522D01*
X127744192Y-111069522D01*
X127700022Y-111069522D01*
X127601606Y-111069522D01*
X127601601Y-111069522D01*
X127407195Y-111100312D01*
X127219992Y-111161139D01*
X127044616Y-111250498D01*
X126953763Y-111316507D01*
X126885376Y-111366194D01*
X126885374Y-111366196D01*
X126885373Y-111366196D01*
X126746196Y-111505373D01*
X126746196Y-111505374D01*
X126746194Y-111505376D01*
X126698862Y-111570522D01*
X126630498Y-111664616D01*
X126541139Y-111839992D01*
X126480312Y-112027195D01*
X126449522Y-112221600D01*
X124813000Y-112221600D01*
X124813000Y-111049566D01*
X124813265Y-111041457D01*
X124822715Y-110897272D01*
X124829147Y-110799128D01*
X124831261Y-110783076D01*
X124877845Y-110548888D01*
X124882037Y-110533245D01*
X124958788Y-110307141D01*
X124964983Y-110292186D01*
X125070592Y-110078030D01*
X125078692Y-110064001D01*
X125211350Y-109865466D01*
X125221207Y-109852619D01*
X125378641Y-109673099D01*
X125390099Y-109661641D01*
X125569619Y-109504207D01*
X125582466Y-109494350D01*
X125781001Y-109361692D01*
X125795030Y-109353592D01*
X126009186Y-109247983D01*
X126024141Y-109241788D01*
X126250245Y-109165037D01*
X126265888Y-109160845D01*
X126500076Y-109114261D01*
X126516130Y-109112147D01*
X126738106Y-109097598D01*
X126758458Y-109096265D01*
X126766567Y-109096000D01*
X126806670Y-109096000D01*
X274043330Y-109096000D01*
X274083433Y-109096000D01*
X274091542Y-109096265D01*
G37*
%TD.AperFunction*%
%TD*%
M02*
