%TF.GenerationSoftware,KiCad,Pcbnew,9.0.8-9.0.8~ubuntu24.04.1*%
%TF.CreationDate,2026-04-17T22:54:38+08:00*%
%TF.ProjectId,plate,706c6174-652e-46b6-9963-61645f706362,rev?*%
%TF.SameCoordinates,Original*%
%TF.FileFunction,Profile,NP*%
%FSLAX46Y46*%
G04 Gerber Fmt 4.6, Leading zero omitted, Abs format (unit mm)*
G04 Created by KiCad (PCBNEW 9.0.8-9.0.8~ubuntu24.04.1) date 2026-04-17 22:54:38*
%MOMM*%
%LPD*%
G01*
G04 APERTURE LIST*
%TA.AperFunction,Profile*%
%ADD10C,0.050000*%
%TD*%
G04 APERTURE END LIST*
D10*
X124562500Y-111045500D02*
X124562500Y-182844500D01*
X124562500Y-111045500D02*
G75*
G02*
X126762500Y-108845500I2200000J0D01*
G01*
X126762500Y-108845500D02*
X274087500Y-108845500D01*
X126762500Y-185044500D02*
G75*
G02*
X124562500Y-182844500I0J2200000D01*
G01*
X126762500Y-185044500D02*
X274087500Y-185044500D01*
X144375000Y-127895000D02*
G75*
G02*
X142175000Y-127895000I-1100000J0D01*
G01*
X142175000Y-127895000D02*
G75*
G02*
X144375000Y-127895000I1100000J0D01*
G01*
X144375000Y-165995000D02*
G75*
G02*
X142175000Y-165995000I-1100000J0D01*
G01*
X142175000Y-165995000D02*
G75*
G02*
X144375000Y-165995000I1100000J0D01*
G01*
X145750022Y-112320000D02*
X145750023Y-124419979D01*
X145750022Y-112320000D02*
G75*
G02*
X146750022Y-111320022I999978J0D01*
G01*
X145750022Y-169470001D02*
X145750022Y-181569978D01*
X145750022Y-169470001D02*
G75*
G02*
X146750022Y-168470022I999978J1D01*
G01*
X146750022Y-125419977D02*
G75*
G02*
X145750023Y-124419979I-22J999977D01*
G01*
X146750022Y-125419977D02*
X254099978Y-125419978D01*
X146750022Y-182569978D02*
G75*
G02*
X145750022Y-181569978I-22J999978D01*
G01*
X146750022Y-182569978D02*
X254100000Y-182569978D01*
X254099980Y-111320023D02*
G75*
G02*
X255099977Y-112320000I20J-999977D01*
G01*
X254099980Y-168470023D02*
G75*
G02*
X255099977Y-169470022I20J-999977D01*
G01*
X254100000Y-111320023D02*
X146750022Y-111320022D01*
X254100000Y-168470023D02*
X146750022Y-168470023D01*
X255099978Y-124420000D02*
G75*
G02*
X254099978Y-125419978I-999978J0D01*
G01*
X255099978Y-124420000D02*
X255099976Y-112320020D01*
X255099977Y-169470022D02*
X255099978Y-181570000D01*
X255099978Y-181570000D02*
G75*
G02*
X254100000Y-182569978I-999978J0D01*
G01*
X258675000Y-127895000D02*
G75*
G02*
X256475000Y-127895000I-1100000J0D01*
G01*
X256475000Y-127895000D02*
G75*
G02*
X258675000Y-127895000I1100000J0D01*
G01*
X258675000Y-165995000D02*
G75*
G02*
X256475000Y-165995000I-1100000J0D01*
G01*
X256475000Y-165995000D02*
G75*
G02*
X258675000Y-165995000I1100000J0D01*
G01*
X274087500Y-108845500D02*
G75*
G02*
X276287500Y-111045500I0J-2200000D01*
G01*
X276287500Y-182844500D02*
G75*
G02*
X274087500Y-185044500I-2200000J0D01*
G01*
X276287500Y-182844500D02*
X276287500Y-111045500D01*
%TO.C,K9*%
X126700022Y-112320022D02*
X126700022Y-124419978D01*
X127700022Y-111320022D02*
X139799978Y-111320022D01*
X127700022Y-125419978D02*
X139799978Y-125419978D01*
X140799978Y-112320022D02*
X140799978Y-124419978D01*
X126700022Y-112320022D02*
G75*
G02*
X127700022Y-111320022I999999J1D01*
G01*
X127700022Y-125419978D02*
G75*
G02*
X126700022Y-124419978I-1J999999D01*
G01*
X139799978Y-111320022D02*
G75*
G02*
X140799978Y-112320022I2J-999998D01*
G01*
X140799978Y-124419978D02*
G75*
G02*
X139799978Y-125419978I-999998J-2D01*
G01*
%TO.C,K11*%
X126700022Y-150420022D02*
X126700022Y-162519978D01*
X127700022Y-149420022D02*
X139799978Y-149420022D01*
X127700022Y-163519978D02*
X139799978Y-163519978D01*
X140799978Y-150420022D02*
X140799978Y-162519978D01*
X126700022Y-150420022D02*
G75*
G02*
X127700022Y-149420022I999999J1D01*
G01*
X127700022Y-163519978D02*
G75*
G02*
X126700022Y-162519978I-1J999999D01*
G01*
X139799978Y-149420022D02*
G75*
G02*
X140799978Y-150420022I2J-999998D01*
G01*
X140799978Y-162519978D02*
G75*
G02*
X139799978Y-163519978I-999998J-2D01*
G01*
%TO.C,K30*%
X221950022Y-131370022D02*
X221950022Y-143469978D01*
X222950022Y-130370022D02*
X235049978Y-130370022D01*
X222950022Y-144469978D02*
X235049978Y-144469978D01*
X236049978Y-131370022D02*
X236049978Y-143469978D01*
X221950022Y-131370022D02*
G75*
G02*
X222950022Y-130370022I999999J1D01*
G01*
X222950022Y-144469978D02*
G75*
G02*
X221950022Y-143469978I-1J999999D01*
G01*
X235049978Y-130370022D02*
G75*
G02*
X236049978Y-131370022I2J-999998D01*
G01*
X236049978Y-143469978D02*
G75*
G02*
X235049978Y-144469978I-999998J-2D01*
G01*
%TO.C,K27*%
X202900022Y-150420022D02*
X202900022Y-162519978D01*
X203900022Y-149420022D02*
X215999978Y-149420022D01*
X203900022Y-163519978D02*
X215999978Y-163519978D01*
X216999978Y-150420022D02*
X216999978Y-162519978D01*
X202900022Y-150420022D02*
G75*
G02*
X203900022Y-149420022I999999J1D01*
G01*
X203900022Y-163519978D02*
G75*
G02*
X202900022Y-162519978I-1J999999D01*
G01*
X215999978Y-149420022D02*
G75*
G02*
X216999978Y-150420022I2J-999998D01*
G01*
X216999978Y-162519978D02*
G75*
G02*
X215999978Y-163519978I-999998J-2D01*
G01*
%TO.C,K34*%
X241000022Y-131370022D02*
X241000022Y-143469978D01*
X242000022Y-130370022D02*
X254099978Y-130370022D01*
X242000022Y-144469978D02*
X254099978Y-144469978D01*
X255099978Y-131370022D02*
X255099978Y-143469978D01*
X241000022Y-131370022D02*
G75*
G02*
X242000022Y-130370022I999999J1D01*
G01*
X242000022Y-144469978D02*
G75*
G02*
X241000022Y-143469978I-1J999999D01*
G01*
X254099978Y-130370022D02*
G75*
G02*
X255099978Y-131370022I2J-999998D01*
G01*
X255099978Y-143469978D02*
G75*
G02*
X254099978Y-144469978I-999998J-2D01*
G01*
%TO.C,K35*%
X241000022Y-150420022D02*
X241000022Y-162519978D01*
X242000022Y-149420022D02*
X254099978Y-149420022D01*
X242000022Y-163519978D02*
X254099978Y-163519978D01*
X255099978Y-150420022D02*
X255099978Y-162519978D01*
X241000022Y-150420022D02*
G75*
G02*
X242000022Y-149420022I999999J1D01*
G01*
X242000022Y-163519978D02*
G75*
G02*
X241000022Y-162519978I-1J999999D01*
G01*
X254099978Y-149420022D02*
G75*
G02*
X255099978Y-150420022I2J-999998D01*
G01*
X255099978Y-162519978D02*
G75*
G02*
X254099978Y-163519978I-999998J-2D01*
G01*
%TO.C,K37*%
X260050022Y-112320022D02*
X260050022Y-124419978D01*
X261050022Y-111320022D02*
X273149978Y-111320022D01*
X261050022Y-125419978D02*
X273149978Y-125419978D01*
X274149978Y-112320022D02*
X274149978Y-124419978D01*
X260050022Y-112320022D02*
G75*
G02*
X261050022Y-111320022I999999J1D01*
G01*
X261050022Y-125419978D02*
G75*
G02*
X260050022Y-124419978I-1J999999D01*
G01*
X273149978Y-111320022D02*
G75*
G02*
X274149978Y-112320022I2J-999998D01*
G01*
X274149978Y-124419978D02*
G75*
G02*
X273149978Y-125419978I-999998J-2D01*
G01*
%TO.C,K38*%
X260050022Y-131370022D02*
X260050022Y-143469978D01*
X261050022Y-130370022D02*
X273149978Y-130370022D01*
X261050022Y-144469978D02*
X273149978Y-144469978D01*
X274149978Y-131370022D02*
X274149978Y-143469978D01*
X260050022Y-131370022D02*
G75*
G02*
X261050022Y-130370022I999999J1D01*
G01*
X261050022Y-144469978D02*
G75*
G02*
X260050022Y-143469978I-1J999999D01*
G01*
X273149978Y-130370022D02*
G75*
G02*
X274149978Y-131370022I2J-999998D01*
G01*
X274149978Y-143469978D02*
G75*
G02*
X273149978Y-144469978I-999998J-2D01*
G01*
%TO.C,K14*%
X145750022Y-131370022D02*
X145750022Y-143469978D01*
X146750022Y-130370022D02*
X158849978Y-130370022D01*
X146750022Y-144469978D02*
X158849978Y-144469978D01*
X159849978Y-131370022D02*
X159849978Y-143469978D01*
X145750022Y-131370022D02*
G75*
G02*
X146750022Y-130370022I999999J1D01*
G01*
X146750022Y-144469978D02*
G75*
G02*
X145750022Y-143469978I-1J999999D01*
G01*
X158849978Y-130370022D02*
G75*
G02*
X159849978Y-131370022I2J-999998D01*
G01*
X159849978Y-143469978D02*
G75*
G02*
X158849978Y-144469978I-999998J-2D01*
G01*
%TO.C,K39*%
X260050022Y-150420022D02*
X260050022Y-162519978D01*
X261050022Y-149420022D02*
X273149978Y-149420022D01*
X261050022Y-163519978D02*
X273149978Y-163519978D01*
X274149978Y-150420022D02*
X274149978Y-162519978D01*
X260050022Y-150420022D02*
G75*
G02*
X261050022Y-149420022I999999J1D01*
G01*
X261050022Y-163519978D02*
G75*
G02*
X260050022Y-162519978I-1J999999D01*
G01*
X273149978Y-149420022D02*
G75*
G02*
X274149978Y-150420022I2J-999998D01*
G01*
X274149978Y-162519978D02*
G75*
G02*
X273149978Y-163519978I-999998J-2D01*
G01*
%TO.C,K10*%
X126700022Y-131370022D02*
X126700022Y-143469978D01*
X127700022Y-130370022D02*
X139799978Y-130370022D01*
X127700022Y-144469978D02*
X139799978Y-144469978D01*
X140799978Y-131370022D02*
X140799978Y-143469978D01*
X126700022Y-131370022D02*
G75*
G02*
X127700022Y-130370022I999999J1D01*
G01*
X127700022Y-144469978D02*
G75*
G02*
X126700022Y-143469978I-1J999999D01*
G01*
X139799978Y-130370022D02*
G75*
G02*
X140799978Y-131370022I2J-999998D01*
G01*
X140799978Y-143469978D02*
G75*
G02*
X139799978Y-144469978I-999998J-2D01*
G01*
%TO.C,K23*%
X183850022Y-150420022D02*
X183850022Y-162519978D01*
X184850022Y-149420022D02*
X196949978Y-149420022D01*
X184850022Y-163519978D02*
X196949978Y-163519978D01*
X197949978Y-150420022D02*
X197949978Y-162519978D01*
X183850022Y-150420022D02*
G75*
G02*
X184850022Y-149420022I999999J1D01*
G01*
X184850022Y-163519978D02*
G75*
G02*
X183850022Y-162519978I-1J999999D01*
G01*
X196949978Y-149420022D02*
G75*
G02*
X197949978Y-150420022I2J-999998D01*
G01*
X197949978Y-162519978D02*
G75*
G02*
X196949978Y-163519978I-999998J-2D01*
G01*
%TO.C,K22*%
X183850022Y-131370022D02*
X183850022Y-143469978D01*
X184850022Y-130370022D02*
X196949978Y-130370022D01*
X184850022Y-144469978D02*
X196949978Y-144469978D01*
X197949978Y-131370022D02*
X197949978Y-143469978D01*
X183850022Y-131370022D02*
G75*
G02*
X184850022Y-130370022I999999J1D01*
G01*
X184850022Y-144469978D02*
G75*
G02*
X183850022Y-143469978I-1J999999D01*
G01*
X196949978Y-130370022D02*
G75*
G02*
X197949978Y-131370022I2J-999998D01*
G01*
X197949978Y-143469978D02*
G75*
G02*
X196949978Y-144469978I-999998J-2D01*
G01*
%TO.C,K18*%
X164800022Y-131370022D02*
X164800022Y-143469978D01*
X165800022Y-130370022D02*
X177899978Y-130370022D01*
X165800022Y-144469978D02*
X177899978Y-144469978D01*
X178899978Y-131370022D02*
X178899978Y-143469978D01*
X164800022Y-131370022D02*
G75*
G02*
X165800022Y-130370022I999999J1D01*
G01*
X165800022Y-144469978D02*
G75*
G02*
X164800022Y-143469978I-1J999999D01*
G01*
X177899978Y-130370022D02*
G75*
G02*
X178899978Y-131370022I2J-999998D01*
G01*
X178899978Y-143469978D02*
G75*
G02*
X177899978Y-144469978I-999998J-2D01*
G01*
%TO.C,K19*%
X164800022Y-150420022D02*
X164800022Y-162519978D01*
X165800022Y-149420022D02*
X177899978Y-149420022D01*
X165800022Y-163519978D02*
X177899978Y-163519978D01*
X178899978Y-150420022D02*
X178899978Y-162519978D01*
X164800022Y-150420022D02*
G75*
G02*
X165800022Y-149420022I999999J1D01*
G01*
X165800022Y-163519978D02*
G75*
G02*
X164800022Y-162519978I-1J999999D01*
G01*
X177899978Y-149420022D02*
G75*
G02*
X178899978Y-150420022I2J-999998D01*
G01*
X178899978Y-162519978D02*
G75*
G02*
X177899978Y-163519978I-999998J-2D01*
G01*
%TO.C,K40*%
X260050022Y-169470022D02*
X260050022Y-181569978D01*
X261050022Y-168470022D02*
X273149978Y-168470022D01*
X261050022Y-182569978D02*
X273149978Y-182569978D01*
X274149978Y-169470022D02*
X274149978Y-181569978D01*
X260050022Y-169470022D02*
G75*
G02*
X261050022Y-168470022I999999J1D01*
G01*
X261050022Y-182569978D02*
G75*
G02*
X260050022Y-181569978I-1J999999D01*
G01*
X273149978Y-168470022D02*
G75*
G02*
X274149978Y-169470022I2J-999998D01*
G01*
X274149978Y-181569978D02*
G75*
G02*
X273149978Y-182569978I-999998J-2D01*
G01*
%TO.C,K12*%
X126700022Y-169470022D02*
X126700022Y-181569978D01*
X127700022Y-168470022D02*
X139799978Y-168470022D01*
X127700022Y-182569978D02*
X139799978Y-182569978D01*
X140799978Y-169470022D02*
X140799978Y-181569978D01*
X126700022Y-169470022D02*
G75*
G02*
X127700022Y-168470022I999999J1D01*
G01*
X127700022Y-182569978D02*
G75*
G02*
X126700022Y-181569978I-1J999999D01*
G01*
X139799978Y-168470022D02*
G75*
G02*
X140799978Y-169470022I2J-999998D01*
G01*
X140799978Y-181569978D02*
G75*
G02*
X139799978Y-182569978I-999998J-2D01*
G01*
%TO.C,K31*%
X221950022Y-150420022D02*
X221950022Y-162519978D01*
X222950022Y-149420022D02*
X235049978Y-149420022D01*
X222950022Y-163519978D02*
X235049978Y-163519978D01*
X236049978Y-150420022D02*
X236049978Y-162519978D01*
X221950022Y-150420022D02*
G75*
G02*
X222950022Y-149420022I999999J1D01*
G01*
X222950022Y-163519978D02*
G75*
G02*
X221950022Y-162519978I-1J999999D01*
G01*
X235049978Y-149420022D02*
G75*
G02*
X236049978Y-150420022I2J-999998D01*
G01*
X236049978Y-162519978D02*
G75*
G02*
X235049978Y-163519978I-999998J-2D01*
G01*
%TO.C,K15*%
X145750022Y-150420022D02*
X145750022Y-162519978D01*
X146750022Y-149420022D02*
X158849978Y-149420022D01*
X146750022Y-163519978D02*
X158849978Y-163519978D01*
X159849978Y-150420022D02*
X159849978Y-162519978D01*
X145750022Y-150420022D02*
G75*
G02*
X146750022Y-149420022I999999J1D01*
G01*
X146750022Y-163519978D02*
G75*
G02*
X145750022Y-162519978I-1J999999D01*
G01*
X158849978Y-149420022D02*
G75*
G02*
X159849978Y-150420022I2J-999998D01*
G01*
X159849978Y-162519978D02*
G75*
G02*
X158849978Y-163519978I-999998J-2D01*
G01*
%TO.C,K26*%
X202900022Y-131370022D02*
X202900022Y-143469978D01*
X203900022Y-130370022D02*
X215999978Y-130370022D01*
X203900022Y-144469978D02*
X215999978Y-144469978D01*
X216999978Y-131370022D02*
X216999978Y-143469978D01*
X202900022Y-131370022D02*
G75*
G02*
X203900022Y-130370022I999999J1D01*
G01*
X203900022Y-144469978D02*
G75*
G02*
X202900022Y-143469978I-1J999999D01*
G01*
X215999978Y-130370022D02*
G75*
G02*
X216999978Y-131370022I2J-999998D01*
G01*
X216999978Y-143469978D02*
G75*
G02*
X215999978Y-144469978I-999998J-2D01*
G01*
%TD*%
M02*
